<svg width="160" height="160" viewBox="0 0 160 160" fill="none" xmlns="http://www.w3.org/2000/svg">
<circle cx="20" cy="108" r="8" fill="#1B1B1B"/>
<circle cx="142" cy="108" r="8" fill="#1B1B1B"/>
<mask id="path-3-inside-1_59_341" fill="white">
<path fill-rule="evenodd" clip-rule="evenodd" d="M36 105C36 92.2975 46.2975 82 59 82H103C115.703 82 126 92.2975 126 105C126 117.703 115.703 128 103 128H59C46.2975 128 36 117.703 36 105ZM68 105C68 108.866 64.866 112 61 112C57.134 112 54 108.866 54 105C54 101.134 57.134 98 61 98C64.866 98 68 101.134 68 105ZM101 112C104.866 112 108 108.866 108 105C108 101.134 104.866 98 101 98C97.134 98 94 101.134 94 105C94 108.866 97.134 112 101 112Z"/>
</mask>
<path fill-rule="evenodd" clip-rule="evenodd" d="M36 105C36 92.2975 46.2975 82 59 82H103C115.703 82 126 92.2975 126 105C126 117.703 115.703 128 103 128H59C46.2975 128 36 117.703 36 105ZM68 105C68 108.866 64.866 112 61 112C57.134 112 54 108.866 54 105C54 101.134 57.134 98 61 98C64.866 98 68 101.134 68 105ZM101 112C104.866 112 108 108.866 108 105C108 101.134 104.866 98 101 98C97.134 98 94 101.134 94 105C94 108.866 97.134 112 101 112Z" fill="#1B1B1B"/>
<path d="M59 74C41.8792 74 28 87.8792 28 105H44C44 96.7157 50.7157 90 59 90V74ZM103 74H59V90H103V74ZM134 105C134 87.8792 120.121 74 103 74V90C111.284 90 118 96.7157 118 105H134ZM103 136C120.121 136 134 122.121 134 105H118C118 113.284 111.284 120 103 120V136ZM59 136H103V120H59V136ZM28 105C28 122.121 41.8792 136 59 136V120C50.7157 120 44 113.284 44 105H28ZM61 120C69.2843 120 76 113.284 76 105H60C60 104.448 60.4477 104 61 104V120ZM46 105C46 113.284 52.7157 120 61 120V104C61.5523 104 62 104.448 62 105H46ZM61 90C52.7157 90 46 96.7157 46 105H62C62 105.552 61.5523 106 61 106V90ZM76 105C76 96.7157 69.2843 90 61 90V106C60.4477 106 60 105.552 60 105H76ZM100 105C100 104.448 100.448 104 101 104V120C109.284 120 116 113.284 116 105H100ZM101 106C100.448 106 100 105.552 100 105H116C116 96.7157 109.284 90 101 90V106ZM102 105C102 105.552 101.552 106 101 106V90C92.7157 90 86 96.7157 86 105H102ZM101 104C101.552 104 102 104.448 102 105H86C86 113.284 92.7157 120 101 120V104Z" fill="#1B1B1B" mask="url(#path-3-inside-1_59_341)"/>
<path d="M22 92C26.6247 76.4145 41.0198 65.0494 58.0614 65.0494H103.939C120.98 65.0494 135.375 76.4145 140 92M80.8974 65V50.8695C64.7017 40.3947 63.2068 34.5753 62.2101 29.9198C60.9643 24.1004 65.4903 18.5632 69.685 18.281C73.2458 18.0415 78.4058 19.6623 80.8974 27.592C83.3891 19.4449 88.3723 17.1171 93.3556 18.281C98.3389 19.4449 103.322 27.592 97.0931 35.7392" stroke="#1B1B1B" stroke-width="8" stroke-linecap="round" stroke-linejoin="round"/>
<path d="M140 114C135.375 131.349 120.98 144 103.939 144L81 144L58.0614 144C41.0198 144 22 131 22 114" stroke="#1B1B1B" stroke-width="8" stroke-linecap="round" stroke-linejoin="round"/>
</svg>
