<svg width="1752" height="447" viewBox="0 0 1752 447" fill="none" xmlns="http://www.w3.org/2000/svg">
<g clip-path="url(#clip0_1352_2435)">
<rect width="1752" height="447" fill="#8EB4FF"/>
<path d="M1146.78 270.635L1207.5 147L1270.35 270.635L1403.72 228.278L1362.26 360.052L1485 424.5L1364.86 485.752L1403.72 620.722L1273.55 580.251L1207.5 702L1145.71 581.133L1011.28 620.722L1053.53 488.948L930 424.5L1054.87 360.052L1011.28 228.278L1146.78 270.635Z" fill="#6EA0FF"/>
<path d="M89.4142 447.497C232.489 464.423 522.142 448.082 536.149 247.302C553.658 -3.67366 242.426 12.1938 336.93 232.822C431.434 453.45 776.971 283.962 839.48 -0.36339" stroke="#A4C3FF" stroke-width="20" stroke-linecap="round"/>
<path d="M694.583 559.51C720.456 548.374 697.206 345.774 694.707 239.963C694.634 236.852 697.634 234.668 700.609 235.582L1076.18 350.973C1078.23 351.604 1079.56 353.619 1079.4 355.759C1070.29 474.244 1081.06 537.38 1089.91 560.844C1091.17 564.183 1088.7 567.973 1085.37 566.693C1074.67 562.578 1065.98 550.337 1059.61 534.602V563.607C1059.61 566.136 1057.52 568.251 1055.09 567.553C1050.82 566.327 1047.17 563.412 1044.11 559.611C1040.77 555.46 1028.57 556.856 1027.99 562.155L1027.78 564.104C1027.53 566.427 1025.56 568.187 1023.23 568.187H944.147H800.719H760.328C759.664 568.187 759.125 567.648 759.125 566.983C759.125 565.617 756.763 565.146 756.042 566.307C749.004 577.624 737.888 574.031 731.421 569.487C730.31 568.706 729.723 567.402 729.723 566.043V557.128C729.723 552.09 720.903 549.883 717.602 553.688C695.928 578.677 667.304 571.251 694.583 559.51Z" fill="#1B1B1B"/>
<path d="M655.135 592.516C681.008 581.38 684.64 378.782 683.196 272.97C683.154 269.859 686.155 267.674 689.129 268.588L738.27 283.686C739.94 284.199 741.173 285.609 741.428 287.337C743.902 304.111 749.373 350.065 754.632 422.443C760.221 499.364 752.303 567.875 747.646 592.516C741.237 611.901 727.289 607.727 719.799 602.392C718.784 601.668 718.243 600.472 718.243 599.226C718.243 594.602 709.376 592.094 705.917 595.162C677.959 619.955 627.196 604.541 655.135 592.516Z" fill="#1B1B1B"/>
<path d="M1011.75 601.193H937.246C934.717 601.193 932.666 599.142 932.666 596.613V349.612C932.666 346.532 935.646 344.33 938.591 345.235L1064.7 383.979C1066.75 384.61 1068.08 386.625 1067.92 388.765C1058.81 507.25 1069.58 570.387 1078.43 593.85C1079.69 597.19 1077.22 600.98 1073.89 599.699C1063.19 595.584 1054.5 583.343 1048.13 567.608V596.613C1048.13 599.142 1046.04 601.257 1043.61 600.559C1039.34 599.333 1035.69 596.418 1032.63 592.617C1029.28 588.466 1017.09 589.862 1016.51 595.161L1016.3 597.11C1016.05 599.433 1014.08 601.193 1011.75 601.193Z" fill="#1B1B1B"/>
<path d="M956.261 633.401C946.747 612.781 954.968 569.017 961.988 551.502L758.936 436.794C785.485 518.594 770.046 614.203 748.173 647.034C715.539 651.984 747.487 728.75 815.959 751.459C884.43 774.168 957.961 743.469 985.552 706.867C979.016 702.053 965.775 654.021 956.261 633.401Z" fill="url(#paint0_linear_1352_2435)"/>
<path d="M1104.8 363.844C1096.19 357.864 1086.86 342.796 1085.42 306.201V278.217H1050.26V336.729C1050.26 362.987 1078.96 363.844 1104.8 363.844Z" fill="#1B1B1B"/>
<path d="M1072.93 294.72C1072.93 309.691 1067.47 355.19 1066.77 369.345C1070.43 433.784 1052.42 491.327 1026.58 517.159C998.597 553.753 984.261 572.989 947.651 572.989C845.805 572.989 742.434 457.603 732.388 359.299C732.388 226.848 787.684 95.8223 889.53 95.8223C991.376 95.8223 1072.93 162.27 1072.93 294.72Z" fill="url(#paint1_linear_1352_2435)"/>
<path d="M696.869 321.302C724.428 298.833 751.253 326.335 757.499 334.514V425.109C713.405 436.433 673.719 340.176 696.869 321.302Z" fill="white"/>
<path d="M932.581 319.836V310.508C867.285 294.722 842.171 329.164 856.521 319.836C868.002 312.373 912.011 316.727 932.581 319.836Z" fill="#E1EBFF"/>
<path d="M997.16 319.727V310.898C1052.24 295.956 1073.42 328.556 1061.32 319.727C1051.63 312.664 1014.51 316.784 997.16 319.727Z" fill="#CDDEFF"/>
<path d="M826.952 283.924C808.009 293.109 798.968 322.671 796.815 336.305L785.334 286.794L826.952 283.924Z" fill="#A4C3FF"/>
<path d="M848.629 283.958C838.296 232.295 831.408 262.432 829.255 283.958L806.293 216.509L846.476 223.684L848.629 283.958Z" fill="#A4C3FF"/>
<path d="M1034.48 283.958C1024.14 232.295 1017.25 262.432 1015.1 283.958L992.14 216.509L1032.33 223.684L1034.48 283.958Z" fill="#A4C3FF"/>
<path d="M777.592 384.414C772.855 382.383 755.085 359.148 753.191 362.451L753.913 367.193C753.028 364.537 752.846 363.053 753.191 362.451L750.133 342.374L777.592 384.414Z" fill="#A4C3FF"/>
<g filter="url(#filter0_f_1352_2435)">
<path d="M843.475 457.342C870.223 463.019 894.952 453.275 898.707 435.578C902.463 417.881 883.824 398.933 857.075 393.257C830.327 387.58 805.599 397.325 801.843 415.021C798.088 432.718 816.727 451.666 843.475 457.342Z" fill="#E1EBFF"/>
</g>
<path d="M724.493 329.163C728.512 344.088 734.778 349.254 737.409 349.972C737.409 351.407 734.539 354.995 723.058 357.865C711.578 360.735 715.883 372.455 719.471 377.956C732.386 381.305 754.056 390.011 737.409 398.047C716.6 408.093 707.99 354.995 699.379 343.514C690.769 332.033 719.471 310.507 724.493 329.163Z" fill="#A4C3FF"/>
<g filter="url(#filter1_f_1352_2435)">
<path d="M1061.32 437.24C1055.88 456.592 1047.38 463.699 1036.59 460.663C1025.8 457.627 1021.47 439.478 1026.91 420.125C1032.36 400.773 1045.52 387.545 1056.31 390.581C1067.1 393.617 1066.77 417.887 1061.32 437.24Z" fill="#CDDEFF"/>
</g>
<path d="M890.354 377.928C897.351 377.427 902.563 370.592 901.995 362.661C901.427 354.731 895.294 348.708 888.296 349.209C881.299 349.711 876.087 356.546 876.655 364.477C877.223 372.407 883.356 378.43 890.354 377.928Z" fill="#2B62CD"/>
<path d="M912.535 344.994C921.295 349.121 931.729 366.56 932.939 375.247C927.515 365.164 912.535 341.325 879.1 355.219C876.152 343.744 898.717 339.192 912.535 344.994Z" fill="#E1EBFF"/>
<path d="M932.938 375.247C931.75 366.559 923.089 350.531 914.641 346.381" stroke="#A4C3FF" stroke-width="3.05316" stroke-linecap="round"/>
<path d="M867.265 367.885C859.557 370.442 845.016 371.751 848.517 356.533C852.893 337.511 887.105 344.415 867.265 367.885Z" fill="#EEF4FF"/>
<path d="M869.435 367.19C886.479 382.5 907.479 365 930.312 376.688C907.815 386.6 861.932 395.019 869.435 367.19Z" fill="#E1EBFF"/>
<path d="M889.138 367.67C891.471 367.503 893.226 365.477 893.059 363.144C892.892 360.812 890.865 359.056 888.533 359.223C886.2 359.39 884.445 361.417 884.612 363.749C884.779 366.082 886.806 367.837 889.138 367.67Z" fill="#1B1B1B"/>
<path d="M868.718 365.037C873.713 359.409 878.095 356.219 887.506 353.435C898.815 350.091 915.906 351.1 926.711 367.378L931.144 375.083" stroke="#1B1B1B" stroke-width="3.60332" stroke-linecap="round"/>
<path d="M890.97 356.087L884.213 356.571L884.455 359.949L891.212 359.465L890.97 356.087Z" fill="white"/>
<path d="M882.525 356.693L880.836 356.814L881.078 360.193L882.767 360.072L882.525 356.693Z" fill="white"/>
<path d="M1017.13 375.067C1010.91 374.622 1006.29 368.503 1006.8 361.399C1007.31 354.296 1012.76 348.898 1018.97 349.343C1025.18 349.788 1029.8 355.907 1029.29 363.011C1028.78 370.114 1023.34 375.512 1017.13 375.067Z" fill="#2B62CD"/>
<path d="M1013.59 342.956C1006.9 347.231 1003.97 363.518 1002.91 372.215C1007.18 362.05 1021.36 344.022 1033.92 346.96C1032.66 342.907 1024.13 336.919 1013.59 342.956Z" fill="#CDDEFF"/>
<path d="M1005.78 355.79C1007.45 350.528 1012.95 338.856 1027.31 340.004C1041.66 341.152 1047.16 346.701 1047.4 348.615" stroke="#A4C3FF" stroke-width="1.52658"/>
<path d="M1052.08 363.566L1052.02 363.539C1034.17 334.243 1069.86 323.577 1068.21 347.819C1066.7 369.86 1059.16 366.614 1052.08 363.566Z" fill="#CDDEFF"/>
<path d="M1051.36 363.491C1043.42 372.261 1013.16 367.547 1005.09 373.761C1022.59 383.314 1056.82 391.173 1051.36 363.491Z" fill="#CDDEFF"/>
<path d="M1014.93 365.832C1013.1 365.701 1011.76 363.704 1011.92 361.371C1012.09 359.039 1013.71 357.254 1015.54 357.385C1017.36 357.516 1018.71 359.513 1018.54 361.845C1018.37 364.178 1016.76 365.963 1014.93 365.832Z" fill="#1B1B1B"/>
<path d="M1051.7 361.454C1047.87 355.909 1046.38 352.51 1039.04 349.875C1030.21 346.709 1016.79 347.981 1008.06 364.407L1004.34 372.217" stroke="#1B1B1B" stroke-width="3.60332" stroke-linecap="round"/>
<path d="M1019.13 353.945L1024.43 354.325L1024.18 357.703L1018.89 357.324L1019.13 353.945Z" fill="white"/>
<path d="M1025.75 354.421L1027.08 354.516L1026.83 357.894L1025.51 357.8L1025.75 354.421Z" fill="white"/>
<path d="M958.414 395.895C959.206 395.895 959.849 395.253 959.849 394.46C959.849 393.667 959.206 393.025 958.414 393.025C957.621 393.025 956.979 393.667 956.979 394.46C956.979 395.253 957.621 395.895 958.414 395.895Z" fill="#96AFE1"/>
<path d="M964.151 434.641C973.718 436.315 992.566 435.645 991.418 419.572C990.269 403.499 978.023 378.911 972.044 370.062" stroke="url(#paint2_linear_1352_2435)" stroke-width="4.57975" stroke-linecap="round"/>
<path d="M741.716 413.115C744.886 413.115 747.456 410.545 747.456 407.375C747.456 404.204 744.886 401.634 741.716 401.634C738.546 401.634 735.976 404.204 735.976 407.375C735.976 410.545 738.546 413.115 741.716 413.115Z" fill="#003FB8"/>
<path d="M989.267 428.185C996.156 417.278 980.657 388.241 972.046 375.086L962 432.49C968.219 435.599 982.379 439.091 989.267 428.185Z" fill="white"/>
<path d="M1077.38 173.423C1094.42 198.557 1100.72 230.975 1102.56 296.588C1102.61 298.304 1101.23 299.744 1099.51 299.744H1033.74C1032.13 299.744 1030.8 298.514 1030.7 296.912C1029.74 280.769 1028.69 251.415 1018.74 233.653C1017.33 231.131 1014.12 232.395 1014.35 235.278L1019.14 296.452C1019.28 298.227 1017.88 299.744 1016.1 299.744H933.128C932.318 299.744 931.542 299.422 930.969 298.85L920.572 288.452C918.648 286.529 915.36 287.891 915.36 290.611V296.691C915.36 298.377 913.993 299.744 912.307 299.744H852.268C850.581 299.744 849.216 298.391 849.196 296.705C848.957 276.897 846.383 242.513 837.861 230.203C836.526 228.275 834.146 229.471 834.146 231.815V297.288C834.146 298.722 833.148 299.963 831.747 300.27L806.924 305.719C805.617 306.006 804.649 307.125 804.529 308.457C800.852 349.338 793.52 372.436 808.562 395.674C809.864 397.687 808.652 400.372 806.263 400.178C790.771 398.915 764.281 387.062 753.818 346.437L760.39 375.252C760.931 377.625 758.61 379.629 756.479 378.452C745.713 372.501 740.883 361.064 735.908 324.031C735.852 323.616 735.712 323.205 735.477 322.859C734.474 321.378 731.326 317.152 726.646 314.812C722.385 312.682 718.035 311.942 713.012 312.66C707.99 313.377 696.652 318.797 694.356 323.389C691.486 329.13 645.411 197.102 761.653 113.866C865.43 39.5573 1007.77 70.814 1077.38 173.423Z" fill="#1B1B1B"/>
<path d="M1077.38 173.423C1094.42 198.557 1100.72 230.975 1102.56 296.588C1102.61 298.304 1101.23 299.744 1099.51 299.744H1033.74C1032.13 299.744 1030.8 298.514 1030.7 296.912C1029.74 280.769 1028.69 251.415 1018.74 233.653C1017.33 231.131 1014.12 232.395 1014.35 235.278L1019.14 296.452C1019.28 298.227 1017.88 299.744 1016.1 299.744H933.128C932.318 299.744 931.542 299.422 930.969 298.85L920.572 288.452C918.648 286.529 915.36 287.891 915.36 290.611V296.691C915.36 298.377 913.993 299.744 912.307 299.744H852.268C850.581 299.744 849.216 298.391 849.196 296.705C848.957 276.897 846.383 242.513 837.861 230.203C836.526 228.275 834.146 229.471 834.146 231.815V297.288C834.146 298.722 833.148 299.963 831.747 300.27L806.924 305.719C805.617 306.006 804.649 307.125 804.529 308.457C800.852 349.338 793.52 372.436 808.562 395.674C809.864 397.687 808.652 400.372 806.263 400.178C789.968 398.85 761.508 385.806 752.325 339.893L760.39 375.252C760.931 377.625 758.61 379.629 756.479 378.452C745.713 372.501 740.883 361.064 735.908 324.031C735.852 323.616 735.712 323.205 735.477 322.859C734.474 321.378 731.326 317.152 726.646 314.812C722.385 312.682 718.035 311.942 713.012 312.66C707.99 313.377 696.652 318.797 694.356 323.389C691.486 329.13 645.411 197.102 761.653 113.866C865.43 39.5573 1007.77 70.814 1077.38 173.423Z" stroke="#1B1B1B" stroke-width="1.52658"/>
<path d="M45.6392 104.831C45.9733 103.698 48.9369 103.698 49.2709 104.831C50.2755 108.238 51.7698 111.827 53.9266 113.984C56.0834 116.141 59.6723 117.635 63.0791 118.64C64.212 118.974 64.212 121.937 63.0791 122.271C59.6723 123.276 56.0834 124.77 53.9266 126.927C51.7698 129.084 50.2755 132.673 49.2709 136.079C48.9369 137.212 45.9733 137.212 45.6392 136.079C44.6347 132.673 43.1404 129.084 40.9836 126.927C38.8268 124.77 35.2379 123.276 31.831 122.271C30.6981 121.937 30.6981 118.974 31.831 118.64C35.2379 117.635 38.8268 116.141 40.9836 113.984C43.1404 111.827 44.6347 108.238 45.6392 104.831Z" fill="#D1E0FF" fill-opacity="0.5"/>
<path d="M1753.31 245.161C1753.31 433.956 1486 290.499 1486 501.625V572H1984V-171C1168.89 -55.9636 1753.31 86.1402 1753.31 245.161Z" fill="url(#paint3_linear_1352_2435)"/>
<path d="M139.743 398.846C286.612 398.846 175.013 861 339.253 861L394 861L394 -2.52652e-05L-184 0C-94.51 1409.25 16.0364 398.846 139.743 398.846Z" fill="url(#paint4_linear_1352_2435)"/>
<path d="M1334.69 -9.01435L1274.68 214.961L1386.66 244.968C1476.25 268.974 1517.1 206.11 1528.66 162.988C1540.21 119.865 1536.27 44.9984 1446.68 20.9927L1334.69 -9.01435Z" fill="#2A73FF"/>
<path d="M1442.03 199.759C1456.98 143.959 1389.5 104.993 1353.89 92.4855L1294.98 214.94C1364.73 233.629 1427.08 255.558 1442.03 199.759Z" fill="#1B1B1B"/>
<ellipse cx="1304.61" cy="103.329" rx="125.774" ry="45.7483" transform="rotate(-75 1304.61 103.329)" fill="#0057FF"/>
<ellipse cx="1294.6" cy="100.924" rx="103.73" ry="31.5201" transform="rotate(-75 1294.6 100.924)" fill="#1B1B1B"/>
<circle cx="1399.64" cy="50.1604" r="27.5085" transform="rotate(-75 1399.64 50.1604)" fill="#0057FF"/>
<path d="M1394.63 42.2918C1392.38 50.706 1399.91 56.56 1403.95 58.4353C1432.74 66.1483 1482.21 91.8641 1447.21 222.505C1419.2 327.018 1375.01 274.951 1356.19 236.683L1332.39 230.305C1361.48 291.498 1429.83 375.909 1469.94 226.225C1510.05 76.5405 1446.2 42.4641 1410.78 32.9713C1406.33 32.5722 1396.89 33.8776 1394.63 42.2918Z" fill="#C7DCFF"/>
<path d="M1181 162.538C1215.37 103.017 1287.58 113.016 1319.39 125.456C1311.61 158.394 1294.79 180.503 1287.35 187.439C1282.41 192.823 1278.21 226.143 1260.2 233.209C1235.22 243.014 1235.22 202.288 1235.22 214.355C1235.22 272.401 1197.48 273.935 1183.94 252.847C1168.85 229.343 1162.18 195.141 1181 162.538Z" fill="#C7DCFF"/>
<path d="M1232.19 363.518C1253.2 358.018 1251.12 332.578 1247.45 320.545C1245.54 313.249 1239.46 303.145 1232.46 304.978C1217.87 308.798 1224.69 343.811 1220.45 327.611C1205.37 269.972 1190.82 294.828 1195.6 313.068C1201.53 335.754 1211.18 369.018 1232.19 363.518Z" fill="url(#paint5_linear_1352_2435)"/>
<path d="M113.813 462.219L113.107 462.219L112.607 461.721L-25.9668 323.747L-29.3792 323.747C-30.323 326.401 -31.2404 330.271 -31.2874 334.277C-31.3414 338.867 -30.2558 343.376 -27.0791 346.553C-27.0787 346.554 -27.0783 346.554 -27.0779 346.554L121.484 494.362L149.532 494.362L209.721 494.362L177.577 462.219L113.813 462.219Z" fill="#1B1B1B" stroke="#1B1B1B" stroke-width="3.42058"/>
<path d="M504.415 468.832L357.62 322.037L-29.7996 322.037L116.996 468.832L504.415 468.832Z" fill="#2A73FF"/>
<path d="M309.949 322.037L456.744 468.832" stroke="#1B1B1B" stroke-width="2.28038"/>
<path d="M253.953 322.037L400.748 468.832" stroke="#1B1B1B" stroke-width="2.28038"/>
<path d="M197.96 322.037L344.756 468.832" stroke="#1B1B1B" stroke-width="2.28038"/>
<path d="M141.966 322.037L288.762 468.832" stroke="#1B1B1B" stroke-width="2.28038"/>
<path d="M85.9711 322.037L232.767 468.832" stroke="#1B1B1B" stroke-width="2.28038"/>
<path d="M29.9769 322.037L176.772 468.832" stroke="#1B1B1B" stroke-width="2.28038"/>
<path d="M116.237 469.589L-29.8015 323.55" stroke="#1B1B1B" stroke-width="3.42058"/>
<path d="M114.571 181.854L113.865 181.854L113.365 182.352L-25.209 320.326L-28.6214 320.326C-29.5651 317.672 -30.4825 313.802 -30.5296 309.796C-30.5836 305.205 -29.498 300.697 -26.3213 297.52C-26.3209 297.519 -26.3205 297.519 -26.3201 297.518L122.242 149.71L150.29 149.71L210.478 149.71L178.335 181.854L114.571 181.854Z" fill="#1B1B1B" stroke="#1B1B1B" stroke-width="3.42058"/>
<path d="M505.173 175.241L358.377 322.036L-29.0418 322.036L117.754 175.241L505.173 175.241Z" fill="white"/>
<path d="M116.998 175.24L504.417 175.24C504.417 166.16 498.969 148 477.177 148L144.238 148C118.814 148 115.484 166.16 116.998 175.24Z" fill="#0057FF"/>
<path d="M503.659 175.24L116.997 175.24" stroke="#1B1B1B" stroke-width="3.42058"/>
<path d="M642.181 -79.8604L547.972 199.639L535.055 224.556C544.118 223.983 568.19 218.606 574.364 200.289L652.872 -32.6275C655.052 -42.5726 655.967 -65.9423 642.181 -79.8604Z" fill="#0057FF"/>
<path d="M377.226 242.946L471.436 -36.5535L644.109 -79.618L549.9 199.881L377.226 242.946Z" fill="#C7DCFF"/>
<path d="M549.899 199.881L643.31 -77.2493" stroke="#1B1B1B" stroke-width="2.32255" stroke-linecap="round"/>
<path d="M398.428 215.24L478.987 -24.6965L616.029 -58.8746L535.47 181.061L398.428 215.24Z" fill="white"/>
<path d="M552.906 198.408L380.232 241.473C383.69 247.601 393.345 259.174 404.309 256.44L545.188 221.305C558.344 218.024 555.815 204.673 552.906 198.408Z" fill="#1B1B1B" stroke="#1B1B1B" stroke-width="4.64509" stroke-linecap="round"/>
<path d="M588.639 370.831C588.973 369.698 591.937 369.698 592.271 370.831C593.275 374.238 594.77 377.827 596.927 379.984C599.083 382.141 602.672 383.635 606.079 384.64C607.212 384.974 607.212 387.937 606.079 388.271C602.672 389.276 599.083 390.77 596.927 392.927C594.77 395.084 593.275 398.673 592.271 402.079C591.937 403.212 588.973 403.212 588.639 402.079C587.635 398.673 586.14 395.084 583.984 392.927C581.827 390.77 578.238 389.276 574.831 388.271C573.698 387.937 573.698 384.974 574.831 384.64C578.238 383.635 581.827 382.141 583.984 379.984C586.14 377.827 587.635 374.238 588.639 370.831Z" fill="#D1E0FF" fill-opacity="0.5"/>
<path d="M1118.64 55.8313C1118.97 54.6984 1121.94 54.6985 1122.27 55.8313C1123.28 59.2382 1124.77 62.8271 1126.93 64.9839C1129.08 67.1407 1132.67 68.635 1136.08 69.6396C1137.21 69.9736 1137.21 72.9372 1136.08 73.2713C1132.67 74.2758 1129.08 75.7701 1126.93 77.9269C1124.77 80.0837 1123.28 83.6726 1122.27 87.0795C1121.94 88.2124 1118.97 88.2124 1118.64 87.0795C1117.63 83.6726 1116.14 80.0837 1113.98 77.9269C1111.83 75.7701 1108.24 74.2758 1104.83 73.2713C1103.7 72.9372 1103.7 69.9736 1104.83 69.6396C1108.24 68.635 1111.83 67.1407 1113.98 64.9839C1116.14 62.8271 1117.63 59.2382 1118.64 55.8313Z" fill="#D1E0FF" fill-opacity="0.5"/>
<path d="M1512.64 299.831C1512.97 298.698 1515.94 298.698 1516.27 299.831C1517.28 303.238 1518.77 306.827 1520.93 308.984C1523.08 311.141 1526.67 312.635 1530.08 313.64C1531.21 313.974 1531.21 316.937 1530.08 317.271C1526.67 318.276 1523.08 319.77 1520.93 321.927C1518.77 324.084 1517.28 327.673 1516.27 331.079C1515.94 332.212 1512.97 332.212 1512.64 331.079C1511.63 327.673 1510.14 324.084 1507.98 321.927C1505.83 319.77 1502.24 318.276 1498.83 317.271C1497.7 316.937 1497.7 313.974 1498.83 313.64C1502.24 312.635 1505.83 311.141 1507.98 308.984C1510.14 306.827 1511.63 303.238 1512.64 299.831Z" fill="#D1E0FF" fill-opacity="0.5"/>
<path d="M722.801 262.138L729.469 255.47L736.138 248.801L708.132 220.795L734.804 205.681L640.561 166.562L679.681 260.804L694.795 234.132L722.801 262.138Z" fill="white"/>
<g filter="url(#filter2_b_1352_2435)">
<rect x="1624.63" y="248.106" width="331.278" height="244.26" fill="white" fill-opacity="0.25"/>
</g>
<path fill-rule="evenodd" clip-rule="evenodd" d="M1633.79 242H1617V258.793H1625.4H1633.79V250.396V242ZM1963.55 242H1946.75V258.793H1963.55V242ZM1946.75 483.207H1955.15H1963.54V500H1946.75V491.603V483.207ZM1633.79 500V483.207H1617V500H1633.79Z" fill="white"/>
<path d="M1617 242V239.71H1614.71V242H1617ZM1633.79 242H1636.08V239.71H1633.79V242ZM1617 258.793H1614.71V261.083H1617V258.793ZM1633.79 258.793V261.083H1636.08V258.793H1633.79ZM1946.75 242V239.71H1944.46V242H1946.75ZM1963.55 242H1965.84V239.71H1963.55V242ZM1946.75 258.793H1944.46V261.083H1946.75V258.793ZM1963.55 258.793V261.083H1965.84V258.793H1963.55ZM1946.75 483.207V480.917H1944.46V483.207H1946.75ZM1963.54 483.207H1965.83V480.917H1963.54V483.207ZM1963.54 500V502.29H1965.83V500H1963.54ZM1946.75 500H1944.46V502.29H1946.75V500ZM1633.79 483.207H1636.08V480.917H1633.79V483.207ZM1633.79 500V502.29H1636.08V500H1633.79ZM1617 483.207V480.917H1614.71V483.207H1617ZM1617 500H1614.71V502.29H1617V500ZM1617 244.29H1633.79V239.71H1617V244.29ZM1619.29 258.793V242H1614.71V258.793H1619.29ZM1625.4 256.503H1617V261.083H1625.4V256.503ZM1633.79 256.503H1625.4V261.083H1633.79V256.503ZM1631.5 250.396V258.793H1636.08V250.396H1631.5ZM1631.5 242V250.396H1636.08V242H1631.5ZM1946.75 244.29H1963.55V239.71H1946.75V244.29ZM1949.04 258.793V242H1944.46V258.793H1949.04ZM1963.55 256.503H1946.75V261.083H1963.55V256.503ZM1961.26 242V258.793H1965.84V242H1961.26ZM1955.15 480.917H1946.75V485.497H1955.15V480.917ZM1963.54 480.917H1955.15V485.497H1963.54V480.917ZM1965.83 500V483.207H1961.25V500H1965.83ZM1946.75 502.29H1963.54V497.71H1946.75V502.29ZM1944.46 491.603V500H1949.04V491.603H1944.46ZM1944.46 483.207V491.603H1949.04V483.207H1944.46ZM1631.5 483.207V500H1636.08V483.207H1631.5ZM1617 485.497H1633.79V480.917H1617V485.497ZM1619.29 500V483.207H1614.71V500H1619.29ZM1633.79 497.71H1617V502.29H1633.79V497.71ZM1633.79 252.686H1946.75V248.107H1633.79V252.686ZM1623.11 258.793V483.207H1627.69V258.793H1623.11ZM1957.44 483.207V258.793H1952.86V483.207H1957.44ZM1946.75 489.314H1633.79V493.893H1946.75V489.314Z" fill="white"/>
<path d="M1645.24 467.178V383.213C1645.24 346.574 1669.67 300.012 1714.7 300.012C1774.24 300.012 1773.48 353.444 1815.46 386.267C1848.32 411.957 1912.4 402.805 1933.01 383.213V467.178H1645.24Z" fill="white"/>
<path d="M186.902 132.133C199.657 172.238 149.167 187.09 106.502 185.944C105.665 185.921 105.005 185.228 105.002 184.389C104.84 135.531 112.906 98.5947 160.187 98.1986C160.663 98.1946 161.13 97.9776 161.427 97.604L178.894 75.5914C179.473 74.8626 180.555 74.7974 181.216 75.4515L210.19 104.102C210.796 104.701 210.812 105.675 210.226 106.293L187.25 130.527C186.85 130.949 186.726 131.579 186.902 132.133Z" fill="#F8F8F8"/>
<path d="M150.467 131.213C154.351 131.213 157.5 134.574 157.5 138.72C157.5 142.866 154.351 146.228 150.467 146.228C146.582 146.228 143.433 142.866 143.433 138.72C143.433 134.574 146.582 131.213 150.467 131.213Z" fill="#F8F8F8"/>
<path d="M186.902 132.133C199.657 172.238 149.167 187.09 106.502 185.944C105.665 185.921 105.005 185.228 105.002 184.389C104.84 135.531 112.906 98.5947 160.187 98.1986M186.902 132.133C186.726 131.579 186.85 130.949 187.25 130.527L210.226 106.293C210.812 105.675 210.796 104.701 210.19 104.102L181.216 75.4515C180.555 74.7974 179.473 74.8626 178.894 75.5914L161.427 97.604C161.13 97.9776 160.663 98.1946 160.187 98.1986M186.902 132.133C199.806 172.706 147.979 187.433 105.01 185.897M160.187 98.1986C112.42 98.5988 104.679 136.293 105.01 185.897M105.01 185.897L144.855 144.297M150.467 131.213C154.351 131.213 157.5 134.574 157.5 138.72C157.5 142.866 154.351 146.228 150.467 146.228C146.582 146.228 143.433 142.866 143.433 138.72C143.433 134.574 146.582 131.213 150.467 131.213Z" stroke="#1B1B1B" stroke-width="6"/>
</g>
<defs>
<filter id="filter0_f_1352_2435" x="763.198" y="353.475" width="174.155" height="143.649" filterUnits="userSpaceOnUse" color-interpolation-filters="sRGB">
<feFlood flood-opacity="0" result="BackgroundImageFix"/>
<feBlend mode="normal" in="SourceGraphic" in2="BackgroundImageFix" result="shape"/>
<feGaussianBlur stdDeviation="19.0823" result="effect1_foregroundBlur_1352_2435"/>
</filter>
<filter id="filter1_f_1352_2435" x="986.397" y="351.982" width="116.798" height="147.52" filterUnits="userSpaceOnUse" color-interpolation-filters="sRGB">
<feFlood flood-opacity="0" result="BackgroundImageFix"/>
<feBlend mode="normal" in="SourceGraphic" in2="BackgroundImageFix" result="shape"/>
<feGaussianBlur stdDeviation="19.0823" result="effect1_foregroundBlur_1352_2435"/>
</filter>
<filter id="filter2_b_1352_2435" x="1618.53" y="242" width="343.49" height="256.473" filterUnits="userSpaceOnUse" color-interpolation-filters="sRGB">
<feFlood flood-opacity="0" result="BackgroundImageFix"/>
<feGaussianBlur in="BackgroundImageFix" stdDeviation="3.05325"/>
<feComposite in2="SourceAlpha" operator="in" result="effect1_backgroundBlur_1352_2435"/>
<feBlend mode="normal" in="SourceGraphic" in2="effect1_backgroundBlur_1352_2435" result="shape"/>
</filter>
<linearGradient id="paint0_linear_1352_2435" x1="814.187" y1="611.157" x2="1416.21" y2="417.42" gradientUnits="userSpaceOnUse">
<stop stop-color="white"/>
<stop offset="1" stop-color="#0057FF"/>
</linearGradient>
<linearGradient id="paint1_linear_1352_2435" x1="938.323" y1="347.101" x2="1228.21" y2="286.11" gradientUnits="userSpaceOnUse">
<stop stop-color="white"/>
<stop offset="1" stop-color="#A4C3FF"/>
</linearGradient>
<linearGradient id="paint2_linear_1352_2435" x1="984.96" y1="399.481" x2="972.044" y2="377.237" gradientUnits="userSpaceOnUse">
<stop stop-color="#A4C3FF"/>
<stop offset="1" stop-color="#A4C3FF" stop-opacity="0"/>
</linearGradient>
<linearGradient id="paint3_linear_1352_2435" x1="1693.4" y1="-171" x2="1693.4" y2="572" gradientUnits="userSpaceOnUse">
<stop stop-color="#4182FF"/>
<stop offset="1" stop-color="#4182FF" stop-opacity="0"/>
</linearGradient>
<linearGradient id="paint4_linear_1352_2435" x1="-184" y1="502.415" x2="394" y2="502.415" gradientUnits="userSpaceOnUse">
<stop stop-color="#4182FF"/>
<stop offset="1" stop-color="#4182FF" stop-opacity="0"/>
</linearGradient>
<linearGradient id="paint5_linear_1352_2435" x1="1233.65" y1="363.136" x2="1189.04" y2="216.555" gradientUnits="userSpaceOnUse">
<stop stop-color="#C7DCFF"/>
<stop offset="1" stop-color="#C7DCFF" stop-opacity="0"/>
</linearGradient>
<clipPath id="clip0_1352_2435">
<rect width="1752" height="447" fill="white"/>
</clipPath>
</defs>
</svg>
