<svg width="1760" height="428" viewBox="0 0 1760 428" fill="none" xmlns="http://www.w3.org/2000/svg">
<g clip-path="url(#clip0_1020_499)">
<rect width="1760" height="428" rx="16" fill="#8EB4FF"/>
<path d="M54.1264 37.4115C54.4824 36.2042 57.6407 36.2042 57.9967 37.4115C59.0672 41.0422 60.6596 44.8668 62.9581 47.1653C65.2566 49.4638 69.0813 51.0563 72.712 52.1268C73.9193 52.4828 73.9193 55.6411 72.712 55.9971C69.0813 57.0676 65.2566 58.66 62.9581 60.9585C60.6596 63.257 59.0672 67.0817 57.9967 70.7124C57.6407 71.9197 54.4824 71.9197 54.1264 70.7124C53.0558 67.0817 51.4634 63.257 49.1649 60.9585C46.8664 58.66 43.0418 57.0676 39.4111 55.9971C38.2038 55.6411 38.2038 52.4828 39.4111 52.1268C43.0418 51.0563 46.8664 49.4638 49.1649 47.1653C51.4634 44.8668 53.0558 41.0422 54.1264 37.4115Z" fill="#D1E0FF" fill-opacity="0.5"/>
<g opacity="0.25">
<g filter="url(#filter0_f_1020_499)">
<path d="M1036.02 -117.73C1036.02 -117.73 1093.76 -75.0802 1129.25 -63.2618C1256.98 -20.7238 1259.4 -137.944 1259.4 -137.944" stroke="#0085FF" stroke-width="84.2405" stroke-linecap="round"/>
</g>
<g filter="url(#filter1_f_1020_499)">
<path d="M1036.02 -117.73C1036.02 -117.73 1170.85 4.6379 1206.34 16.4563C1334.07 58.9943 1240.71 -177.952 1240.71 -177.952" stroke="#0000FF" stroke-width="84.2405" stroke-linecap="round"/>
</g>
<g filter="url(#filter2_f_1020_499)">
<path d="M1163.97 -170.882C1248.6 -130.575 1163.25 -324.595 1110 -426.643L1078.74 -544.071L753.677 -658.1L608.061 -216.452L708.154 -146.135C743.164 -118.299 828.907 -37.3001 858.838 -26.6751C896.251 -13.3938 971.811 5.66366 958.374 -115.596C944.937 -236.856 1058.2 -221.267 1163.97 -170.882Z" fill="url(#paint0_linear_1020_499)"/>
<path d="M1163.97 -170.882C1248.6 -130.575 1163.25 -324.595 1110 -426.643L1078.74 -544.071L753.677 -658.1L608.061 -216.452L708.154 -146.135C743.164 -118.299 828.907 -37.3001 858.838 -26.6751C896.251 -13.3938 971.811 5.66366 958.374 -115.596C944.937 -236.856 1058.2 -221.267 1163.97 -170.882Z" stroke="url(#paint1_linear_1020_499)" stroke-width="105.301"/>
</g>
<g filter="url(#filter3_f_1020_499)">
<path d="M610.366 -286.916L863.775 -100.063" stroke="#5A8CEB" stroke-width="105.301" stroke-linecap="round"/>
</g>
<g filter="url(#filter4_f_1020_499)">
<path d="M1017.32 -172.781L1003.63 -19.4731" stroke="#3470E2" stroke-width="84.2406"/>
</g>
</g>
<path d="M1140.95 184.249L1179.88 105L1220.16 184.249L1305.65 157.098L1279.08 241.565L1357.75 282.875L1280.74 322.138L1305.65 408.652L1222.21 382.71L1179.88 460.751L1140.27 383.276L1054.1 408.652L1081.18 324.186L1002 282.875L1082.04 241.565L1054.1 157.098L1140.95 184.249Z" fill="#6EA0FF"/>
<path d="M139.8 130.849C286.694 130.849 175.075 323.022 339.345 323.022L394.101 323.022L394.101 -35L-184 -35C-94.4944 550.999 16.0713 130.849 139.8 130.849Z" fill="url(#paint2_linear_1020_499)"/>
<path d="M53.2747 255.685C186.785 290.313 463.645 312.415 502.995 123.791C552.184 -111.988 254.917 -137.341 315.914 84.1955C376.911 305.732 726.658 189.827 822.858 -71.7435" stroke="#A4C3FF" stroke-width="13.3741" stroke-linecap="round"/>
<path d="M-33.8664 278.141L83.7981 395.208C90.9297 402.304 100.581 406.287 110.641 406.287L119.25 406.287L137.793 406.287C150.207 406.287 156.423 391.278 147.646 382.501C145.033 379.887 141.488 378.419 137.793 378.419L104.611 378.419C93.7618 378.419 83.3542 374.122 75.666 366.467L-32.0976 259.17C-32.6134 258.656 -33.3117 258.368 -34.0396 258.368C-35.1899 258.368 -36.1101 259.049 -36.3767 259.982C-37.1322 262.623 -37.7014 266.02 -37.4622 269.351C-37.2232 272.678 -36.1896 275.817 -33.8678 278.14C-33.8673 278.14 -33.8668 278.141 -33.8664 278.141Z" fill="#1B1B1B" stroke="#1B1B1B" stroke-width="2.96555"/>
<path d="M423.549 380.778L300.235 257.464C299.864 257.093 299.361 256.885 298.837 256.885L-31.4537 256.885C-33.2151 256.885 -34.0971 259.014 -32.8517 260.26L90.4622 383.574C90.833 383.945 91.3358 384.153 91.8602 384.153L422.151 384.153C423.912 384.153 424.794 382.023 423.549 380.778Z" fill="#2A73FF"/>
<path d="M258.327 256.885L385.595 384.153" stroke="#1B1B1B" stroke-width="1.97703"/>
<path d="M209.781 256.885L337.049 384.153" stroke="#1B1B1B" stroke-width="1.97703"/>
<path d="M161.236 256.885L288.504 384.153" stroke="#1B1B1B" stroke-width="1.97703"/>
<path d="M112.69 256.885L239.958 384.153" stroke="#1B1B1B" stroke-width="1.97703"/>
<path d="M64.1441 256.885L191.412 384.153" stroke="#1B1B1B" stroke-width="1.97703"/>
<path d="M15.5982 256.885L142.866 384.153" stroke="#1B1B1B" stroke-width="1.97703"/>
<path d="M90.3848 384.809L-36.2272 258.197" stroke="#1B1B1B" stroke-width="2.96555"/>
<path d="M90.385 384.152L426.268 384.152C426.268 392.025 421.544 407.769 402.651 407.769L114.002 407.769C91.9595 407.769 89.073 392.025 90.385 384.152Z" fill="#0057FF"/>
<path d="M425.612 384.152L90.3858 384.152" stroke="#1B1B1B" stroke-width="2.96555"/>
<path d="M283.256 395.961L234.054 395.961" stroke="#1B1B1B" stroke-width="5.9311" stroke-linecap="round"/>
<path d="M-33.2101 235.629L84.4544 118.562C91.586 111.466 101.237 107.483 111.297 107.483L119.906 107.483L138.449 107.483C150.863 107.483 157.08 122.492 148.302 131.269C145.689 133.882 142.145 135.35 138.449 135.35L105.267 135.35C94.418 135.35 84.0105 139.648 76.3223 147.303L-31.4414 254.6C-31.9572 255.114 -32.6555 255.402 -33.3834 255.402C-34.5337 255.402 -35.4538 254.721 -35.7205 253.788C-36.4759 251.147 -37.0452 247.75 -36.806 244.419C-36.567 241.092 -35.5333 237.953 -33.2116 235.63C-33.2111 235.63 -33.2106 235.629 -33.2101 235.629Z" fill="#1B1B1B" stroke="#1B1B1B" stroke-width="2.96555"/>
<path d="M424.205 132.992L300.891 256.306C300.52 256.677 300.018 256.885 299.493 256.885L-30.7975 256.885C-32.5588 256.885 -33.4409 254.755 -32.1954 253.51L91.1185 130.196C91.4893 129.825 91.9921 129.617 92.5165 129.617L422.807 129.617C424.568 129.617 425.451 131.746 424.205 132.992Z" fill="white"/>
<path d="M91.0413 129.617L426.924 129.617C426.924 121.744 422.2 106 403.307 106L114.658 106C92.6158 106 89.7292 121.744 91.0413 129.617Z" fill="#0057FF"/>
<path d="M426.269 129.617L91.042 129.617" stroke="#1B1B1B" stroke-width="2.96555"/>
<path d="M1593.38 214.743C1593.38 361.612 1398 250.013 1398 414.253V469H1762V-109C1166.22 -19.51 1593.38 91.0364 1593.38 214.743Z" fill="url(#paint3_linear_1020_499)"/>
<g opacity="0.2">
<g filter="url(#filter5_f_1020_499)">
<path d="M941.909 580.349C941.909 580.349 902.331 520.459 873.062 497.169C767.713 413.343 725.175 522.599 725.175 522.599" stroke="#0085FF" stroke-width="84.2406" stroke-linecap="round"/>
</g>
<g filter="url(#filter6_f_1020_499)">
<path d="M941.909 580.349C941.909 580.349 857.318 419.112 828.049 395.822C722.699 311.995 728.981 566.591 728.981 566.591" stroke="#0000FF" stroke-width="84.2406" stroke-linecap="round"/>
</g>
<g>
<path d="M803.48 586.312C737.853 519.389 751.356 730.919 766.311 845.049L755.333 966.071L1021.45 1184.82L1309.91 820.068L1240.07 719.647C1216.75 681.479 1164.05 575.956 1139.59 555.696C1109.01 530.371 1044.6 486.518 1015.56 605.015C986.527 723.512 885.513 669.966 803.48 586.312Z" fill="url(#paint4_linear_1020_499)"/>
</g>
<path d="M803.48 586.312C737.853 519.389 751.356 730.919 766.311 845.049L755.333 966.071L1021.45 1184.82L1309.91 820.068L1240.07 719.647C1216.75 681.479 1164.05 575.956 1139.59 555.696C1109.01 530.371 1044.6 486.518 1015.56 605.015C986.527 723.512 885.513 669.966 803.48 586.312Z" stroke="url(#paint5_linear_1020_499)" stroke-width="105.301"/>
<g filter="url(#filter8_df_1020_499)">
<path d="M847.469 575.924C819.404 510.562 761.732 517.552 769.931 830.142L768.833 929.402L1034.95 1148.15L1323.41 783.399L1253.56 682.979C1230.25 644.81 1266.18 713.871 1153.09 519.027C1126.12 472.567 1052.2 473.909 1029.06 568.347C1005.92 662.785 889.593 674.03 847.469 575.924Z" fill="url(#paint6_linear_1020_499)"/>
<path d="M847.469 575.924C819.404 510.562 761.732 517.552 769.931 830.142L768.833 929.402L1034.95 1148.15L1323.41 783.399L1253.56 682.979C1230.25 644.81 1266.18 713.871 1153.09 519.027C1126.12 472.567 1052.2 473.909 1029.06 568.347C1005.92 662.785 889.593 674.03 847.469 575.924Z" stroke="url(#paint7_linear_1020_499)" stroke-width="105.301"/>
</g>
<path d="M701.384 918.505L702.471 574.657" stroke="#3D3BD8" stroke-width="105.301" stroke-linecap="round"/>
<g filter="url(#filter10_f_1020_499)">
<path d="M940.555 638.471L1006.08 499.195" stroke="#3470E2" stroke-width="84.2406"/>
</g>
</g>
<path d="M1280.76 -9.39314L1227.54 189.197L1326.84 215.804C1406.28 237.088 1442.5 181.35 1452.74 143.114C1462.99 104.879 1459.49 38.4978 1380.05 17.2129L1280.76 -9.39314Z" fill="#2A73FF"/>
<path d="M1375.93 175.718C1389.19 126.243 1329.36 91.6933 1297.78 80.603L1245.54 189.178C1307.39 205.749 1362.67 225.193 1375.93 175.718Z" fill="#272E46"/>
<ellipse cx="1254.08" cy="90.2175" rx="111.519" ry="40.5633" transform="rotate(-75 1254.08 90.2175)" fill="#0057FF"/>
<ellipse cx="1245.21" cy="88.0853" rx="91.9732" ry="27.9477" transform="rotate(-75 1245.21 88.0853)" fill="#272E46"/>
<circle cx="1338.35" cy="43.0748" r="24.3907" transform="rotate(-75 1338.35 43.0748)" fill="#0057FF"/>
<path d="M1333.91 36.098C1331.91 43.5586 1338.58 48.7492 1342.17 50.4119C1367.69 57.2507 1411.56 80.0519 1380.52 195.886C1355.69 288.554 1316.51 242.388 1299.82 208.457L1278.72 202.802C1304.51 257.059 1365.12 331.903 1400.68 199.184C1436.24 66.4651 1379.63 36.2509 1348.22 27.834C1344.28 27.4801 1335.91 28.6375 1333.91 36.098Z" fill="#C7DCFF"/>
<path d="M1144.49 142.716C1174.96 89.9412 1238.99 98.8069 1267.19 109.837C1260.29 139.042 1245.38 158.645 1238.78 164.795C1234.41 169.568 1230.68 199.112 1214.71 205.377C1192.56 214.071 1192.56 177.961 1192.56 188.66C1192.56 240.128 1159.1 241.487 1147.09 222.789C1133.71 201.95 1127.8 171.623 1144.49 142.716Z" fill="#C7DCFF"/>
<path d="M1189.87 320.917C1208.5 316.04 1206.66 293.483 1203.4 282.814C1201.71 276.345 1196.32 267.386 1190.11 269.012C1177.17 272.399 1183.23 303.443 1179.47 289.079C1166.09 237.974 1153.19 260.012 1157.43 276.185C1162.69 296.3 1171.24 325.794 1189.87 320.917Z" fill="url(#paint8_linear_1020_499)"/>
<g filter="url(#filter11_b_1020_499)">
<rect x="1494.69" y="288.349" width="290.218" height="213.985" fill="white" fill-opacity="0.25"/>
</g>
<path fill-rule="evenodd" clip-rule="evenodd" d="M1791.59 283H1776.88V297.711H1791.59V283ZM1502.71 283H1488V297.712H1495.36H1502.71V290.356V283ZM1776.88 494.311H1784.24H1791.59V509.022H1776.88V501.666V494.311ZM1502.71 494.311H1488V509.022H1502.71V494.311Z" fill="white"/>
<path d="M1776.88 283V280.994H1774.87V283H1776.88ZM1791.59 283H1793.6V280.994H1791.59V283ZM1776.88 297.711H1774.87V299.718H1776.88V297.711ZM1791.59 297.711V299.718H1793.6V297.711H1791.59ZM1488 283V280.994H1485.99V283H1488ZM1502.71 283H1504.72V280.994H1502.71V283ZM1488 297.712H1485.99V299.718H1488V297.712ZM1502.71 297.712V299.718H1504.72V297.712H1502.71ZM1776.88 494.311V492.304H1774.87V494.311H1776.88ZM1791.59 494.311H1793.6V492.304H1791.59V494.311ZM1791.59 509.022V511.028H1793.6V509.022H1791.59ZM1776.88 509.022H1774.87V511.028H1776.88V509.022ZM1488 494.311V492.305H1485.99V494.311H1488ZM1502.71 494.311H1504.72V492.305H1502.71V494.311ZM1488 509.022H1485.99V511.028H1488V509.022ZM1502.71 509.022V511.028H1504.72V509.022H1502.71ZM1776.88 285.006H1791.59V280.994H1776.88V285.006ZM1778.89 297.711V283H1774.87V297.711H1778.89ZM1791.59 295.705H1776.88V299.718H1791.59V295.705ZM1789.59 283V297.711H1793.6V283H1789.59ZM1488 285.006H1502.71V280.994H1488V285.006ZM1490.01 297.712V283H1485.99V297.712H1490.01ZM1495.36 295.705H1488V299.718H1495.36V295.705ZM1502.71 295.705H1495.36V299.718H1502.71V295.705ZM1500.71 290.356V297.712H1504.72V290.356H1500.71ZM1500.71 283V290.356H1504.72V283H1500.71ZM1784.24 492.304H1776.88V496.317H1784.24V492.304ZM1791.59 492.304H1784.24V496.317H1791.59V492.304ZM1793.6 509.022V494.311H1789.59V509.022H1793.6ZM1776.88 511.028H1791.59V507.016H1776.88V511.028ZM1774.87 501.666V509.022H1778.89V501.666H1774.87ZM1774.87 494.311V501.666H1778.89V494.311H1774.87ZM1488 496.317H1502.71V492.305H1488V496.317ZM1490.01 509.022V494.311H1485.99V509.022H1490.01ZM1502.71 507.016H1488V511.028H1502.71V507.016ZM1500.71 494.311V509.022H1504.72V494.311H1500.71ZM1502.71 292.362H1776.88V288.35H1502.71V292.362ZM1493.35 297.712V494.311H1497.36V297.712H1493.35ZM1786.24 494.311V297.711H1782.23V494.311H1786.24ZM1776.88 499.66H1502.71V503.672H1776.88V499.66Z" fill="white"/>
<circle cx="1713.35" cy="351.877" r="32.7665" fill="white"/>
<path d="M1512.74 474.918V406.71C1512.74 374.613 1534.14 333.822 1573.59 333.822C1625.75 333.822 1625.08 380.631 1661.86 409.385C1686.4 428.565 1730.79 425.577 1754.55 413.652C1758.75 411.544 1764.84 414.476 1764.84 419.177V474.918C1764.84 477.873 1762.45 480.268 1759.49 480.268H1518.09C1515.14 480.268 1512.74 477.873 1512.74 474.918Z" fill="white"/>
<path d="M537.942 -167.774L436.026 64.1719L426.132 80.4245C424.915 82.422 426.755 84.7829 428.994 83.9951C438.83 80.5348 453.755 72.9839 459.181 60.6347L545.266 -135.284C547.688 -142.775 550.001 -158.981 541.867 -168.476C540.712 -169.824 538.64 -169.362 537.942 -167.774Z" fill="#0057FF"/>
<path d="M284.045 121.597L385.83 -110.052C385.968 -110.365 386.225 -110.611 386.548 -110.737L537.944 -169.84C539.059 -170.275 540.177 -169.15 539.702 -168.069L437.917 63.5797C437.779 63.8926 437.522 64.1381 437.199 64.2642L285.803 123.367C284.688 123.802 283.57 122.677 284.045 121.597Z" fill="#C7DCFF"/>
<path d="M437.703 64.0677L540.13 -169.042" stroke="#1B1B1B" stroke-width="1.99942" stroke-linecap="round"/>
<path d="M306.007 93.5122L391.386 -101.361C391.661 -101.988 392.177 -102.48 392.823 -102.732L508.686 -147.963C510.915 -148.834 513.15 -146.586 512.204 -144.426L426.824 50.4475C426.55 51.0743 426.034 51.5663 425.387 51.8188L309.525 97.0498C307.296 97.92 305.061 95.6721 306.007 93.5122Z" fill="white"/>
<path d="M438.057 63.379L288.354 121.821C286.844 122.411 286.248 124.188 287.307 125.433C290.832 129.577 297.45 134.226 305.563 131.059L431.991 81.7031C441.995 77.7977 442.628 69.9134 441.312 64.8597C440.952 63.4763 439.394 62.8569 438.057 63.379Z" fill="#1B1B1B" stroke="#1B1B1B" stroke-width="3.99885" stroke-linecap="round"/>
<path d="M759.605 314.309C775.15 307.618 761.181 185.891 759.679 122.316C759.635 120.447 761.438 119.135 763.225 119.684L988.876 189.014C990.109 189.393 990.91 190.604 990.811 191.89C985.339 263.079 991.811 301.013 997.126 315.111C997.882 317.117 996.399 319.395 994.398 318.625C987.969 316.153 982.749 308.798 978.921 299.344V316.771C978.921 318.291 977.664 319.561 976.204 319.142C973.638 318.405 971.449 316.654 969.609 314.37C967.6 311.876 960.274 312.715 959.927 315.899L959.799 317.069C959.647 318.465 958.468 319.523 957.064 319.523H909.55H823.374H799.106C798.707 319.523 798.383 319.199 798.383 318.8C798.383 317.978 796.965 317.696 796.531 318.393C792.302 325.193 785.624 323.034 781.738 320.304C781.071 319.834 780.718 319.051 780.718 318.235V312.878C780.718 309.852 775.418 308.525 773.435 310.811C760.413 325.825 743.215 321.364 759.605 314.309Z" fill="#003FB8"/>
<path d="M735.903 334.14C751.448 327.45 753.631 205.723 752.763 142.148C752.737 140.279 754.541 138.966 756.328 139.515L785.853 148.586C786.856 148.895 787.597 149.741 787.751 150.78C789.237 160.859 792.524 188.469 795.684 231.956C799.042 278.172 794.285 319.336 791.486 334.14C787.66 345.714 779.361 343.311 774.841 340.135C774.173 339.666 773.82 338.882 773.82 338.066V332.709C773.82 329.683 768.024 328.042 765.803 330.099C748.89 345.762 719.318 341.279 735.903 334.14Z" fill="#1B1B1B"/>
<path d="M950.167 339.354H905.404C903.885 339.354 902.653 338.122 902.653 336.602V188.197C902.653 186.346 904.443 185.023 906.212 185.567L981.979 208.845C983.211 209.224 984.013 210.435 983.914 211.721C978.442 282.91 984.914 320.845 990.229 334.942C990.985 336.949 989.502 339.226 987.501 338.456C981.072 335.984 975.852 328.629 972.024 319.175V336.602C972.024 338.122 970.767 339.392 969.307 338.973C966.741 338.236 964.551 336.485 962.712 334.201C960.702 331.707 953.377 332.546 953.03 335.73L952.902 336.901C952.75 338.296 951.571 339.354 950.167 339.354Z" fill="#1B1B1B"/>
<path d="M916.829 358.705C911.112 346.316 916.052 320.022 920.27 309.498L798.27 240.578C814.222 289.726 804.946 347.17 791.804 366.897C772.196 369.87 791.391 415.994 832.531 429.638C873.671 443.283 917.85 424.838 934.428 402.846C930.501 399.953 922.545 371.094 916.829 358.705Z" fill="url(#paint9_linear_1020_499)"/>
<path d="M882.77 408.716C849.315 415.614 818.964 388.597 804.306 372.933L794.821 387.591L840.52 449.241H905.188L959.294 422.512L921.14 372.933C924.733 382.849 916.225 401.818 882.77 408.716Z" fill="url(#paint10_linear_1020_499)"/>
<path d="M907.163 411.284C842.948 435.355 815.674 389.527 799.275 348.79C774.964 361.134 739.289 376.565 695.703 418.69C672.257 441.35 659.452 472.234 656 505.718H1088.85C1087.55 477.635 1046.55 426.097 1019.8 403.877C987.252 376.849 943.557 364.838 915.362 353.882L921.404 374.713C925.892 393.23 916.369 407.426 907.163 411.284Z" fill="#C7DCFF"/>
<path d="M914.673 332.838L919.415 311.282C904.412 307.163 825.293 289.357 811.635 262.996C813.704 286.852 869.974 332.838 914.673 332.838Z" fill="#A4C3FF"/>
<path d="M1006.07 196.747C1000.9 193.155 995.293 184.101 994.431 162.114V145.3H973.306V180.456C973.306 196.233 990.551 196.747 1006.07 196.747Z" fill="#1B1B1B"/>
<path d="M986.924 155.216C986.924 164.211 983.643 191.548 983.222 200.053C985.424 238.77 974.599 273.343 959.079 288.864C942.265 310.851 933.652 322.408 911.656 322.408C850.464 322.408 788.355 253.081 782.319 194.017C782.319 114.437 815.543 35.7124 876.735 35.7124C937.927 35.7124 986.924 75.6358 986.924 155.216Z" fill="url(#paint11_linear_1020_499)"/>
<path d="M760.979 171.187C777.537 157.687 793.654 174.211 797.407 179.125V233.557C770.914 240.361 747.07 182.527 760.979 171.187Z" fill="white"/>
<path d="M902.602 170.306V164.701C863.37 155.217 848.28 175.911 856.903 170.306C863.801 165.822 890.243 168.438 902.602 170.306Z" fill="#E1EBFF"/>
<path d="M941.402 170.241V164.936C974.492 155.958 987.219 175.545 979.947 170.241C974.129 165.997 951.826 168.472 941.402 170.241Z" fill="#CDDEFF"/>
<path d="M839.136 148.729C827.754 154.248 822.322 172.01 821.029 180.201L814.131 150.454L839.136 148.729Z" fill="#A4C3FF"/>
<path d="M852.16 148.75C845.952 117.709 841.813 135.816 840.52 148.75L826.724 108.224L850.866 112.536L852.16 148.75Z" fill="#A4C3FF"/>
<path d="M963.821 148.75C957.613 117.709 953.474 135.816 952.181 148.75L938.385 108.224L962.528 112.536L963.821 148.75Z" fill="#A4C3FF"/>
<path d="M809.479 209.107C806.633 207.887 795.957 193.926 794.819 195.911L795.252 198.76C794.721 197.164 794.611 196.272 794.819 195.911L792.981 183.848L809.479 209.107Z" fill="#A4C3FF"/>
<g filter="url(#filter12_f_1020_499)">
<ellipse cx="853.148" cy="233.672" rx="29.7474" ry="19.6811" transform="rotate(11.9815 853.148 233.672)" fill="#E1EBFF"/>
</g>
<path d="M777.576 175.91C779.991 184.878 783.756 187.982 785.336 188.413C785.336 189.275 783.612 191.431 776.714 193.155C769.816 194.88 772.403 201.921 774.558 205.226C782.319 207.238 795.338 212.469 785.336 217.298C772.834 223.334 767.66 191.431 762.487 184.533C757.314 177.635 774.558 164.701 777.576 175.91Z" fill="#A4C3FF"/>
<g filter="url(#filter13_f_1020_499)">
<path d="M979.953 240.846C976.681 252.474 971.577 256.743 965.094 254.919C958.612 253.095 956.009 242.191 959.281 230.563C962.553 218.935 970.46 210.988 976.942 212.812C983.425 214.636 983.224 229.218 979.953 240.846Z" fill="#CDDEFF"/>
</g>
<ellipse cx="882.378" cy="196.582" rx="7.63208" ry="8.64969" transform="rotate(-4.09783 882.378 196.582)" fill="#2B62CD"/>
<path d="M890.962 185.393C896.037 187.886 902.103 198.379 902.817 203.599C899.662 197.533 885.96 187.357 876.303 189.273C874.579 182.375 882.957 181.886 890.962 185.393Z" fill="#E1EBFF"/>
<path d="M902.818 203.599C902.104 198.379 896.9 188.749 891.824 186.256" stroke="#A4C3FF" stroke-width="1.83443" stroke-linecap="round"/>
<path d="M863.358 199.176C858.727 200.712 849.99 201.498 852.093 192.355C854.723 180.926 875.279 185.074 863.358 199.176Z" fill="#EEF4FF"/>
<path d="M864.663 198.758C870.646 203.94 895.134 200.821 901.24 204.465C887.723 210.42 860.155 215.478 864.663 198.758Z" fill="#E1EBFF"/>
<circle cx="882.041" cy="196.509" r="2.54403" transform="rotate(-4.09783 882.041 196.509)" fill="#1B1B1B"/>
<path d="M864.232 197.465C867.233 194.083 869.865 192.166 875.52 190.494C882.315 188.484 892.584 189.091 899.075 198.871L901.739 203.5" stroke="#30313A" stroke-width="2.16498" stroke-linecap="round"/>
<rect x="881.616" y="193.066" width="4.07044" height="2.03522" transform="rotate(-4.09783 881.616 193.066)" fill="white"/>
<rect x="879.587" y="193.212" width="1.01761" height="2.03522" transform="rotate(-4.09783 879.587 193.212)" fill="white"/>
<ellipse cx="6.77409" cy="7.74749" rx="6.77409" ry="7.74749" transform="matrix(-0.997443 -0.0714597 -0.0714597 0.997443 963.784 188.519)" fill="#2B62CD"/>
<path d="M951.27 184.197C947.25 186.766 945.493 196.552 944.852 201.777C947.421 195.67 955.94 184.838 963.485 186.603C962.728 184.168 957.604 180.57 951.27 184.197Z" fill="#CDDEFF"/>
<path d="M946.577 191.909C947.583 188.747 950.888 181.734 959.511 182.424C968.133 183.114 971.438 186.448 971.582 187.598" stroke="#A4C3FF" stroke-width="0.917215"/>
<path d="M974.397 196.58L974.36 196.564C963.633 178.962 985.077 172.554 984.084 187.119C983.181 200.362 978.651 198.411 974.397 196.58Z" fill="#CDDEFF"/>
<path d="M973.962 196.536C969.189 201.805 951.011 198.972 946.165 202.706C956.676 208.446 977.24 213.168 973.962 196.536Z" fill="#CDDEFF"/>
<ellipse cx="1.99288" cy="2.54403" rx="1.99288" ry="2.54403" transform="matrix(-0.997443 -0.0714597 -0.0714597 0.997443 956.951 193.009)" fill="#1B1B1B"/>
<path d="M974.168 195.311C971.865 191.98 970.966 189.937 966.556 188.354C961.257 186.452 953.192 187.216 947.949 197.086L945.714 201.778" stroke="#30313A" stroke-width="2.16498" stroke-linecap="round"/>
<rect width="3.18861" height="2.03522" transform="matrix(-0.997443 -0.0714597 -0.0714597 0.997443 960.308 191.028)" fill="white"/>
<rect width="0.797152" height="2.03522" transform="matrix(-0.997443 -0.0714597 -0.0714597 0.997443 961.898 191.143)" fill="white"/>
<circle cx="931.487" cy="252.65" r="1.29336" fill="#96AFE1"/>
<circle cx="918.122" cy="215.142" r="0.862243" fill="#96AFE1"/>
<circle cx="982.79" cy="216.867" r="0.862243" fill="#96AFE1"/>
<path d="M920.066 278.879C903.133 279.738 893.146 272.443 888.805 264.29C902.554 268.438 934.393 276.305 950.024 264.29C944.814 272.014 945.819 277.574 920.066 278.879Z" fill="#CDDEFF"/>
<path d="M919.635 265.215C908.518 266.238 894.45 265.641 888.805 265.215C899.805 269.906 927.277 276.302 949.162 264.362C943.951 264.22 930.751 264.192 919.635 265.215Z" fill="#CDDEFF"/>
<path d="M889.666 264.29C893.503 266.877 904.711 271.619 921.138 271.619C937.565 271.619 947.43 266.877 950.023 264.29" stroke="#2E65D0" stroke-width="1.83443" stroke-linecap="round"/>
<path d="M923.87 282.06L915.95 282.576C914.406 282.677 913.673 284.527 914.728 285.659L917.139 288.241C917.716 288.86 918.642 289.003 919.379 288.588L924.889 285.489C926.59 284.532 925.818 281.933 923.87 282.06Z" fill="#E2ECFF"/>
<path d="M891.466 265.619C888.304 265.907 884.917 264.86 886.723 262.601C888.448 260.446 890.029 262.458 891.466 265.619Z" fill="#2E65D0"/>
<path d="M948.341 265.408C949.673 262.526 951.938 261.272 952.612 262.996C953.285 264.721 951.797 265.744 948.341 265.408Z" fill="#2E65D0"/>
<path d="M921.57 239.285C927.319 240.291 938.643 239.888 937.953 230.231C937.263 220.574 929.905 205.801 926.313 200.484" stroke="url(#paint12_linear_1020_499)" stroke-width="2.75165" stroke-linecap="round"/>
<circle cx="787.923" cy="222.903" r="3.44897" fill="#003FB8"/>
<path d="M818.964 386.297C812.411 378.709 803.3 358.418 799.564 349.221C769.213 361.292 733.458 386.728 719.375 397.937C768.35 358.964 806.174 373.938 818.964 386.297Z" fill="#A3C3FF"/>
<path d="M922.432 387.159C922.432 378.106 916.828 361.292 915.534 353.963C934.504 360.516 973.736 374.226 993.136 385.866C943.126 363.869 925.019 377.243 922.432 387.159Z" fill="#A3C3FF"/>
<path d="M936.66 235.405C940.799 228.852 931.486 211.406 926.313 203.502L920.277 237.992C924.014 239.86 932.521 241.958 936.66 235.405Z" fill="white"/>
<path d="M989.597 82.3369C999.841 97.4384 1003.62 116.916 1004.73 156.338C1004.76 157.369 1003.93 158.234 1002.9 158.234L963.379 158.234C962.414 158.234 961.615 157.495 961.558 156.533C960.978 146.834 960.346 129.197 954.371 118.525C953.522 117.01 951.594 117.769 951.73 119.501L954.613 156.256C954.696 157.323 953.853 158.234 952.784 158.234H902.931C902.444 158.234 901.978 158.041 901.634 157.697L895.387 151.45C894.231 150.294 892.255 151.113 892.255 152.747V156.4C892.255 157.413 891.434 158.234 890.421 158.234L854.348 158.234C853.334 158.234 852.514 157.422 852.502 156.409C852.358 144.507 850.812 123.849 845.691 116.452C844.89 115.294 843.46 116.012 843.46 117.421V156.759C843.46 157.62 842.86 158.366 842.018 158.551L827.104 161.825C826.319 161.997 825.737 162.669 825.665 163.469C823.456 188.032 819.051 201.91 828.088 215.872C828.87 217.081 828.142 218.695 826.706 218.578C817.398 217.82 801.482 210.698 795.196 186.289L799.145 203.602C799.47 205.028 798.075 206.232 796.795 205.524C790.327 201.949 787.424 195.078 784.435 172.827C784.402 172.578 784.317 172.331 784.176 172.123C783.574 171.233 781.682 168.694 778.87 167.288C776.31 166.008 773.697 165.563 770.679 165.995C767.661 166.426 760.849 169.682 759.47 172.441C757.745 175.89 730.062 96.5639 799.904 46.5538C862.256 1.90666 947.778 20.6866 989.597 82.3369Z" fill="#1B1B1B" stroke="#1B1B1B" stroke-width="0.917215"/>
<path d="M1615.87 127.753C1575.77 114.999 1560.92 165.488 1562.06 208.153C1562.08 208.99 1562.78 209.65 1563.62 209.653C1612.47 209.815 1649.41 201.75 1649.81 154.469C1649.81 153.992 1650.03 153.525 1650.4 153.228L1672.41 135.761C1673.14 135.183 1673.21 134.101 1672.55 133.439L1643.9 104.465C1643.3 103.859 1642.33 103.843 1641.71 104.429L1617.48 127.406C1617.06 127.805 1616.43 127.929 1615.87 127.753Z" fill="#F8F8F8"/>
<path d="M1616.79 164.189C1616.79 160.304 1613.43 157.155 1609.28 157.155C1605.14 157.155 1601.78 160.304 1601.78 164.189C1601.78 168.073 1605.14 171.222 1609.28 171.222C1613.43 171.222 1616.79 168.073 1616.79 164.189Z" fill="#F8F8F8"/>
<path d="M1615.87 127.753C1575.77 114.999 1560.92 165.488 1562.06 208.153C1562.08 208.99 1562.78 209.65 1563.62 209.653C1612.47 209.815 1649.41 201.75 1649.81 154.469M1615.87 127.753C1616.43 127.929 1617.06 127.805 1617.48 127.406L1641.71 104.429C1642.33 103.843 1643.3 103.859 1643.9 104.465L1672.55 133.439C1673.21 134.101 1673.14 135.182 1672.41 135.761L1650.4 153.228C1650.03 153.525 1649.81 153.992 1649.81 154.469M1615.87 127.753C1575.3 114.85 1560.57 166.677 1562.11 209.645M1649.81 154.469C1649.41 202.235 1611.71 209.977 1562.11 209.645M1562.11 209.645L1603.71 169.8M1616.79 164.189C1616.79 160.304 1613.43 157.155 1609.28 157.155C1605.14 157.155 1601.78 160.304 1601.78 164.189C1601.78 168.073 1605.14 171.222 1609.28 171.222C1613.43 171.222 1616.79 168.073 1616.79 164.189Z" stroke="#1B1B1B" stroke-width="5.34963"/>
<path d="M1061.13 62.4115C1061.48 61.2042 1064.64 61.2042 1065 62.4115C1066.07 66.0422 1067.66 69.8668 1069.96 72.1653C1072.26 74.4638 1076.08 76.0563 1079.71 77.1268C1080.92 77.4828 1080.92 80.6411 1079.71 80.9971C1076.08 82.0676 1072.26 83.66 1069.96 85.9585C1067.66 88.257 1066.07 92.0817 1065 95.7124C1064.64 96.9197 1061.48 96.9197 1061.13 95.7124C1060.06 92.0817 1058.46 88.257 1056.16 85.9585C1053.87 83.66 1050.04 82.0676 1046.41 80.9971C1045.2 80.6411 1045.2 77.4828 1046.41 77.1268C1050.04 76.0563 1053.87 74.4638 1056.16 72.1653C1058.46 69.8668 1060.06 66.0422 1061.13 62.4115Z" fill="#D1E0FF" fill-opacity="0.5"/>
<path d="M1496.13 197.411C1496.48 196.204 1499.64 196.204 1500 197.411C1501.07 201.042 1502.66 204.867 1504.96 207.165C1507.26 209.464 1511.08 211.056 1514.71 212.127C1515.92 212.483 1515.92 215.641 1514.71 215.997C1511.08 217.068 1507.26 218.66 1504.96 220.959C1502.66 223.257 1501.07 227.082 1500 230.712C1499.64 231.92 1496.48 231.92 1496.13 230.712C1495.06 227.082 1493.46 223.257 1491.17 220.959C1488.87 218.66 1485.04 217.068 1481.41 215.997C1480.2 215.641 1480.2 212.483 1481.41 212.127C1485.04 211.056 1488.87 209.464 1491.17 207.165C1493.46 204.867 1495.06 201.042 1496.13 197.411Z" fill="#D1E0FF" fill-opacity="0.5"/>
<path d="M458.126 281.411C458.482 280.204 461.641 280.204 461.997 281.411C463.067 285.042 464.66 288.867 466.958 291.165C469.257 293.464 473.081 295.056 476.712 296.127C477.919 296.483 477.919 299.641 476.712 299.997C473.081 301.068 469.257 302.66 466.958 304.959C464.66 307.257 463.067 311.082 461.997 314.712C461.641 315.92 458.482 315.92 458.126 314.712C457.056 311.082 455.463 307.257 453.165 304.959C450.866 302.66 447.042 301.068 443.411 299.997C442.204 299.641 442.204 296.483 443.411 296.127C447.042 295.056 450.866 293.464 453.165 291.165C455.463 288.867 457.056 285.042 458.126 281.411Z" fill="#D1E0FF" fill-opacity="0.5"/>
<path d="M570.126 63.4115C570.482 62.2042 573.641 62.2042 573.997 63.4115C575.067 67.0422 576.66 70.8668 578.958 73.1653C581.257 75.4638 585.081 77.0563 588.712 78.1268C589.919 78.4828 589.919 81.6411 588.712 81.9971C585.081 83.0676 581.257 84.66 578.958 86.9585C576.66 89.257 575.067 93.0817 573.997 96.7124C573.641 97.9197 570.482 97.9197 570.126 96.7124C569.056 93.0817 567.463 89.257 565.165 86.9585C562.866 84.66 559.042 83.0676 555.411 81.9971C554.204 81.6411 554.204 78.4828 555.411 78.1268C559.042 77.0563 562.866 75.4638 565.165 73.1653C567.463 70.8668 569.056 67.0422 570.126 63.4115Z" fill="#D1E0FF" fill-opacity="0.5"/>
<path d="M558.408 347.36L564.384 341.384L570.36 335.408L545.26 310.308L569.165 296.762L484.702 261.702L519.762 346.165L533.308 322.26L558.408 347.36Z" fill="white"/>
</g>
<defs>
<filter id="filter0_f_1020_499" x="909.655" y="-264.305" width="476.108" height="336.704" filterUnits="userSpaceOnUse" color-interpolation-filters="sRGB">
<feFlood flood-opacity="0" result="BackgroundImageFix"/>
<feBlend mode="normal" in="SourceGraphic" in2="BackgroundImageFix" result="shape"/>
<feGaussianBlur stdDeviation="42.1203" result="effect1_foregroundBlur_1020_499"/>
</filter>
<filter id="filter1_f_1020_499" x="909.657" y="-304.324" width="490.333" height="452.255" filterUnits="userSpaceOnUse" color-interpolation-filters="sRGB">
<feFlood flood-opacity="0" result="BackgroundImageFix"/>
<feBlend mode="normal" in="SourceGraphic" in2="BackgroundImageFix" result="shape"/>
<feGaussianBlur stdDeviation="42.1203" result="effect1_foregroundBlur_1020_499"/>
</filter>
<filter id="filter2_f_1020_499" x="519.499" y="-751.868" width="759.179" height="813.978" filterUnits="userSpaceOnUse" color-interpolation-filters="sRGB">
<feFlood flood-opacity="0" result="BackgroundImageFix"/>
<feBlend mode="normal" in="SourceGraphic" in2="BackgroundImageFix" result="shape"/>
<feGaussianBlur stdDeviation="13.1626" result="effect1_foregroundBlur_1020_499"/>
</filter>
<filter id="filter3_f_1020_499" x="473.471" y="-423.81" width="527.198" height="460.642" filterUnits="userSpaceOnUse" color-interpolation-filters="sRGB">
<feFlood flood-opacity="0" result="BackgroundImageFix"/>
<feBlend mode="normal" in="SourceGraphic" in2="BackgroundImageFix" result="shape"/>
<feGaussianBlur stdDeviation="42.1203" result="effect1_foregroundBlur_1020_499"/>
</filter>
<filter id="filter4_f_1020_499" x="877.436" y="-260.769" width="266.082" height="329.284" filterUnits="userSpaceOnUse" color-interpolation-filters="sRGB">
<feFlood flood-opacity="0" result="BackgroundImageFix"/>
<feBlend mode="normal" in="SourceGraphic" in2="BackgroundImageFix" result="shape"/>
<feGaussianBlur stdDeviation="42.1203" result="effect1_foregroundBlur_1020_499"/>
</filter>
<filter id="filter5_f_1020_499" x="598.803" y="339.166" width="469.471" height="367.548" filterUnits="userSpaceOnUse" color-interpolation-filters="sRGB">
<feFlood flood-opacity="0" result="BackgroundImageFix"/>
<feBlend mode="normal" in="SourceGraphic" in2="BackgroundImageFix" result="shape"/>
<feGaussianBlur stdDeviation="42.1203" result="effect1_foregroundBlur_1020_499"/>
</filter>
<filter id="filter6_f_1020_499" x="602.549" y="252.522" width="465.729" height="454.196" filterUnits="userSpaceOnUse" color-interpolation-filters="sRGB">
<feFlood flood-opacity="0" result="BackgroundImageFix"/>
<feBlend mode="normal" in="SourceGraphic" in2="BackgroundImageFix" result="shape"/>
<feGaussianBlur stdDeviation="42.1203" result="effect1_foregroundBlur_1020_499"/>
</filter>
<filter id="filter8_df_1020_499" x="621.136" y="341.652" width="883.64" height="997.077" filterUnits="userSpaceOnUse" color-interpolation-filters="sRGB">
<feFlood flood-opacity="0" result="BackgroundImageFix"/>
<feColorMatrix in="SourceAlpha" type="matrix" values="0 0 0 0 0 0 0 0 0 0 0 0 0 0 0 0 0 0 127 0" result="hardAlpha"/>
<feOffset dx="10.5301" dy="10.5301"/>
<feGaussianBlur stdDeviation="52.6504"/>
<feComposite in2="hardAlpha" operator="out"/>
<feColorMatrix type="matrix" values="0 0 0 0 0.16857 0 0 0 0 0.276186 0 0 0 0 0.954167 0 0 0 1 0"/>
<feBlend mode="normal" in2="BackgroundImageFix" result="effect1_dropShadow_1020_499"/>
<feBlend mode="normal" in="SourceGraphic" in2="effect1_dropShadow_1020_499" result="shape"/>
<feGaussianBlur stdDeviation="13.1626" result="effect2_foregroundBlur_1020_499"/>
</filter>
<filter id="filter10_f_1020_499" x="818.201" y="397.024" width="310.231" height="343.618" filterUnits="userSpaceOnUse" color-interpolation-filters="sRGB">
<feFlood flood-opacity="0" result="BackgroundImageFix"/>
<feBlend mode="normal" in="SourceGraphic" in2="BackgroundImageFix" result="shape"/>
<feGaussianBlur stdDeviation="42.1203" result="effect1_foregroundBlur_1020_499"/>
</filter>
<filter id="filter11_b_1020_499" x="1489.34" y="283" width="300.916" height="224.685" filterUnits="userSpaceOnUse" color-interpolation-filters="sRGB">
<feFlood flood-opacity="0" result="BackgroundImageFix"/>
<feGaussianBlur in="BackgroundImageFix" stdDeviation="2.67482"/>
<feComposite in2="SourceAlpha" operator="in" result="effect1_backgroundBlur_1020_499"/>
<feBlend mode="normal" in="SourceGraphic" in2="effect1_backgroundBlur_1020_499" result="shape"/>
</filter>
<filter id="filter12_f_1020_499" x="800.829" y="190.518" width="104.638" height="86.3086" filterUnits="userSpaceOnUse" color-interpolation-filters="sRGB">
<feFlood flood-opacity="0" result="BackgroundImageFix"/>
<feBlend mode="normal" in="SourceGraphic" in2="BackgroundImageFix" result="shape"/>
<feGaussianBlur stdDeviation="11.4652" result="effect1_foregroundBlur_1020_499"/>
</filter>
<filter id="filter13_f_1020_499" x="934.938" y="189.621" width="70.1752" height="88.6338" filterUnits="userSpaceOnUse" color-interpolation-filters="sRGB">
<feFlood flood-opacity="0" result="BackgroundImageFix"/>
<feBlend mode="normal" in="SourceGraphic" in2="BackgroundImageFix" result="shape"/>
<feGaussianBlur stdDeviation="11.4652" result="effect1_foregroundBlur_1020_499"/>
</filter>
<linearGradient id="paint0_linear_1020_499" x1="1213.77" y1="-239.048" x2="586.689" y2="-133.878" gradientUnits="userSpaceOnUse">
<stop stop-color="#0057FF"/>
<stop offset="1" stop-color="#2C72FF"/>
</linearGradient>
<linearGradient id="paint1_linear_1020_499" x1="1227.81" y1="-294.694" x2="628.905" y2="-109.654" gradientUnits="userSpaceOnUse">
<stop stop-color="#0057FF"/>
<stop offset="0.519922" stop-color="#0057FF"/>
<stop offset="1" stop-color="#528AF8"/>
</linearGradient>
<linearGradient id="paint2_linear_1020_499" x1="-184" y1="173.915" x2="394.101" y2="173.915" gradientUnits="userSpaceOnUse">
<stop stop-color="#4182FF"/>
<stop offset="1" stop-color="#4182FF" stop-opacity="0"/>
</linearGradient>
<linearGradient id="paint3_linear_1020_499" x1="1549.6" y1="-109" x2="1549.6" y2="469" gradientUnits="userSpaceOnUse">
<stop stop-color="#4182FF"/>
<stop offset="1" stop-color="#4182FF" stop-opacity="0"/>
</linearGradient>
<linearGradient id="paint4_linear_1020_499" x1="733.297" y1="633.225" x2="1358.35" y2="749.86" gradientUnits="userSpaceOnUse">
<stop stop-color="#0057FF"/>
<stop offset="1" stop-color="#2C72FF"/>
</linearGradient>
<linearGradient id="paint5_linear_1020_499" x1="701" y1="680.663" x2="1327.02" y2="712.609" gradientUnits="userSpaceOnUse">
<stop stop-color="#0057FF"/>
<stop offset="0.519922" stop-color="#0057FF"/>
<stop offset="1" stop-color="#528AF8"/>
</linearGradient>
<linearGradient id="paint6_linear_1020_499" x1="746.797" y1="596.556" x2="1371.85" y2="713.191" gradientUnits="userSpaceOnUse">
<stop stop-color="#2A72FF"/>
<stop offset="1" stop-color="#0057FF"/>
</linearGradient>
<linearGradient id="paint7_linear_1020_499" x1="714.5" y1="643.994" x2="1340.52" y2="675.94" gradientUnits="userSpaceOnUse">
<stop stop-color="#3470E2"/>
<stop offset="0.519922" stop-color="#0057FF"/>
<stop offset="1" stop-color="#003FB8"/>
</linearGradient>
<linearGradient id="paint8_linear_1020_499" x1="1191.17" y1="320.578" x2="1151.62" y2="190.61" gradientUnits="userSpaceOnUse">
<stop stop-color="#C7DCFF"/>
<stop offset="1" stop-color="#C7DCFF" stop-opacity="0"/>
</linearGradient>
<linearGradient id="paint9_linear_1020_499" x1="831.467" y1="345.341" x2="1193.18" y2="228.938" gradientUnits="userSpaceOnUse">
<stop stop-color="white"/>
<stop offset="1" stop-color="#0057FF"/>
</linearGradient>
<linearGradient id="paint10_linear_1020_499" x1="876.734" y1="426.392" x2="874.148" y2="331.545" gradientUnits="userSpaceOnUse">
<stop stop-color="#A4C3FF"/>
<stop offset="0.313797" stop-color="#A4C3FF" stop-opacity="0"/>
</linearGradient>
<linearGradient id="paint11_linear_1020_499" x1="906.051" y1="186.688" x2="1080.22" y2="150.043" gradientUnits="userSpaceOnUse">
<stop stop-color="white"/>
<stop offset="1" stop-color="#A4C3FF"/>
</linearGradient>
<linearGradient id="paint12_linear_1020_499" x1="934.073" y1="218.16" x2="926.313" y2="204.795" gradientUnits="userSpaceOnUse">
<stop stop-color="#A4C3FF"/>
<stop offset="1" stop-color="#A4C3FF" stop-opacity="0"/>
</linearGradient>
<clipPath id="clip0_1020_499">
<rect width="1760" height="428" rx="16" fill="white"/>
</clipPath>
</defs>
</svg>
