<svg width="1838" height="375" viewBox="0 0 1838 375" fill="none" xmlns="http://www.w3.org/2000/svg">
<g clip-path="url(#clip0_1327_1995)">
<rect width="1838" height="375" fill="#8EB4FF"/>
<path d="M1454.33 65.7218C1390.29 67.0329 1262.2 32.8262 1262.2 -114.489" stroke="black" stroke-width="8"/>
<path d="M1300.59 65.248H1592.72" stroke="#0057FF" stroke-width="8"/>
<rect width="21.6865" height="21.6865" transform="matrix(0.729305 -0.684189 0.729305 0.684189 1276.87 65.4604)" fill="white" stroke="#0057FF" stroke-width="8"/>
<rect x="4.37583" y="-1.78814e-07" width="15.6865" height="15.6865" transform="matrix(0.729305 -0.684189 0.729305 0.684189 1590.45 68.4543)" fill="white" stroke="#0057FF" stroke-width="6"/>
<ellipse cx="1455.8" cy="65.7574" rx="13.1999" ry="12.3834" fill="white" stroke="#0057FF" stroke-width="8"/>
<path d="M1742.79 159.697C1742.79 291.574 1556 191.366 1556 338.841V388H1904V-131C1334.41 -50.6448 1742.79 48.6175 1742.79 159.697Z" fill="url(#paint0_linear_1327_1995)"/>
<path d="M106.956 349.582C243.929 365.786 521.228 350.142 534.638 157.924C551.401 -82.347 253.442 -67.1563 343.916 144.063C434.39 355.281 765.189 193.021 825.032 -79.1779" stroke="#A4C3FF" stroke-width="20" stroke-linecap="round"/>
<path d="M998.288 115.038C944.714 85.2749 874.628 74.9995 846.282 73.5822C857.266 42.0472 897.092 -17.6211 968.524 -4.01499C1039.96 9.59109 1087.58 56.2202 1102.46 77.834C1104.81 104.699 1107.29 166.128 1092.34 206.499C1091.84 208.738 1090.97 210.898 1089.7 212.973C1090.64 210.885 1091.51 208.724 1092.34 206.499C1097.71 182.359 1059.57 149.085 998.288 115.038Z" fill="#0057FF"/>
<path d="M865.599 39.7994C857.078 48.1309 849.267 64.0996 846.427 71.0425C857.504 71.0425 872.344 72.936 878.38 73.8827C846.001 68.5809 856.368 48.9514 865.599 39.7994Z" fill="#1B1B1B" stroke="#1B1B1B" stroke-width="7.80882" stroke-linejoin="round"/>
<path d="M977.029 72.6606L991.911 23.7638C1004.67 22.063 1046.12 49.2752 1065.26 63.0938C1072.06 91.1563 1058.17 131.479 1050.37 148.132L987.659 110.928C995.312 86.2667 983.761 75.1409 977.029 72.6606Z" fill="#2771FF"/>
<path d="M1102.62 87.058L1103.52 102.424C1101.49 99.1199 1098.13 94.6373 1093.4 89.3566C1100.31 93.121 1102.36 90.2552 1102.62 87.058L1102.46 84.3532C1102.61 85.1809 1102.69 86.1333 1102.62 87.058Z" fill="#1B1B1B"/>
<path d="M899.431 80.1013C910.06 51.0466 945.989 -0.259595 1004.67 26.9526C1049.31 47.6587 1078.33 72.5499 1093.4 89.3566M1093.4 89.3566C1098.13 94.6373 1101.49 99.1199 1103.52 102.424L1102.46 84.3532C1103.15 88.0431 1102.3 94.2096 1093.4 89.3566Z" stroke="#1B1B1B" stroke-width="7.80882" stroke-linecap="round" stroke-linejoin="round"/>
<ellipse cx="943.047" cy="151.304" rx="56.0621" ry="159.561" transform="rotate(-68.9216 943.047 151.304)" fill="#004AD9"/>
<path d="M988.718 109.864C973.411 102.211 950.451 94.628 940.884 91.7934C946.199 81.8723 961.08 64.1561 978.088 72.6599C995.095 81.1637 992.261 101.006 988.718 109.864Z" fill="#0050EB"/>
<path d="M139.743 396.846C286.612 396.846 175.013 859 339.253 859L394 859L394 -2.00003L-184 -2C-94.51 1407.25 16.0364 396.846 139.743 396.846Z" fill="url(#paint1_linear_1327_1995)"/>
<path d="M1399.5 266.804L1449.5 165L1501.25 266.804L1611.07 231.926L1576.94 340.432L1678 393.5L1579.07 443.937L1611.07 555.074L1503.88 521.749L1449.5 622L1398.62 522.475L1287.93 555.074L1322.72 446.568L1221 393.5L1323.82 340.432L1287.93 231.926L1399.5 266.804Z" fill="#6EA0FF"/>
<path d="M1594.69 -28.0146L1534.68 195.961L1646.66 225.968C1736.25 249.974 1777.1 187.11 1788.66 143.987C1800.21 100.865 1796.27 25.9981 1706.68 1.99247L1594.69 -28.0146Z" fill="#2A73FF"/>
<path d="M1702.03 180.758C1716.98 124.959 1649.5 85.9932 1613.89 73.4852L1554.98 195.94C1624.73 214.629 1687.08 236.558 1702.03 180.758Z" fill="#1B1B1B"/>
<ellipse cx="1564.61" cy="84.3287" rx="125.774" ry="45.7483" transform="rotate(-75 1564.61 84.3287)" fill="#0057FF"/>
<ellipse cx="1554.6" cy="81.9241" rx="103.73" ry="31.5201" transform="rotate(-75 1554.6 81.9241)" fill="#1B1B1B"/>
<circle cx="1659.64" cy="31.16" r="27.5085" transform="rotate(-75 1659.64 31.16)" fill="#0057FF"/>
<path d="M1654.63 23.2915C1652.38 31.7057 1659.91 37.5598 1663.95 39.4351C1692.74 47.1481 1742.21 72.8638 1707.21 203.505C1679.2 308.018 1635.01 255.95 1616.19 217.683L1592.39 211.305C1621.48 272.497 1689.83 356.908 1729.94 207.224C1770.05 57.5403 1706.2 23.4639 1670.78 13.971C1666.33 13.572 1656.89 14.8773 1654.63 23.2915Z" fill="#C7DCFF"/>
<path d="M1441 143.538C1475.37 84.0173 1547.58 94.0163 1579.39 106.456C1571.61 139.395 1554.79 161.503 1547.35 168.44C1542.41 173.823 1538.21 207.143 1520.2 214.209C1495.22 224.014 1495.22 183.288 1495.22 195.355C1495.22 253.402 1457.48 254.935 1443.94 233.847C1428.85 210.344 1422.18 176.141 1441 143.538Z" fill="#C7DCFF"/>
<path d="M1492.19 344.518C1513.2 339.018 1511.12 313.577 1507.45 301.545C1505.54 294.248 1499.46 284.145 1492.46 285.978C1477.87 289.798 1484.69 324.81 1480.45 308.611C1465.37 250.972 1450.82 275.828 1455.6 294.068C1461.53 316.754 1471.18 350.018 1492.19 344.518Z" fill="url(#paint2_linear_1327_1995)"/>
<path d="M113.813 390.219L113.107 390.219L112.607 389.72L-25.9668 251.747L-29.3792 251.747C-30.323 254.4 -31.2404 258.271 -31.2874 262.277C-31.3414 266.867 -30.2558 271.375 -27.0791 274.553C-27.0787 274.553 -27.0783 274.554 -27.0779 274.554L121.484 422.362L149.532 422.362L209.721 422.362L177.577 390.219L113.813 390.219Z" fill="#1B1B1B" stroke="#1B1B1B" stroke-width="3.42058"/>
<path d="M504.415 396.832L357.62 250.036L-29.7996 250.036L116.996 396.832L504.415 396.832Z" fill="#2A73FF"/>
<path d="M309.949 250.036L456.744 396.832" stroke="#1B1B1B" stroke-width="2.28038"/>
<path d="M253.953 250.036L400.748 396.832" stroke="#1B1B1B" stroke-width="2.28038"/>
<path d="M197.96 250.036L344.756 396.832" stroke="#1B1B1B" stroke-width="2.28038"/>
<path d="M141.966 250.036L288.762 396.832" stroke="#1B1B1B" stroke-width="2.28038"/>
<path d="M85.9711 250.036L232.767 396.832" stroke="#1B1B1B" stroke-width="2.28038"/>
<path d="M29.9769 250.036L176.772 396.832" stroke="#1B1B1B" stroke-width="2.28038"/>
<path d="M116.237 397.588L-29.8015 251.55" stroke="#1B1B1B" stroke-width="3.42058"/>
<path d="M114.571 109.854L113.865 109.854L113.365 110.352L-25.209 248.326L-28.6214 248.326C-29.5651 245.672 -30.4825 241.802 -30.5296 237.796C-30.5836 233.206 -29.498 228.697 -26.3213 225.52C-26.3209 225.519 -26.3205 225.519 -26.3201 225.519L122.242 77.7106L150.29 77.7106L210.478 77.7106L178.335 109.854L114.571 109.854Z" fill="#1B1B1B" stroke="#1B1B1B" stroke-width="3.42058"/>
<path d="M505.173 103.241L358.377 250.036L-29.0418 250.036L117.754 103.241L505.173 103.241Z" fill="white"/>
<path d="M116.998 103.241L504.417 103.241C504.417 94.1605 498.969 76.0002 477.177 76.0002L144.238 76.0002C118.814 76.0002 115.484 94.1604 116.998 103.241Z" fill="#0057FF"/>
<path d="M503.659 103.241L116.997 103.241" stroke="#1B1B1B" stroke-width="3.42058"/>
<path d="M673.704 -151.861L574.871 127.639L561.319 152.555C570.828 151.982 596.081 146.606 602.558 128.288L684.919 -104.628C687.207 -114.573 688.167 -137.943 673.704 -151.861Z" fill="#0057FF"/>
<path d="M395.744 170.946L494.577 -108.554L675.726 -151.618L576.893 127.881L395.744 170.946Z" fill="#C7DCFF"/>
<path d="M576.892 127.881L674.888 -149.249" stroke="#1B1B1B" stroke-width="2.32255" stroke-linecap="round"/>
<path d="M417.985 143.24L502.498 -96.6965L646.268 -130.875L561.754 109.061L417.985 143.24Z" fill="white"/>
<path d="M580.047 126.408L398.897 169.473C402.524 175.601 412.654 187.174 424.155 184.44L571.95 149.305C585.752 146.024 583.099 132.673 580.047 126.408Z" fill="#1B1B1B" stroke="#1B1B1B" stroke-width="4.64509" stroke-linecap="round"/>
<path d="M902.5 326C902 327 900.3 329.1 897.5 329.5" stroke="#A4C3FF" stroke-width="3.311" stroke-linecap="round"/>
<path d="M1077 324C1077.5 325 1079.2 327.1 1082 327.5" stroke="#A4C3FF" stroke-width="3.311" stroke-linecap="round"/>
<path d="M901.01 320.536C899.949 320.889 897.262 321.172 895 319.475" stroke="#A4C3FF" stroke-width="3.311" stroke-linecap="round"/>
<path d="M674.329 399.722L552.551 276.762L631.765 295.679L693.246 411.545C677.166 413.437 673.934 404.451 674.329 399.722Z" fill="#1B1B1B" stroke="#1B1B1B" stroke-width="7.09385" stroke-linejoin="round"/>
<path d="M593.934 220.01L693.248 411.545V220.01H593.934Z" fill="white" stroke="white" stroke-width="7.09385" stroke-linejoin="round"/>
<path d="M695.611 194V411.545L874.14 238.928V214.099L695.611 194Z" fill="white" stroke="white" stroke-width="2.36462"/>
<path d="M812.66 274.397L697.976 410.362H718.075L833.941 283.855L960.448 215.281L966.36 202.276L956.901 205.823L960.448 195.182L812.66 274.397Z" fill="#1B1B1B" stroke="#1B1B1B" stroke-width="2.36462"/>
<path d="M975.819 231.834L857.589 298.044L718.076 431.644L723.988 441.103L857.589 358.341L975.819 231.834Z" fill="#0057FF" stroke="#0057FF" stroke-width="2.36462"/>
<path d="M663.692 220.01H692.068V243.049C692.096 243.678 692.095 244.278 692.068 244.839V243.049C691.682 234.394 685.735 220.01 663.692 220.01Z" fill="#1B1B1B"/>
<path d="M692.068 244.839V220.01H663.692C687.339 220.01 692.462 236.563 692.068 244.839ZM692.068 244.839V388.178" stroke="#1B1B1B" stroke-width="7.09385" stroke-linecap="round" stroke-linejoin="round"/>
<path d="M672.735 431.231L537.672 296.168C536.749 295.245 536.749 293.747 537.672 292.824L548.516 281.98C549.439 281.057 550.936 281.057 551.86 281.98L670.029 400.149C670.508 400.629 670.739 401.293 670.795 401.969C671.3 408.062 679.245 415.092 694.429 415.092C709.596 415.092 719.644 410.183 720.405 404.334C720.492 403.661 720.715 402.994 721.195 402.514L839.853 283.855L960.079 218.49C960.999 217.989 962.14 218.154 962.88 218.895L973.581 229.596C974.698 230.713 974.427 232.591 973.038 233.345L854.041 298.043L720.781 431.303C719.538 432.546 720.033 434.724 721.499 435.693C723.409 436.955 725.169 438.794 725.169 441.102C725.169 444.829 688.459 445.803 669.28 445.831C668.716 445.832 668.173 445.64 667.79 445.225C665.672 442.927 664.488 438.734 671.828 435.383C673.449 434.643 673.995 432.491 672.735 431.231Z" fill="#2A73FF"/>
<path d="M839.853 283.855L721.195 402.514C720.715 402.994 720.492 403.661 720.405 404.334C719.644 410.183 709.596 415.092 694.429 415.092C679.245 415.092 671.3 408.062 670.795 401.969C670.739 401.293 670.508 400.629 670.029 400.149L551.86 281.98C550.936 281.057 549.439 281.057 548.516 281.98L537.672 292.824C536.749 293.747 536.749 295.245 537.672 296.168L672.735 431.231C673.995 432.491 673.449 434.643 671.828 435.383C664.488 438.734 665.672 442.927 667.79 445.225C668.173 445.64 668.716 445.832 669.28 445.831C688.459 445.803 725.169 444.829 725.169 441.102C725.169 438.794 723.409 436.955 721.499 435.693C720.033 434.724 719.538 432.546 720.781 431.303L854.041 298.043M839.853 283.855L854.041 298.043M839.853 283.855L960.079 218.49C960.999 217.989 962.14 218.154 962.88 218.895L973.581 229.596C974.698 230.713 974.427 232.591 973.038 233.345L854.041 298.043" stroke="#2A73FF" stroke-width="7.09385" stroke-linecap="round" stroke-linejoin="round"/>
<path d="M976.999 234.198L933.254 277.943C955.954 255.243 940.348 257.45 929.707 261.391L976.999 234.198Z" fill="#1B1B1B" stroke="#1B1B1B" stroke-width="7.09385" stroke-linejoin="round"/>
<g filter="url(#filter0_b_1327_1995)">
<rect x="1008.63" y="289.106" width="331.278" height="244.26" fill="white" fill-opacity="0.25"/>
</g>
<path fill-rule="evenodd" clip-rule="evenodd" d="M1017.79 283H1001V299.793H1009.4H1017.79V291.396V283ZM1347.55 283H1330.75V299.793H1347.55V283ZM1330.75 524.207H1339.15H1347.54V541H1330.75V532.603V524.207ZM1017.79 541V524.207H1001V541H1017.79Z" fill="white"/>
<path d="M1001 283V280.71H998.71V283H1001ZM1017.79 283H1020.08V280.71H1017.79V283ZM1001 299.793H998.71V302.083H1001V299.793ZM1017.79 299.793V302.083H1020.08V299.793H1017.79ZM1330.75 283V280.71H1328.46V283H1330.75ZM1347.55 283H1349.84V280.71H1347.55V283ZM1330.75 299.793H1328.46V302.083H1330.75V299.793ZM1347.55 299.793V302.083H1349.84V299.793H1347.55ZM1330.75 524.207V521.917H1328.46V524.207H1330.75ZM1347.54 524.207H1349.83V521.917H1347.54V524.207ZM1347.54 541V543.29H1349.83V541H1347.54ZM1330.75 541H1328.46V543.29H1330.75V541ZM1017.79 524.207H1020.08V521.917H1017.79V524.207ZM1017.79 541V543.29H1020.08V541H1017.79ZM1001 524.207V521.917H998.71V524.207H1001ZM1001 541H998.71V543.29H1001V541ZM1001 285.29H1017.79V280.71H1001V285.29ZM1003.29 299.793V283H998.71V299.793H1003.29ZM1009.4 297.503H1001V302.083H1009.4V297.503ZM1017.79 297.503H1009.4V302.083H1017.79V297.503ZM1015.5 291.396V299.793H1020.08V291.396H1015.5ZM1015.5 283V291.396H1020.08V283H1015.5ZM1330.75 285.29H1347.55V280.71H1330.75V285.29ZM1333.04 299.793V283H1328.46V299.793H1333.04ZM1347.55 297.503H1330.75V302.083H1347.55V297.503ZM1345.26 283V299.793H1349.84V283H1345.26ZM1339.15 521.917H1330.75V526.497H1339.15V521.917ZM1347.54 521.917H1339.15V526.497H1347.54V521.917ZM1349.83 541V524.207H1345.25V541H1349.83ZM1330.75 543.29H1347.54V538.71H1330.75V543.29ZM1328.46 532.603V541H1333.04V532.603H1328.46ZM1328.46 524.207V532.603H1333.04V524.207H1328.46ZM1015.5 524.207V541H1020.08V524.207H1015.5ZM1001 526.497H1017.79V521.917H1001V526.497ZM1003.29 541V524.207H998.71V541H1003.29ZM1017.79 538.71H1001V543.29H1017.79V538.71ZM1017.79 293.686H1330.75V289.107H1017.79V293.686ZM1007.11 299.793V524.207H1011.69V299.793H1007.11ZM1341.44 524.207V299.793H1336.86V524.207H1341.44ZM1330.75 530.314H1017.79V534.893H1330.75V530.314Z" fill="white"/>
<circle cx="1258.24" cy="361.621" r="37.4024" fill="white"/>
<path d="M1029.24 508.178V424.213C1029.24 387.574 1053.67 341.012 1098.7 341.012C1158.24 341.012 1157.48 394.444 1199.46 427.266C1232.32 452.957 1296.4 443.805 1317.01 424.213V508.178H1029.24Z" fill="white"/>
<path d="M1186.75 141.872C1174 101.767 1224.49 86.9154 1267.15 88.0611C1267.99 88.0836 1268.65 88.7773 1268.65 89.616C1268.82 138.474 1260.75 175.41 1213.47 175.806C1212.99 175.81 1212.53 176.027 1212.23 176.401L1194.76 198.413C1194.18 199.142 1193.1 199.208 1192.44 198.553L1163.46 169.903C1162.86 169.304 1162.84 168.33 1163.43 167.712L1186.41 143.478C1186.81 143.056 1186.93 142.426 1186.75 141.872Z" fill="#F8F8F8"/>
<path d="M1223.19 142.792C1219.3 142.792 1216.16 139.431 1216.16 135.285C1216.16 131.139 1219.3 127.777 1223.19 127.777C1227.07 127.777 1230.22 131.139 1230.22 135.285C1230.22 139.431 1227.07 142.792 1223.19 142.792Z" fill="#F8F8F8"/>
<path d="M1186.75 141.872C1174 101.767 1224.49 86.9154 1267.15 88.0611C1267.99 88.0836 1268.65 88.7773 1268.65 89.616C1268.82 138.474 1260.75 175.41 1213.47 175.806M1186.75 141.872C1186.93 142.426 1186.81 143.056 1186.41 143.478L1163.43 167.712C1162.84 168.33 1162.86 169.304 1163.46 169.903L1192.44 198.553C1193.1 199.208 1194.18 199.142 1194.76 198.413L1212.23 176.401C1212.53 176.027 1212.99 175.81 1213.47 175.806M1186.75 141.872C1173.85 101.298 1225.68 86.5717 1268.65 88.1078M1213.47 175.806C1261.23 175.406 1268.98 137.712 1268.65 88.1078M1268.65 88.1078L1228.8 129.708M1223.19 142.792C1219.3 142.792 1216.16 139.431 1216.16 135.285C1216.16 131.139 1219.3 127.777 1223.19 127.777C1227.07 127.777 1230.22 131.139 1230.22 135.285C1230.22 139.431 1227.07 142.792 1223.19 142.792Z" stroke="#1B1B1B" stroke-width="6"/>
</g>
<defs>
<filter id="filter0_b_1327_1995" x="1002.53" y="283" width="343.491" height="256.473" filterUnits="userSpaceOnUse" color-interpolation-filters="sRGB">
<feFlood flood-opacity="0" result="BackgroundImageFix"/>
<feGaussianBlur in="BackgroundImageFix" stdDeviation="3.05325"/>
<feComposite in2="SourceAlpha" operator="in" result="effect1_backgroundBlur_1327_1995"/>
<feBlend mode="normal" in="SourceGraphic" in2="effect1_backgroundBlur_1327_1995" result="shape"/>
</filter>
<linearGradient id="paint0_linear_1327_1995" x1="1700.93" y1="-131" x2="1700.93" y2="388" gradientUnits="userSpaceOnUse">
<stop stop-color="#4182FF"/>
<stop offset="1" stop-color="#4182FF" stop-opacity="0"/>
</linearGradient>
<linearGradient id="paint1_linear_1327_1995" x1="-184" y1="500.415" x2="394" y2="500.415" gradientUnits="userSpaceOnUse">
<stop stop-color="#4182FF"/>
<stop offset="1" stop-color="#4182FF" stop-opacity="0"/>
</linearGradient>
<linearGradient id="paint2_linear_1327_1995" x1="1493.65" y1="344.136" x2="1449.04" y2="197.555" gradientUnits="userSpaceOnUse">
<stop stop-color="#C7DCFF"/>
<stop offset="1" stop-color="#C7DCFF" stop-opacity="0"/>
</linearGradient>
<clipPath id="clip0_1327_1995">
<rect width="1838" height="375" fill="white"/>
</clipPath>
</defs>
</svg>
