<svg width="1838" height="375" viewBox="0 0 1838 375" fill="none" xmlns="http://www.w3.org/2000/svg">
<g clip-path="url(#clip0_1327_1995)">
<rect width="1838" height="375" fill="#8EB4FF"/>
<path d="M45.6392 32.8313C45.9733 31.6984 48.9369 31.6985 49.2709 32.8313C50.2755 36.2382 51.7698 39.8271 53.9266 41.9839C56.0834 44.1407 59.6723 45.635 63.0791 46.6396C64.212 46.9736 64.212 49.9372 63.0791 50.2713C59.6723 51.2758 56.0834 52.7701 53.9266 54.9269C51.7698 57.0837 50.2755 60.6726 49.2709 64.0795C48.9369 65.2124 45.9733 65.2124 45.6392 64.0795C44.6347 60.6726 43.1404 57.0837 40.9836 54.9269C38.8268 52.7701 35.2379 51.2758 31.831 50.2713C30.6981 49.9372 30.6981 46.9736 31.831 46.6396C35.2379 45.635 38.8268 44.1407 40.9836 41.9839C43.1404 39.8271 44.6347 36.2382 45.6392 32.8313Z" fill="#D1E0FF" fill-opacity="0.5"/>
<path d="M1760.31 173.161C1760.31 361.956 1493 218.499 1493 429.625V500H1991V-243C1175.89 -127.964 1760.31 14.1402 1760.31 173.161Z" fill="url(#paint0_linear_1327_1995)"/>
<path d="M106.956 373.582C243.929 389.787 521.228 374.142 534.638 181.925C551.401 -58.3469 253.442 -43.1561 343.916 168.063C434.39 379.282 765.189 217.021 825.032 -55.1778" stroke="#A4C3FF" stroke-width="20" stroke-linecap="round"/>
<path d="M139.743 396.846C286.612 396.846 175.013 859 339.253 859L394 859L394 -2.00003L-184 -2C-94.51 1407.25 16.0364 396.846 139.743 396.846Z" fill="url(#paint1_linear_1327_1995)"/>
<path d="M1165.05 241.819L1218 134L1272.81 241.819L1389.12 204.88L1352.97 319.797L1460 376L1355.23 429.417L1389.12 547.12L1275.6 511.826L1218 618L1164.12 512.595L1046.88 547.12L1083.73 432.203L976 376L1084.89 319.797L1046.88 204.88L1165.05 241.819Z" fill="#6EA0FF"/>
<path d="M1357.69 -28.0143L1297.68 195.961L1409.66 225.968C1499.25 249.974 1540.1 187.11 1551.66 143.988C1563.21 100.865 1559.27 25.9984 1469.68 1.99271L1357.69 -28.0143Z" fill="#2A73FF"/>
<path d="M1465.03 180.759C1479.98 124.959 1412.5 85.9934 1376.89 73.4855L1317.98 195.94C1387.73 214.629 1450.08 236.558 1465.03 180.759Z" fill="#1B1B1B"/>
<ellipse cx="1327.61" cy="84.3288" rx="125.774" ry="45.7483" transform="rotate(-75 1327.61 84.3288)" fill="#0057FF"/>
<ellipse cx="1317.6" cy="81.9241" rx="103.73" ry="31.5201" transform="rotate(-75 1317.6 81.9241)" fill="#1B1B1B"/>
<circle cx="1422.64" cy="31.1604" r="27.5085" transform="rotate(-75 1422.64 31.1604)" fill="#0057FF"/>
<path d="M1417.63 23.2918C1415.38 31.706 1422.91 37.56 1426.95 39.4353C1455.74 47.1483 1505.21 72.8641 1470.21 203.505C1442.2 308.018 1398.01 255.951 1379.19 217.683L1355.39 211.305C1384.48 272.498 1452.83 356.909 1492.94 207.225C1533.05 57.5405 1469.2 23.4641 1433.78 13.9713C1429.33 13.5722 1419.89 14.8776 1417.63 23.2918Z" fill="#C7DCFF"/>
<path d="M1204 143.538C1238.37 84.017 1310.58 94.0161 1342.39 106.456C1334.61 139.394 1317.79 161.503 1310.35 168.439C1305.41 173.823 1301.21 207.143 1283.2 214.209C1258.22 224.014 1258.22 183.288 1258.22 195.355C1258.22 253.401 1220.48 254.935 1206.94 233.847C1191.85 210.343 1185.18 176.141 1204 143.538Z" fill="#C7DCFF"/>
<path d="M1255.19 344.518C1276.2 339.018 1274.12 313.578 1270.45 301.545C1268.54 294.249 1262.46 284.145 1255.46 285.978C1240.87 289.798 1247.69 324.811 1243.45 308.611C1228.37 250.972 1213.82 275.828 1218.6 294.068C1224.53 316.754 1234.18 350.018 1255.19 344.518Z" fill="url(#paint2_linear_1327_1995)"/>
<path d="M113.813 390.219L113.107 390.219L112.607 389.721L-25.9668 251.747L-29.3792 251.747C-30.323 254.401 -31.2404 258.271 -31.2874 262.277C-31.3414 266.867 -30.2558 271.376 -27.0791 274.553C-27.0787 274.554 -27.0783 274.554 -27.0779 274.554L121.484 422.362L149.532 422.362L209.721 422.362L177.577 390.219L113.813 390.219Z" fill="#1B1B1B" stroke="#1B1B1B" stroke-width="3.42058"/>
<path d="M504.415 396.832L357.62 250.037L-29.7996 250.037L116.996 396.832L504.415 396.832Z" fill="#2A73FF"/>
<path d="M309.949 250.037L456.744 396.832" stroke="#1B1B1B" stroke-width="2.28038"/>
<path d="M253.953 250.037L400.748 396.832" stroke="#1B1B1B" stroke-width="2.28038"/>
<path d="M197.96 250.037L344.756 396.832" stroke="#1B1B1B" stroke-width="2.28038"/>
<path d="M141.966 250.037L288.762 396.832" stroke="#1B1B1B" stroke-width="2.28038"/>
<path d="M85.9711 250.037L232.767 396.832" stroke="#1B1B1B" stroke-width="2.28038"/>
<path d="M29.9769 250.037L176.772 396.832" stroke="#1B1B1B" stroke-width="2.28038"/>
<path d="M116.237 397.589L-29.8015 251.55" stroke="#1B1B1B" stroke-width="3.42058"/>
<path d="M114.571 109.854L113.865 109.854L113.365 110.352L-25.209 248.326L-28.6214 248.326C-29.5651 245.672 -30.4825 241.802 -30.5296 237.796C-30.5836 233.205 -29.498 228.697 -26.3213 225.52C-26.3209 225.519 -26.3205 225.519 -26.3201 225.518L122.242 77.7105L150.29 77.7105L210.478 77.7105L178.335 109.854L114.571 109.854Z" fill="#1B1B1B" stroke="#1B1B1B" stroke-width="3.42058"/>
<path d="M505.173 103.241L358.377 250.036L-29.0418 250.036L117.754 103.241L505.173 103.241Z" fill="white"/>
<path d="M116.998 103.24L504.417 103.24C504.417 94.1601 498.969 75.9998 477.177 75.9998L144.238 75.9998C118.814 75.9998 115.484 94.1601 116.998 103.24Z" fill="#0057FF"/>
<path d="M503.659 103.24L116.997 103.24" stroke="#1B1B1B" stroke-width="3.42058"/>
<path d="M673.704 -151.86L574.871 127.639L561.319 152.556C570.828 151.983 596.081 146.606 602.558 128.288L684.919 -104.627C687.207 -114.573 688.167 -137.942 673.704 -151.86Z" fill="#0057FF"/>
<path d="M395.744 170.946L494.577 -108.553L675.726 -151.618L576.893 127.881L395.744 170.946Z" fill="#C7DCFF"/>
<path d="M576.892 127.881L674.888 -149.249" stroke="#1B1B1B" stroke-width="2.32255" stroke-linecap="round"/>
<path d="M417.985 143.24L502.498 -96.6965L646.268 -130.875L561.754 109.061L417.985 143.24Z" fill="white"/>
<path d="M580.047 126.408L398.897 169.473C402.524 175.601 412.654 187.174 424.155 184.44L571.95 149.305C585.752 146.024 583.099 132.673 580.047 126.408Z" fill="#1B1B1B" stroke="#1B1B1B" stroke-width="4.64509" stroke-linecap="round"/>
<path d="M902.5 326C902 327 900.3 329.1 897.5 329.5" stroke="#A4C3FF" stroke-width="3.311" stroke-linecap="round"/>
<path d="M1077 324C1077.5 325 1079.2 327.1 1082 327.5" stroke="#A4C3FF" stroke-width="3.311" stroke-linecap="round"/>
<path d="M901.01 320.536C899.949 320.889 897.262 321.172 895 319.475" stroke="#A4C3FF" stroke-width="3.311" stroke-linecap="round"/>
<path d="M737.583 510.51C763.456 499.374 740.206 296.774 737.707 190.963C737.634 187.852 740.634 185.668 743.609 186.582L1119.18 301.973C1121.23 302.604 1122.56 304.619 1122.4 306.759C1113.29 425.244 1124.06 488.38 1132.91 511.844C1134.17 515.183 1131.7 518.973 1128.37 517.693C1117.67 513.578 1108.98 501.337 1102.61 485.602V514.607C1102.61 517.136 1100.52 519.251 1098.09 518.553C1093.82 517.327 1090.17 514.412 1087.11 510.611C1083.77 506.46 1071.57 507.856 1070.99 513.155L1070.78 515.104C1070.53 517.427 1068.56 519.187 1066.23 519.187H987.147H843.719H803.328C802.664 519.187 802.125 518.648 802.125 517.983C802.125 516.617 799.763 516.146 799.042 517.307C792.004 528.624 780.888 525.031 774.421 520.487C773.31 519.706 772.723 518.402 772.723 517.043V508.128C772.723 503.09 763.903 500.883 760.602 504.688C738.928 529.677 710.304 522.251 737.583 510.51Z" fill="#003FB8"/>
<path d="M698.135 543.516C724.008 532.38 727.64 329.782 726.196 223.97C726.154 220.859 729.155 218.674 732.129 219.588L781.27 234.686C782.94 235.199 784.173 236.609 784.428 238.337C786.902 255.111 792.373 301.065 797.632 373.443C803.221 450.364 795.303 518.875 790.646 543.516C784.237 562.901 770.289 558.727 762.799 553.392C761.784 552.668 761.243 551.472 761.243 550.226C761.243 545.602 752.376 543.094 748.917 546.162C720.959 570.955 670.196 555.541 698.135 543.516Z" fill="#1B1B1B"/>
<path d="M1054.75 552.193H980.246C977.717 552.193 975.666 550.142 975.666 547.613V300.612C975.666 297.532 978.646 295.33 981.591 296.235L1107.7 334.979C1109.75 335.61 1111.08 337.625 1110.92 339.765C1101.81 458.25 1112.58 521.387 1121.43 544.85C1122.69 548.19 1120.22 551.98 1116.89 550.699C1106.19 546.584 1097.5 534.343 1091.13 518.608V547.613C1091.13 550.142 1089.04 552.257 1086.61 551.559C1082.34 550.333 1078.69 547.418 1075.63 543.617C1072.28 539.466 1060.09 540.862 1059.51 546.161L1059.3 548.11C1059.05 550.433 1057.08 552.193 1054.75 552.193Z" fill="#1B1B1B"/>
<path d="M1147.8 314.844C1139.19 308.864 1129.86 293.796 1128.42 257.201V229.217H1093.26V287.729C1093.26 313.987 1121.96 314.844 1147.8 314.844Z" fill="#1B1B1B"/>
<path d="M1115.93 245.72C1115.93 260.691 1110.47 306.19 1109.77 320.345C1113.43 384.784 1095.42 442.327 1069.58 468.159C1041.6 504.753 1027.26 523.989 990.651 523.989C888.805 523.989 785.434 408.603 775.388 310.299C775.388 177.848 830.684 46.8223 932.53 46.8223C1034.38 46.8223 1115.93 113.27 1115.93 245.72Z" fill="url(#paint3_linear_1327_1995)"/>
<path d="M739.869 272.302C767.428 249.833 794.253 277.335 800.499 285.514V376.109C756.405 387.433 716.719 291.176 739.869 272.302Z" fill="white"/>
<path d="M975.581 270.836V261.508C910.285 245.722 885.171 280.164 899.521 270.836C911.002 263.373 955.011 267.727 975.581 270.836Z" fill="#E1EBFF"/>
<path d="M1040.16 270.727V261.898C1095.24 246.956 1116.42 279.556 1104.32 270.727C1094.63 263.664 1057.51 267.784 1040.16 270.727Z" fill="#CDDEFF"/>
<path d="M869.952 234.924C851.009 244.109 841.968 273.671 839.815 287.305L828.334 237.794L869.952 234.924Z" fill="#A4C3FF"/>
<path d="M891.629 234.958C881.296 183.295 874.408 213.432 872.255 234.958L849.293 167.509L889.476 174.684L891.629 234.958Z" fill="#A4C3FF"/>
<path d="M1077.48 234.958C1067.14 183.295 1060.25 213.432 1058.1 234.958L1035.14 167.509L1075.33 174.684L1077.48 234.958Z" fill="#A4C3FF"/>
<path d="M820.592 335.414C815.855 333.383 798.085 310.148 796.191 313.451L796.913 318.193C796.028 315.537 795.846 314.053 796.191 313.451L793.133 293.374L820.592 335.414Z" fill="#A4C3FF"/>
<g filter="url(#filter0_f_1327_1995)">
<path d="M886.475 408.342C913.223 414.019 937.952 404.275 941.707 386.578C945.463 368.881 926.824 349.933 900.075 344.257C873.327 338.58 848.599 348.325 844.843 366.021C841.088 383.718 859.727 402.666 886.475 408.342Z" fill="#E1EBFF"/>
</g>
<path d="M767.493 280.163C771.512 295.088 777.778 300.254 780.409 300.972C780.409 302.407 777.539 305.995 766.058 308.865C754.578 311.735 758.883 323.455 762.471 328.956C775.386 332.305 797.056 341.011 780.409 349.047C759.6 359.093 750.99 305.995 742.379 294.514C733.769 283.033 762.471 261.507 767.493 280.163Z" fill="#A4C3FF"/>
<g filter="url(#filter1_f_1327_1995)">
<path d="M1104.32 388.24C1098.88 407.592 1090.38 414.699 1079.59 411.663C1068.8 408.627 1064.47 390.478 1069.91 371.125C1075.36 351.773 1088.52 338.545 1099.31 341.581C1110.1 344.617 1109.77 368.887 1104.32 388.24Z" fill="#CDDEFF"/>
</g>
<path d="M933.354 328.928C940.351 328.427 945.563 321.592 944.995 313.661C944.427 305.731 938.294 299.708 931.296 300.209C924.299 300.711 919.087 307.546 919.655 315.477C920.223 323.407 926.356 329.43 933.354 328.928Z" fill="#2B62CD"/>
<path d="M955.535 295.994C964.295 300.121 974.729 317.56 975.939 326.247C970.515 316.164 955.535 292.325 922.1 306.219C919.152 294.744 941.717 290.192 955.535 295.994Z" fill="#E1EBFF"/>
<path d="M975.938 326.247C974.75 317.559 966.089 301.531 957.641 297.381" stroke="#A4C3FF" stroke-width="3.05316" stroke-linecap="round"/>
<path d="M910.265 318.885C902.557 321.442 888.016 322.751 891.517 307.533C895.893 288.511 930.105 295.415 910.265 318.885Z" fill="#EEF4FF"/>
<path d="M912.435 318.19C929.479 333.5 950.479 316 973.312 327.688C950.815 337.6 904.932 346.019 912.435 318.19Z" fill="#E1EBFF"/>
<path d="M932.138 318.67C934.471 318.503 936.226 316.477 936.059 314.144C935.892 311.812 933.865 310.056 931.533 310.223C929.2 310.39 927.445 312.417 927.612 314.749C927.779 317.082 929.806 318.837 932.138 318.67Z" fill="#1B1B1B"/>
<path d="M911.718 316.037C916.713 310.409 921.095 307.219 930.506 304.435C941.815 301.091 958.906 302.1 969.711 318.378L974.144 326.083" stroke="#30313A" stroke-width="3.60332" stroke-linecap="round"/>
<path d="M933.97 307.087L927.213 307.571L927.455 310.949L934.212 310.465L933.97 307.087Z" fill="white"/>
<path d="M925.525 307.693L923.836 307.814L924.078 311.193L925.767 311.072L925.525 307.693Z" fill="white"/>
<path d="M1060.13 326.067C1053.91 325.622 1049.29 319.503 1049.8 312.399C1050.31 305.296 1055.76 299.898 1061.97 300.343C1068.18 300.788 1072.8 306.907 1072.29 314.011C1071.78 321.114 1066.34 326.512 1060.13 326.067Z" fill="#2B62CD"/>
<path d="M1056.59 293.956C1049.9 298.231 1046.97 314.518 1045.91 323.215C1050.18 313.05 1064.36 295.022 1076.92 297.96C1075.66 293.907 1067.13 287.919 1056.59 293.956Z" fill="#CDDEFF"/>
<path d="M1048.78 306.79C1050.45 301.528 1055.95 289.856 1070.31 291.004C1084.66 292.152 1090.16 297.701 1090.4 299.615" stroke="#A4C3FF" stroke-width="1.52658"/>
<path d="M1095.08 314.566L1095.02 314.539C1077.17 285.243 1112.86 274.577 1111.21 298.819C1109.7 320.86 1102.16 317.614 1095.08 314.566Z" fill="#CDDEFF"/>
<path d="M1094.36 314.491C1086.42 323.261 1056.16 318.547 1048.09 324.761C1065.59 334.314 1099.82 342.173 1094.36 314.491Z" fill="#CDDEFF"/>
<path d="M1057.93 316.832C1056.1 316.701 1054.76 314.704 1054.92 312.371C1055.09 310.039 1056.71 308.254 1058.54 308.385C1060.36 308.516 1061.71 310.513 1061.54 312.845C1061.37 315.178 1059.76 316.963 1057.93 316.832Z" fill="#1B1B1B"/>
<path d="M1094.7 312.454C1090.87 306.909 1089.38 303.51 1082.04 300.875C1073.21 297.709 1059.79 298.981 1051.06 315.407L1047.34 323.217" stroke="#30313A" stroke-width="3.60332" stroke-linecap="round"/>
<path d="M1062.13 304.945L1067.43 305.325L1067.18 308.703L1061.89 308.324L1062.13 304.945Z" fill="white"/>
<path d="M1068.75 305.421L1070.08 305.516L1069.83 308.894L1068.51 308.8L1068.75 305.421Z" fill="white"/>
<path d="M1001.41 346.895C1002.21 346.895 1002.85 346.253 1002.85 345.46C1002.85 344.667 1002.21 344.025 1001.41 344.025C1000.62 344.025 999.979 344.667 999.979 345.46C999.979 346.253 1000.62 346.895 1001.41 346.895Z" fill="#96AFE1"/>
<path d="M1109.05 349.765C1109.84 349.765 1110.48 349.122 1110.48 348.33C1110.48 347.537 1109.84 346.895 1109.05 346.895C1108.25 346.895 1107.61 347.537 1107.61 348.33C1107.61 349.122 1108.25 349.765 1109.05 349.765Z" fill="#96AFE1"/>
<path d="M1007.15 385.641C1016.72 387.315 1035.57 386.645 1034.42 370.572C1033.27 354.499 1021.02 329.911 1015.04 321.062" stroke="url(#paint4_linear_1327_1995)" stroke-width="4.57975" stroke-linecap="round"/>
<path d="M784.716 364.115C787.886 364.115 790.456 361.545 790.456 358.375C790.456 355.204 787.886 352.634 784.716 352.634C781.546 352.634 778.976 355.204 778.976 358.375C778.976 361.545 781.546 364.115 784.716 364.115Z" fill="#003FB8"/>
<path d="M1032.27 379.185C1039.16 368.278 1023.66 339.241 1015.05 326.086L1005 383.49C1011.22 386.599 1025.38 390.091 1032.27 379.185Z" fill="white"/>
<path d="M1120.38 124.423C1137.42 149.557 1143.72 181.975 1145.56 247.588C1145.61 249.304 1144.23 250.744 1142.51 250.744H1076.74C1075.13 250.744 1073.8 249.514 1073.7 247.912C1072.74 231.769 1071.69 202.415 1061.74 184.653C1060.33 182.131 1057.12 183.395 1057.35 186.278L1062.14 247.452C1062.28 249.227 1060.88 250.744 1059.1 250.744H976.128C975.318 250.744 974.542 250.422 973.969 249.85L963.572 239.452C961.648 237.529 958.36 238.891 958.36 241.611V247.691C958.36 249.377 956.993 250.744 955.307 250.744H895.268C893.581 250.744 892.216 249.391 892.196 247.705C891.957 227.897 889.383 193.513 880.861 181.203C879.526 179.275 877.146 180.471 877.146 182.815V248.288C877.146 249.722 876.148 250.963 874.747 251.27L849.924 256.719C848.617 257.006 847.649 258.125 847.529 259.457C843.852 300.338 836.52 323.436 851.562 346.674C852.864 348.687 851.652 351.372 849.263 351.178C833.771 349.915 807.281 338.062 796.818 297.437L803.39 326.252C803.931 328.625 801.61 330.629 799.479 329.452C788.713 323.501 783.883 312.064 778.908 275.031C778.852 274.616 778.712 274.205 778.477 273.859C777.474 272.378 774.326 268.152 769.646 265.812C765.385 263.682 761.035 262.942 756.012 263.66C750.99 264.377 739.652 269.797 737.356 274.389C734.486 280.13 688.411 148.102 804.653 64.8665C908.43 -9.44269 1050.77 21.814 1120.38 124.423Z" fill="#1B1B1B"/>
<path d="M1120.38 124.423C1137.42 149.557 1143.72 181.975 1145.56 247.588C1145.61 249.304 1144.23 250.744 1142.51 250.744H1076.74C1075.13 250.744 1073.8 249.514 1073.7 247.912C1072.74 231.769 1071.69 202.415 1061.74 184.653C1060.33 182.131 1057.12 183.395 1057.35 186.278L1062.14 247.452C1062.28 249.227 1060.88 250.744 1059.1 250.744H976.128C975.318 250.744 974.542 250.422 973.969 249.85L963.572 239.452C961.648 237.529 958.36 238.891 958.36 241.611V247.691C958.36 249.377 956.993 250.744 955.307 250.744H895.268C893.581 250.744 892.216 249.391 892.196 247.705C891.957 227.897 889.383 193.513 880.861 181.203C879.526 179.275 877.146 180.471 877.146 182.815V248.288C877.146 249.722 876.148 250.963 874.747 251.27L849.924 256.719C848.617 257.006 847.649 258.125 847.529 259.457C843.852 300.338 836.52 323.436 851.562 346.674C852.864 348.687 851.652 351.372 849.263 351.178C832.968 349.85 804.508 336.806 795.325 290.893L803.39 326.252C803.931 328.625 801.61 330.629 799.479 329.452C788.713 323.501 783.883 312.064 778.908 275.031C778.852 274.616 778.712 274.205 778.477 273.859C777.474 272.378 774.326 268.152 769.646 265.812C765.385 263.682 761.035 262.942 756.012 263.66C750.99 264.377 739.652 269.797 737.356 274.389C734.486 280.13 688.411 148.102 804.653 64.8665C908.43 -9.44269 1050.77 21.814 1120.38 124.423Z" stroke="#1B1B1B" stroke-width="1.52658"/>
<path d="M617.639 294.831C617.973 293.698 620.937 293.698 621.271 294.831C622.275 298.238 623.77 301.827 625.927 303.984C628.083 306.141 631.672 307.635 635.079 308.64C636.212 308.974 636.212 311.937 635.079 312.271C631.672 313.276 628.083 314.77 625.927 316.927C623.77 319.084 622.275 322.673 621.271 326.079C620.937 327.212 617.973 327.212 617.639 326.079C616.635 322.673 615.14 319.084 612.984 316.927C610.827 314.77 607.238 313.276 603.831 312.271C602.698 311.937 602.698 308.974 603.831 308.64C607.238 307.635 610.827 306.141 612.984 303.984C615.14 301.827 616.635 298.238 617.639 294.831Z" fill="#D1E0FF" fill-opacity="0.5"/>
<path d="M1155.64 55.8313C1155.97 54.6984 1158.94 54.6985 1159.27 55.8313C1160.28 59.2382 1161.77 62.8271 1163.93 64.9839C1166.08 67.1407 1169.67 68.635 1173.08 69.6396C1174.21 69.9736 1174.21 72.9372 1173.08 73.2713C1169.67 74.2758 1166.08 75.7701 1163.93 77.9269C1161.77 80.0837 1160.28 83.6726 1159.27 87.0795C1158.94 88.2124 1155.97 88.2124 1155.64 87.0795C1154.63 83.6726 1153.14 80.0837 1150.98 77.9269C1148.83 75.7701 1145.24 74.2758 1141.83 73.2713C1140.7 72.9372 1140.7 69.9736 1141.83 69.6396C1145.24 68.635 1148.83 67.1407 1150.98 64.9839C1153.14 62.8271 1154.63 59.2382 1155.64 55.8313Z" fill="#D1E0FF" fill-opacity="0.5"/>
<path d="M1582.64 226.831C1582.97 225.698 1585.94 225.698 1586.27 226.831C1587.28 230.238 1588.77 233.827 1590.93 235.984C1593.08 238.141 1596.67 239.635 1600.08 240.64C1601.21 240.974 1601.21 243.937 1600.08 244.271C1596.67 245.276 1593.08 246.77 1590.93 248.927C1588.77 251.084 1587.28 254.673 1586.27 258.079C1585.94 259.212 1582.97 259.212 1582.64 258.079C1581.63 254.673 1580.14 251.084 1577.98 248.927C1575.83 246.77 1572.24 245.276 1568.83 244.271C1567.7 243.937 1567.7 240.974 1568.83 240.64C1572.24 239.635 1575.83 238.141 1577.98 235.984C1580.14 233.827 1581.63 230.238 1582.64 226.831Z" fill="#D1E0FF" fill-opacity="0.5"/>
<path d="M767.801 214.138L774.469 207.47L781.138 200.801L753.132 172.795L779.804 157.681L685.561 118.562L724.681 212.804L739.795 186.132L767.801 214.138Z" fill="white"/>
<g filter="url(#filter2_b_1327_1995)">
<rect x="1643.63" y="176.106" width="331.278" height="244.26" fill="white" fill-opacity="0.25"/>
</g>
<path fill-rule="evenodd" clip-rule="evenodd" d="M1652.79 170H1636V186.793H1644.4H1652.79V178.396V170ZM1982.55 170H1965.75V186.793H1982.55V170ZM1965.75 411.207H1974.15H1982.54V428H1965.75V419.603V411.207ZM1652.79 428V411.207H1636V428H1652.79Z" fill="white"/>
<path d="M1636 170V167.71H1633.71V170H1636ZM1652.79 170H1655.08V167.71H1652.79V170ZM1636 186.793H1633.71V189.083H1636V186.793ZM1652.79 186.793V189.083H1655.08V186.793H1652.79ZM1965.75 170V167.71H1963.46V170H1965.75ZM1982.55 170H1984.84V167.71H1982.55V170ZM1965.75 186.793H1963.46V189.083H1965.75V186.793ZM1982.55 186.793V189.083H1984.84V186.793H1982.55ZM1965.75 411.207V408.917H1963.46V411.207H1965.75ZM1982.54 411.207H1984.83V408.917H1982.54V411.207ZM1982.54 428V430.29H1984.83V428H1982.54ZM1965.75 428H1963.46V430.29H1965.75V428ZM1652.79 411.207H1655.08V408.917H1652.79V411.207ZM1652.79 428V430.29H1655.08V428H1652.79ZM1636 411.207V408.917H1633.71V411.207H1636ZM1636 428H1633.71V430.29H1636V428ZM1636 172.29H1652.79V167.71H1636V172.29ZM1638.29 186.793V170H1633.71V186.793H1638.29ZM1644.4 184.503H1636V189.083H1644.4V184.503ZM1652.79 184.503H1644.4V189.083H1652.79V184.503ZM1650.5 178.396V186.793H1655.08V178.396H1650.5ZM1650.5 170V178.396H1655.08V170H1650.5ZM1965.75 172.29H1982.55V167.71H1965.75V172.29ZM1968.04 186.793V170H1963.46V186.793H1968.04ZM1982.55 184.503H1965.75V189.083H1982.55V184.503ZM1980.26 170V186.793H1984.84V170H1980.26ZM1974.15 408.917H1965.75V413.497H1974.15V408.917ZM1982.54 408.917H1974.15V413.497H1982.54V408.917ZM1984.83 428V411.207H1980.25V428H1984.83ZM1965.75 430.29H1982.54V425.71H1965.75V430.29ZM1963.46 419.603V428H1968.04V419.603H1963.46ZM1963.46 411.207V419.603H1968.04V411.207H1963.46ZM1650.5 411.207V428H1655.08V411.207H1650.5ZM1636 413.497H1652.79V408.917H1636V413.497ZM1638.29 428V411.207H1633.71V428H1638.29ZM1652.79 425.71H1636V430.29H1652.79V425.71ZM1652.79 180.686H1965.75V176.107H1652.79V180.686ZM1642.11 186.793V411.207H1646.69V186.793H1642.11ZM1976.44 411.207V186.793H1971.86V411.207H1976.44ZM1965.75 417.314H1652.79V421.893H1965.75V417.314Z" fill="white"/>
<path d="M1664.24 395.178V311.213C1664.24 274.574 1688.67 228.012 1733.7 228.012C1793.24 228.012 1792.48 281.444 1834.46 314.267C1867.32 339.957 1931.4 330.805 1952.01 311.213V395.178H1664.24Z" fill="white"/>
<path d="M1736.9 85.133C1749.66 125.238 1699.17 140.09 1656.5 138.944C1655.67 138.921 1655.01 138.228 1655 137.389C1654.84 88.531 1662.91 51.5947 1710.19 51.1986C1710.66 51.1946 1711.13 50.9776 1711.43 50.604L1728.89 28.5914C1729.47 27.8626 1730.55 27.7974 1731.22 28.4515L1760.19 57.1017C1760.8 57.7007 1760.81 58.6749 1760.23 59.293L1737.25 83.527C1736.85 83.9486 1736.73 84.5791 1736.9 85.133Z" fill="#F8F8F8"/>
<path d="M1700.47 84.2125C1704.35 84.2125 1707.5 87.5738 1707.5 91.72C1707.5 95.8663 1704.35 99.2275 1700.47 99.2275C1696.58 99.2275 1693.43 95.8663 1693.43 91.72C1693.43 87.5738 1696.58 84.2125 1700.47 84.2125Z" fill="#F8F8F8"/>
<path d="M1736.9 85.133C1749.66 125.238 1699.17 140.09 1656.5 138.944C1655.67 138.921 1655.01 138.228 1655 137.389C1654.84 88.531 1662.91 51.5947 1710.19 51.1986M1736.9 85.133C1736.73 84.5791 1736.85 83.9486 1737.25 83.527L1760.23 59.293C1760.81 58.6749 1760.8 57.7007 1760.19 57.1017L1731.22 28.4515C1730.55 27.7974 1729.47 27.8626 1728.89 28.5914L1711.43 50.604C1711.13 50.9776 1710.66 51.1946 1710.19 51.1986M1736.9 85.133C1749.81 125.706 1697.98 140.433 1655.01 138.897M1710.19 51.1986C1662.42 51.5988 1654.68 89.2931 1655.01 138.897M1655.01 138.897L1694.86 97.2965M1700.47 84.2125C1704.35 84.2125 1707.5 87.5738 1707.5 91.72C1707.5 95.8663 1704.35 99.2275 1700.47 99.2275C1696.58 99.2275 1693.43 95.8663 1693.43 91.72C1693.43 87.5738 1696.58 84.2125 1700.47 84.2125Z" stroke="#1B1B1B" stroke-width="6"/>
</g>
<defs>
<filter id="filter0_f_1327_1995" x="806.198" y="304.475" width="174.155" height="143.649" filterUnits="userSpaceOnUse" color-interpolation-filters="sRGB">
<feFlood flood-opacity="0" result="BackgroundImageFix"/>
<feBlend mode="normal" in="SourceGraphic" in2="BackgroundImageFix" result="shape"/>
<feGaussianBlur stdDeviation="19.0823" result="effect1_foregroundBlur_1327_1995"/>
</filter>
<filter id="filter1_f_1327_1995" x="1029.4" y="302.982" width="116.798" height="147.52" filterUnits="userSpaceOnUse" color-interpolation-filters="sRGB">
<feFlood flood-opacity="0" result="BackgroundImageFix"/>
<feBlend mode="normal" in="SourceGraphic" in2="BackgroundImageFix" result="shape"/>
<feGaussianBlur stdDeviation="19.0823" result="effect1_foregroundBlur_1327_1995"/>
</filter>
<filter id="filter2_b_1327_1995" x="1637.53" y="170" width="343.49" height="256.473" filterUnits="userSpaceOnUse" color-interpolation-filters="sRGB">
<feFlood flood-opacity="0" result="BackgroundImageFix"/>
<feGaussianBlur in="BackgroundImageFix" stdDeviation="3.05325"/>
<feComposite in2="SourceAlpha" operator="in" result="effect1_backgroundBlur_1327_1995"/>
<feBlend mode="normal" in="SourceGraphic" in2="effect1_backgroundBlur_1327_1995" result="shape"/>
</filter>
<linearGradient id="paint0_linear_1327_1995" x1="1700.4" y1="-243" x2="1700.4" y2="500" gradientUnits="userSpaceOnUse">
<stop stop-color="#4182FF"/>
<stop offset="1" stop-color="#4182FF" stop-opacity="0"/>
</linearGradient>
<linearGradient id="paint1_linear_1327_1995" x1="-184" y1="500.415" x2="394" y2="500.415" gradientUnits="userSpaceOnUse">
<stop stop-color="#4182FF"/>
<stop offset="1" stop-color="#4182FF" stop-opacity="0"/>
</linearGradient>
<linearGradient id="paint2_linear_1327_1995" x1="1256.65" y1="344.136" x2="1212.04" y2="197.555" gradientUnits="userSpaceOnUse">
<stop stop-color="#C7DCFF"/>
<stop offset="1" stop-color="#C7DCFF" stop-opacity="0"/>
</linearGradient>
<linearGradient id="paint3_linear_1327_1995" x1="981.323" y1="298.101" x2="1271.21" y2="237.11" gradientUnits="userSpaceOnUse">
<stop stop-color="white"/>
<stop offset="1" stop-color="#A4C3FF"/>
</linearGradient>
<linearGradient id="paint4_linear_1327_1995" x1="1027.96" y1="350.481" x2="1015.04" y2="328.237" gradientUnits="userSpaceOnUse">
<stop stop-color="#A4C3FF"/>
<stop offset="1" stop-color="#A4C3FF" stop-opacity="0"/>
</linearGradient>
<clipPath id="clip0_1327_1995">
<rect width="1838" height="375" fill="white"/>
</clipPath>
</defs>
</svg>
