<svg width="82" height="82" viewBox="0 0 82 82" fill="none" xmlns="http://www.w3.org/2000/svg">
<g clip-path="url(#clip0_1133_1848)">
<path d="M41 82C63.6437 82 82 63.6437 82 41C82 18.3563 63.6437 0 41 0C18.3563 0 0 18.3563 0 41C0 63.6437 18.3563 82 41 82Z" fill="#0057FF"/>
<path d="M27.5 33.7855C29.433 33.7855 31 32.2185 31 30.2855C31 28.3525 29.433 26.7855 27.5 26.7855C25.567 26.7855 24 28.3525 24 30.2855C24 32.2185 25.567 33.7855 27.5 33.7855Z" fill="#F5F5F5"/>
<path d="M54.2852 33.7855C56.2182 33.7855 57.7852 32.2185 57.7852 30.2855C57.7852 28.3525 56.2182 26.7855 54.2852 26.7855C52.3522 26.7855 50.7852 28.3525 50.7852 30.2855C50.7852 32.2185 52.3522 33.7855 54.2852 33.7855Z" fill="#F5F5F5"/>
<path d="M15 37C15 45.933 25.1129 59.2193 40.0096 59.2193C55.7133 59.2193 66.1824 47.0402 66.1824 37" stroke="white" stroke-width="5" stroke-linecap="round" stroke-linejoin="round"/>
</g>
<defs>
<clipPath id="clip0_1133_1848">
<rect width="82" height="82" fill="white"/>
</clipPath>
</defs>
</svg>
