<svg width="24" height="24" viewBox="0 0 24 24" fill="none" xmlns="http://www.w3.org/2000/svg">
<path d="M10.9621 0.514494C11.1467 -0.171499 12.8533 -0.171497 13.0379 0.514495C13.7241 3.06313 14.8072 5.91057 16.4483 7.55171C18.0894 9.19285 20.9369 10.2759 23.4855 10.9621C24.1715 11.1467 24.1715 12.8533 23.4855 13.0379C20.9369 13.7241 18.0894 14.8072 16.4483 16.4483C14.8072 18.0894 13.7241 20.9369 13.0379 23.4855C12.8533 24.1715 11.1467 24.1715 10.9621 23.4855C10.2759 20.9369 9.19284 18.0894 7.5517 16.4483C5.91056 14.8072 3.06312 13.7241 0.514494 13.0379C-0.171499 12.8533 -0.171498 11.1467 0.514495 10.9621C3.06312 10.2759 5.91056 9.19285 7.5517 7.55171C9.19284 5.91057 10.2759 3.06312 10.9621 0.514494Z" fill="#0057FF"/>
</svg>
