<svg width="24" height="24" viewBox="0 0 24 24" fill="none" xmlns="http://www.w3.org/2000/svg">
<path d="M17 8C17 10.7614 14.7614 13 12 13C9.23858 13 7 10.7614 7 8C7 5.23858 9.23858 3 12 3C14.7614 3 17 5.23858 17 8Z" fill="#CCD7FF"/>
<path d="M4.5 17.4879C4.5 16.2101 5.6828 15.2529 6.94258 15.4665C8.47939 15.7272 10.4566 16 12 16C13.5434 16 15.5206 15.7272 17.0574 15.4665C18.3172 15.2529 19.5 16.2101 19.5 17.4879V18.3922C19.5 19.3312 18.8469 20.1429 17.9235 20.3132C16.3329 20.6065 13.8536 21 12 21C10.1464 21 7.66713 20.6065 6.07647 20.3132C5.15307 20.1429 4.5 19.3312 4.5 18.3922V17.4879Z" fill="#CCD7FF"/>
<path d="M17 8C17 10.7614 14.7614 13 12 13C9.23858 13 7 10.7614 7 8C7 5.23858 9.23858 3 12 3C14.7614 3 17 5.23858 17 8Z" stroke="#CCD7FF" stroke-width="2"/>
<path d="M4.5 17.4879C4.5 16.2101 5.6828 15.2529 6.94258 15.4665C8.47939 15.7272 10.4566 16 12 16C13.5434 16 15.5206 15.7272 17.0574 15.4665C18.3172 15.2529 19.5 16.2101 19.5 17.4879V18.3922C19.5 19.3312 18.8469 20.1429 17.9235 20.3132C16.3329 20.6065 13.8536 21 12 21C10.1464 21 7.66713 20.6065 6.07647 20.3132C5.15307 20.1429 4.5 19.3312 4.5 18.3922V17.4879Z" stroke="#CCD7FF" stroke-width="2"/>
</svg>
