<svg width="32" height="32" viewBox="0 0 32 32" fill="none" xmlns="http://www.w3.org/2000/svg">
<rect width="32" height="32" rx="6" fill="#CCD7FF"/>
<path d="M7 14H25M11 7V9M21 7V9M10.2 25H21.8C22.9201 25 23.4802 25 23.908 24.782C24.2843 24.5903 24.5903 24.2843 24.782 23.908C25 23.4802 25 22.9201 25 21.8V12.2C25 11.0799 25 10.5198 24.782 10.092C24.5903 9.71569 24.2843 9.40973 23.908 9.21799C23.4802 9 22.9201 9 21.8 9H10.2C9.0799 9 8.51984 9 8.09202 9.21799C7.71569 9.40973 7.40973 9.71569 7.21799 10.092C7 10.5198 7 11.0799 7 12.2V21.8C7 22.9201 7 23.4802 7.21799 23.908C7.40973 24.2843 7.71569 24.5903 8.09202 24.782C8.51984 25 9.07989 25 10.2 25Z" stroke="#1848FF" stroke-width="2" stroke-linecap="round" stroke-linejoin="round"/>
</svg>
