<svg width="24" height="24" viewBox="0 0 24 24" fill="none" xmlns="http://www.w3.org/2000/svg">
<path d="M3 11.5C3 9.84315 4.34315 8.5 6 8.5H18C19.6569 8.5 21 9.84315 21 11.5V17.5C21 19.1569 19.6569 20.5 18 20.5H6C4.34315 20.5 3 19.1569 3 17.5V11.5Z" fill="#CCD7FF"/>
<path d="M7 8.5V5.5C7 4.39543 7.89543 3.5 9 3.5H15C16.1046 3.5 17 4.39543 17 5.5V8.5M6 20.5H18C19.6569 20.5 21 19.1569 21 17.5V11.5C21 9.84315 19.6569 8.5 18 8.5H6C4.34315 8.5 3 9.84315 3 11.5V17.5C3 19.1569 4.34315 20.5 6 20.5Z" stroke="#CCD7FF" stroke-width="2"/>
</svg>
