<svg width="24" height="24" viewBox="0 0 24 24" fill="none" xmlns="http://www.w3.org/2000/svg">
<path d="M12.9179 21.7798C17.4573 19.4685 21 15.6408 21 10.9869C21 6.02356 16.9706 2 12 2C7.02943 2 3 6.02356 3 10.9869C3 15.6408 6.54273 19.4685 11.0821 21.7798C11.6589 22.0734 12.3411 22.0734 12.9179 21.7798Z" fill="#CCD7FF" stroke="#CCD7FF" stroke-width="2" stroke-linecap="round" stroke-linejoin="round"/>
<path d="M15 11C15 12.6569 13.6569 14 12 14C10.3431 14 9 12.6569 9 11C9 9.34315 10.3431 8 12 8C13.6569 8 15 9.34315 15 11Z" fill="#F0F0FF"/>
</svg>
