<svg width="32" height="32" viewBox="0 0 32 32" fill="none" xmlns="http://www.w3.org/2000/svg">
<rect width="32" height="32" rx="6" fill="#CCD7FF"/>
<path d="M18.001 10H14.001M23.0008 21.5V10.5C23.0637 9.37366 22.6784 8.2682 21.9289 7.42505C21.1794 6.5819 20.1268 6.06958 19.0008 6H13.0008C11.8748 6.06958 10.8222 6.5819 10.0727 7.42505C9.32325 8.2682 8.93787 9.37366 9.00079 10.5V21.5C8.93787 22.6263 9.32325 23.7317 10.0727 24.5748C10.8222 25.418 11.8748 25.9303 13.0008 25.9999H19.0008C20.1268 25.9303 21.1794 25.418 21.9289 24.5748C22.6784 23.7317 23.0637 22.6263 23.0008 21.5Z" stroke="#1848FF" stroke-width="2" stroke-linecap="round" stroke-linejoin="round"/>
</svg>
