<svg width="32" height="32" viewBox="0 0 32 32" fill="none" xmlns="http://www.w3.org/2000/svg">
<rect width="32" height="32" rx="6" fill="#CCD7FF"/>
<path d="M21 12C21 14.7614 18.7614 17 16 17C13.2386 17 11 14.7614 11 12C11 9.23858 13.2386 7 16 7C18.7614 7 21 9.23858 21 12Z" stroke="#1848FF" stroke-width="2"/>
<path d="M8.5 21.4879C8.5 20.2101 9.6828 19.2529 10.9426 19.4665C12.4794 19.7272 14.4566 20 16 20C17.5434 20 19.5206 19.7272 21.0574 19.4665C22.3172 19.2529 23.5 20.2101 23.5 21.4879V22.3922C23.5 23.3312 22.8469 24.1429 21.9235 24.3132C20.3329 24.6065 17.8536 25 16 25C14.1464 25 11.6671 24.6065 10.0765 24.3132C9.15307 24.1429 8.5 23.3312 8.5 22.3922V21.4879Z" stroke="#1848FF" stroke-width="2"/>
</svg>
