<svg width="32" height="32" viewBox="0 0 32 32" fill="none" xmlns="http://www.w3.org/2000/svg">
<rect width="32" height="32" rx="6" fill="#CCD7FF"/>
<path d="M19.1921 12.0708C18.7961 11.6748 18.5981 11.4768 18.5239 11.2485C18.4586 11.0476 18.4586 10.8313 18.5239 10.6304C18.5981 10.4021 18.7961 10.2041 19.1921 9.80808L22.0305 6.96971C21.2773 6.62907 20.4411 6.43945 19.5607 6.43945C16.247 6.43945 13.5607 9.12574 13.5607 12.4395C13.5607 12.9305 13.6197 13.4078 13.731 13.8645C13.8501 14.3537 13.9097 14.5983 13.8992 14.7528C13.8881 14.9146 13.864 15.0007 13.7894 15.1446C13.7181 15.2821 13.5816 15.4186 13.3086 15.6917L7.06078 21.9395C6.23235 22.7679 6.23235 24.1111 7.06078 24.9395C7.8892 25.7679 9.23235 25.7679 10.0608 24.9395L16.3085 18.6917C16.5816 18.4186 16.7181 18.2821 16.8556 18.2109C16.9996 18.1363 17.0856 18.1122 17.2474 18.1011C17.4019 18.0905 17.6465 18.1501 18.1356 18.2692C18.5924 18.3805 19.0697 18.4395 19.5607 18.4395C22.8744 18.4395 25.5607 15.7532 25.5607 12.4395C25.5607 11.559 25.3711 10.7229 25.0305 9.96971L22.1921 12.8081C21.7961 13.2041 21.5981 13.4021 21.3697 13.4763C21.1689 13.5416 20.9526 13.5416 20.7517 13.4763C20.5234 13.4021 20.3254 13.2041 19.9294 12.8081L19.1921 12.0708Z" stroke="#1848FF" stroke-width="2" stroke-linecap="round" stroke-linejoin="round"/>
</svg>
