<svg width="2000" height="2000" viewBox="0 0 2000 2000" fill="none" xmlns="http://www.w3.org/2000/svg">
<rect width="2000" height="2000" fill="black"/>
<circle cx="694.111" cy="1143.4" r="40.8442" fill="white"/>
<circle cx="1316.98" cy="1143.4" r="40.8442" fill="white"/>
<mask id="path-3-inside-1_45_37" fill="white">
<path fill-rule="evenodd" clip-rule="evenodd" d="M775.799 1128.08C775.799 1063.23 828.373 1010.65 893.226 1010.65H1117.87C1182.72 1010.65 1235.3 1063.23 1235.3 1128.08C1235.3 1192.93 1182.72 1245.51 1117.87 1245.51H893.226C828.373 1245.51 775.799 1192.93 775.799 1128.08ZM939.175 1128.08C939.175 1147.82 923.175 1163.82 903.437 1163.82C883.699 1163.82 867.698 1147.82 867.698 1128.08C867.698 1108.34 883.699 1092.34 903.437 1092.34C923.175 1092.34 939.175 1108.34 939.175 1128.08ZM1107.66 1163.82C1127.4 1163.82 1143.4 1147.82 1143.4 1128.08C1143.4 1108.34 1127.4 1092.34 1107.66 1092.34C1087.92 1092.34 1071.92 1108.34 1071.92 1128.08C1071.92 1147.82 1087.92 1163.82 1107.66 1163.82Z"/>
</mask>
<path fill-rule="evenodd" clip-rule="evenodd" d="M775.799 1128.08C775.799 1063.23 828.373 1010.65 893.226 1010.65H1117.87C1182.72 1010.65 1235.3 1063.23 1235.3 1128.08C1235.3 1192.93 1182.72 1245.51 1117.87 1245.51H893.226C828.373 1245.51 775.799 1192.93 775.799 1128.08ZM939.175 1128.08C939.175 1147.82 923.175 1163.82 903.437 1163.82C883.699 1163.82 867.698 1147.82 867.698 1128.08C867.698 1108.34 883.699 1092.34 903.437 1092.34C923.175 1092.34 939.175 1108.34 939.175 1128.08ZM1107.66 1163.82C1127.4 1163.82 1143.4 1147.82 1143.4 1128.08C1143.4 1108.34 1127.4 1092.34 1107.66 1092.34C1087.92 1092.34 1071.92 1108.34 1071.92 1128.08C1071.92 1147.82 1087.92 1163.82 1107.66 1163.82Z" fill="white"/>
<path d="M893.226 969.808C805.815 969.808 734.955 1040.67 734.955 1128.08H816.643C816.643 1085.78 850.93 1051.5 893.226 1051.5V969.808ZM1117.87 969.808H893.226V1051.5H1117.87V969.808ZM1276.14 1128.08C1276.14 1040.67 1205.28 969.808 1117.87 969.808V1051.5C1160.16 1051.5 1194.45 1085.78 1194.45 1128.08H1276.14ZM1117.87 1286.35C1205.28 1286.35 1276.14 1215.49 1276.14 1128.08H1194.45C1194.45 1170.37 1160.16 1204.66 1117.87 1204.66V1286.35ZM893.226 1286.35H1117.87V1204.66H893.226V1286.35ZM734.955 1128.08C734.955 1215.49 805.815 1286.35 893.226 1286.35V1204.66C850.93 1204.66 816.643 1170.37 816.643 1128.08H734.955ZM903.437 1204.66C945.732 1204.66 980.02 1170.37 980.02 1128.08H898.331C898.331 1125.26 900.617 1122.97 903.437 1122.97V1204.66ZM826.854 1128.08C826.854 1170.37 861.141 1204.66 903.437 1204.66V1122.97C906.256 1122.97 908.542 1125.26 908.542 1128.08H826.854ZM903.437 1051.5C861.141 1051.5 826.854 1085.78 826.854 1128.08H908.542C908.542 1130.9 906.256 1133.18 903.437 1133.18V1051.5ZM980.02 1128.08C980.02 1085.78 945.732 1051.5 903.437 1051.5V1133.18C900.617 1133.18 898.331 1130.9 898.331 1128.08H980.02ZM1102.55 1128.08C1102.55 1125.26 1104.84 1122.97 1107.66 1122.97V1204.66C1149.95 1204.66 1184.24 1170.37 1184.24 1128.08H1102.55ZM1107.66 1133.18C1104.84 1133.18 1102.55 1130.9 1102.55 1128.08H1184.24C1184.24 1085.78 1149.95 1051.5 1107.66 1051.5V1133.18ZM1112.76 1128.08C1112.76 1130.9 1110.48 1133.18 1107.66 1133.18V1051.5C1065.36 1051.5 1031.07 1085.78 1031.07 1128.08H1112.76ZM1107.66 1122.97C1110.48 1122.97 1112.76 1125.26 1112.76 1128.08H1031.07C1031.07 1170.37 1065.36 1204.66 1107.66 1204.66V1122.97Z" fill="white" mask="url(#path-3-inside-1_45_37)"/>
<path d="M704.321 1061.71C727.933 982.136 801.427 924.111 888.434 924.111H1122.66C1209.67 924.111 1283.16 982.136 1306.77 1061.71M1005.02 923.859V851.715C922.336 798.236 914.703 768.525 909.615 744.756C903.254 715.045 926.362 686.775 947.778 685.334C965.957 684.111 992.302 692.386 1005.02 732.872C1017.74 691.276 1043.19 679.392 1068.63 685.334C1094.07 691.276 1119.51 732.872 1087.71 774.467" stroke="white" stroke-width="36" stroke-linecap="round" stroke-linejoin="round"/>
<path d="M1306.77 1174.03C1283.16 1262.6 1209.67 1327.19 1122.66 1327.19L1005.55 1327.19L888.433 1327.19C801.427 1327.19 704.321 1260.82 704.321 1174.03" stroke="white" stroke-width="36" stroke-linecap="round" stroke-linejoin="round"/>
</svg>
