<svg width="532" height="532" viewBox="0 0 532 532" fill="none" xmlns="http://www.w3.org/2000/svg">
<g clip-path="url(#clip0_1297_980)">
<circle cx="266" cy="266" r="266" fill="#E8EBFF"/>
<path d="M270.759 347.278C318.448 347.278 357.108 308.619 357.108 260.929C357.108 213.24 318.448 174.58 270.759 174.58C223.07 174.58 184.41 213.24 184.41 260.929C184.41 308.619 223.07 347.278 270.759 347.278Z" fill="#FFB6B6"/>
<path d="M199.287 366.614L217.287 320.614L310.287 306.614L320.279 408.44L226.279 410.44L199.287 366.614Z" fill="#FFB6B6"/>
<path d="M357.945 276.861C356.824 281.351 354.559 292.041 351.021 292.094C348.131 292.136 345.365 245.759 348.252 238.088C351.568 229.275 342.853 218.127 336.288 212.405C324.483 202.115 298.281 224.209 271.636 214.201C270.93 213.936 271.071 213.966 262.657 210.609C236.767 200.279 235.407 199.981 233.923 199.834C221.373 198.592 206.056 208.862 199.802 221.384C193.3 234.401 198.732 245.565 192.618 277.056C191.906 280.727 190.787 285.958 189.027 286.035C185.808 286.176 182.666 268.987 181.843 264.485C178.395 245.623 175.071 227.438 181.843 207.017C182.582 204.79 187.135 196.523 196.21 180.079C209.284 156.391 215.86 144.502 217.76 142.366C231.389 127.04 256.196 113.059 277.024 119.02C287.551 122.033 285.664 126.877 298.574 131.591C321.583 139.991 341.579 129.718 345.267 136.978C347.221 140.824 341.755 143.995 341.675 151.345C341.539 163.957 357.489 167.601 366.817 180.079C371.832 186.787 380.415 186.859 357.945 276.861Z" fill="#2F2E41"/>
<path d="M464.919 442.61C461.439 446.521 457.829 450.351 454.089 454.091C403.849 504.33 337.049 532 265.999 532C204.589 532 146.359 511.33 99.2493 473.28C99.2192 473.261 99.1992 473.24 99.1694 473.21C92.9194 468.171 86.8694 462.811 81.0293 457.15C81.1392 456.271 81.2593 455.4 81.3892 454.54C82.2092 448.74 83.1194 443.21 84.1392 438.12C92.4893 396.4 202.359 352.601 205.219 351.46C205.259 351.45 205.279 351.44 205.279 351.44C205.279 351.44 219.419 403.561 280.009 402.891C321.279 402.44 313.279 351.44 313.279 351.44C313.279 351.44 313.779 351.54 314.719 351.74C326.639 354.271 409.399 372.45 442.049 397.261C451.999 404.82 459.139 420.921 464.269 440.12C464.489 440.94 464.699 441.78 464.919 442.61Z" fill="#55AF58"/>
</g>
<defs>
<clipPath id="clip0_1297_980">
<rect width="532" height="532" fill="white"/>
</clipPath>
</defs>
</svg>
