<svg width="532" height="532" viewBox="0 0 532 532" fill="none" xmlns="http://www.w3.org/2000/svg">
<g clip-path="url(#clip0_1297_972)">
<circle cx="266" cy="266" r="266" fill="#E8EBFF"/>
<path d="M379.189 379.05H246.189V199.05L361.189 262.05L379.189 379.05Z" fill="#555462"/>
<path d="M270.759 347.281C318.448 347.281 357.108 308.621 357.108 260.932C357.108 213.243 318.448 174.583 270.759 174.583C223.07 174.583 184.41 213.243 184.41 260.932C184.41 308.621 223.07 347.281 270.759 347.281Z" fill="#FFD8D8"/>
<path d="M221.189 360.05L217.288 320.616L295.189 306.05L341.189 418.05L261.189 510.05L204.189 398.05L221.189 360.05Z" fill="#FFD8D8"/>
<path d="M457.04 451.09C456.07 452.1 455.08 453.1 454.09 454.09C450.95 457.23 447.75 460.28 444.48 463.24C395.48 507.68 332.61 532 266 532C204.59 532 146.36 511.33 99.2499 473.28C99.22 473.26 99.2 473.24 99.1699 473.21C97.7399 472.06 96.33 470.89 94.9199 469.7C95.1699 468.98 95.4399 468.27 95.71 467.57C110.86 428.1 140.78 408.79 158.94 400.34C167.94 396.15 174.05 394.62 174.05 394.62L195.37 356.22L210.38 384.22L221.44 404.86L266.82 489.53L305.97 392.05L318.1 361.83L321.21 354.09L336 365.6L350 376.49L378.19 382.71L401.06 387.76L432.12 394.62C444.68 404.85 452.32 424.31 456.59 448.49C456.75 449.35 456.9 450.22 457.04 451.09Z" fill="#55AF58"/>
<path d="M225.34 162.803C235.858 145.135 255.176 133.013 275.66 131.226C296.144 129.439 317.269 138.034 330.687 153.614C338.683 162.899 343.926 174.269 351.72 183.723C368.492 204.069 397.092 215.965 404.419 241.294C407.616 252.347 406.023 264.147 404.405 275.539C403.019 285.303 401.632 295.067 400.245 304.831C399.166 312.43 398.131 320.441 400.981 327.567C404.323 335.928 412.323 341.404 417.495 348.775C426.296 361.316 425.653 379.678 415.996 391.573C411.808 396.731 406.255 400.622 401.865 405.609C397.474 410.596 394.217 417.414 396.056 423.799C399.579 436.031 418.761 438.964 420.864 451.517C421.94 457.935 417.507 464.345 411.699 467.28C405.89 470.215 399.053 470.3 392.593 469.515C368.039 466.53 345.306 451.188 333.351 429.535C321.397 407.882 320.526 380.469 331.083 358.101C339.753 339.73 355.868 323.496 355.692 303.182C355.597 292.115 350.521 281.778 345.557 271.887C335.398 251.641 325.238 231.395 315.079 211.149C309.637 200.305 303.322 188.618 292.118 183.959C283.459 180.358 273.635 181.755 264.374 183.227C255.113 184.7 245.302 186.134 236.618 182.596C227.933 179.058 221.371 168.546 225.509 160.131" fill="#8A899B"/>
<path d="M240.472 163.726C223.789 158.234 205.075 167.05 193.781 180.5C182.487 193.95 177.008 211.206 171.789 227.976C168.799 237.582 165.81 247.188 162.82 256.794C160.008 265.83 157.196 274.866 154.383 283.902C151.076 294.531 147.741 305.823 150.455 316.618C152.418 324.423 157.468 331.509 157.577 339.556C157.69 347.962 152.426 355.341 147.813 362.369C143.2 369.396 138.87 377.746 141.068 385.86C144.411 398.202 161.57 404.986 160.629 417.737C160.315 421.993 157.854 425.929 157.899 430.197C157.956 435.626 162.206 440.317 167.186 442.48C172.166 444.643 177.768 444.76 183.197 444.665C199.848 444.372 216.469 442.395 232.724 438.772C238.978 437.379 245.338 435.67 250.544 431.934C255.75 428.199 259.633 422.01 258.956 415.638C257.9 405.71 247.225 400.077 241.838 391.67C236.547 383.413 236.669 372.951 234.388 363.412C231.252 350.304 223.507 338.86 217.694 326.7C195.837 280.984 203.488 222.713 236.406 184.189C239.316 180.783 242.496 177.356 243.71 173.044C244.925 168.731 243.359 163.236 239.141 161.728" fill="#8A899B"/>
</g>
<defs>
<clipPath id="clip0_1297_972">
<rect width="532" height="532" fill="white"/>
</clipPath>
</defs>
</svg>
