<svg width="116" height="121" viewBox="0 0 116 121" fill="none" xmlns="http://www.w3.org/2000/svg">
<path d="M86.902 62.133C99.6567 102.238 49.1672 117.09 6.50222 115.944C5.66508 115.921 5.00516 115.228 5.00237 114.389C4.84012 65.531 12.9057 28.5947 60.1867 28.1986C60.6633 28.1946 61.1303 27.9776 61.4268 27.604L78.8944 5.59144C79.4728 4.86259 80.5547 4.79736 81.2162 5.45146L110.19 34.1017C110.796 34.7007 110.812 35.6749 110.226 36.293L87.2495 60.527C86.8499 60.9486 86.7258 61.5791 86.902 62.133Z" fill="#F8F8F8"/>
<path d="M50.4666 61.2125C54.351 61.2125 57.4999 64.5738 57.4999 68.72C57.4999 72.8663 54.351 76.2275 50.4666 76.2275C46.5822 76.2275 43.4333 72.8663 43.4333 68.72C43.4333 64.5738 46.5822 61.2125 50.4666 61.2125Z" fill="#F8F8F8"/>
<path d="M48.1146 25.1669C48.3959 25.0729 48.8446 25.2662 49.1898 25.2301C50.6381 25.0846 51.2284 25.1983 52.5076 25.17C54.4527 25.0787 60.2571 24.5455 60.1703 26.438C60.1522 26.7813 59.6725 27.1614 59.6081 27.551C59.5439 27.9408 59.6285 30.4455 58.9814 30.6003C58.0326 30.8003 55.8276 30.2656 55.2953 30.3366C54.9499 30.3798 54.5441 30.6387 54.1143 30.7156C52.7323 30.9666 52.0063 30.8799 50.8254 31.6598C50.2839 31.4032 49.7409 31.1527 49.1961 30.9085C48.5834 31.1569 47.5183 30.9111 47.1212 31.0136C46.7982 31.0961 46.6595 31.3872 46.3282 31.4684C45.9576 31.561 45.3247 31.4127 44.6686 31.6134C43.5537 31.9543 43.5338 32.6635 42.9086 32.9254C42.2648 33.197 41.1225 33.1624 40.3438 33.6807C40.2617 33.7871 40.1804 33.8936 40.0999 34.0002C40.2304 34.132 40.3603 34.2642 40.4895 34.3968C40.0974 34.6148 39.8044 34.3554 39.4221 34.4896C38.9718 34.6487 38.8735 35.0366 38.5716 35.1543C38.3246 35.2505 37.8928 35.1445 37.5832 35.2933C37.133 35.5095 37.384 35.8129 37.1705 35.9833C37.0784 36.0437 35.4236 37.0562 35.3294 37.1182C34.5971 37.5093 34.2929 37.0902 33.6885 37.3725C32.0071 38.1672 30.6415 39.5718 29.4042 40.7201C28.8511 41.2317 28.2252 41.7037 27.6032 42.1355C27.6552 40.342 24.9432 41.3549 27.0731 42.2268C26.2461 42.5725 26.1927 43.3924 25.5658 43.8869C25.1599 44.2093 24.7019 44.2681 24.2031 44.8224C23.3148 45.8101 23.0588 47.4361 21.6654 46.8345C20.9072 48.2259 19.6916 49.0831 20.471 50.2627C20.3187 50.6344 19.1133 51.0975 18.7854 51.4449C18.4611 51.7454 16.5474 54.5323 16.3088 55.0289C16.0477 55.5129 15.6168 56.3861 15.5296 56.8632C15.417 57.4634 16.5016 58.3345 14.6498 58.6979C14.3087 59.8789 14.1159 60.2615 13.5568 61.2627C13.456 61.4447 13.2281 61.3883 13.1874 61.502C13.104 61.7366 13.1269 62.1936 13.004 62.6236C12.8004 63.3353 12.2124 63.566 12.9511 63.7219C12.9253 64.2129 12.9035 64.7057 12.8857 65.2003C12.6983 65.3191 12.511 65.4392 12.324 65.5608C12.4024 65.8533 12.4821 66.1455 12.5632 66.4374C11.5968 65.8523 11.7339 67.7563 12.491 67.3585C12.0316 68.1848 11.5799 69.0395 11.1415 69.8992C9.96686 69.4804 10.5393 71.8635 11.2397 71.8265C11.2157 71.9305 11.1919 72.0347 11.1681 72.139C10.6471 72.9899 10.7376 73.8814 10.3083 74.9583C9.88037 76.0416 9.78449 75.9186 9.16239 76.1653C9.14686 76.439 9.13081 76.7211 9.11827 76.9882C10.4244 78.6326 7.78988 77.9472 8.61536 80.5647C7.53462 81.1898 7.79086 83.1733 7.93999 84.4903C7.95739 84.6403 8.14592 84.6645 8.18202 84.8656C8.26707 85.3554 7.89447 86.5532 8.50931 86.575C8.28902 86.9802 8.07 87.3886 7.85226 87.7999C7.92963 88.1603 8.00776 88.524 8.08795 88.876C8.27873 88.8914 8.46952 88.9069 8.66031 88.9224C7.94758 89.5546 8.10604 90.6754 7.90862 91.208C7.8687 91.314 7.60344 91.3167 7.50593 91.6497C7.39049 92.0394 7.41518 92.7837 7.30166 93.2415C7.58116 93.4426 7.86092 93.6432 8.14095 93.8434C8.2452 94.6863 7.45759 94.9347 7.36869 95.4263C7.35198 95.5137 7.31897 97.149 7.33249 97.2312C7.42868 97.9494 8.08965 97.7713 7.86283 99.8343C7.82254 100.202 7.58371 100.493 7.56231 100.828C7.52287 101.419 7.98491 103.19 8.45877 103.343C7.84097 104.037 8.04276 105.958 7.86182 106.51C7.80591 106.678 7.42478 106.71 7.33572 107.231C7.26288 107.653 7.5534 108.748 7.49769 109.29C7.43683 109.865 7.11622 110.065 7.09186 110.32C7.06926 110.56 7.32575 110.783 7.32272 111.111C7.30895 112.137 6.89364 113.074 6.8878 113.894C7.188 115.286 6.46557 113.053 6.93433 112.977C7.18773 113.033 7.43426 113.202 7.7018 113.209C10.9402 113.301 14.9831 113.409 18.814 113.392C20.621 113.401 25.3785 114.083 23.9943 112.453C24.6074 112.117 29.5429 112.339 30.485 112.219C31.4321 112.116 32.1425 111.71 32.8802 111.605C35.0983 111.285 36.7308 111.263 39.3564 110.509C40.0345 110.313 40.6982 109.809 41.1022 109.733C41.5891 109.642 42.1841 109.883 42.8093 109.774C44.3094 109.513 46.9824 108.757 48.3366 108.457C48.586 108.403 48.7528 108.682 49.1306 108.681C50.6038 108.679 52.0588 108.207 51.5151 107.331C53.3688 107.368 54.6871 106.394 56.1258 105.852C59.1823 104.744 64.1924 102.782 66.0407 101.284C67.2021 100.359 66.9748 99.9938 68.9299 99.2697C69.3578 99.1087 69.7968 98.9704 70.3052 98.7625C71.4968 98.2763 72.8981 98.2912 73.0351 96.9443C74.2602 96.344 74.8934 95.5764 76.1674 95.5873C76.1162 95.3604 76.0633 95.1344 76.0086 94.9094C76.1199 94.8026 76.2292 94.6964 76.3359 94.5913C76.502 94.7027 76.6687 94.8135 76.8357 94.9239C77.6798 94.2174 78.0525 92.6856 78.6145 92.0594C79.63 91.0079 81.9541 88.3037 82.7729 87.2867C83.2313 86.7523 82.8726 86.529 83.8164 86.5686C83.8339 86.4034 83.8497 86.2387 83.8639 86.0742C83.7378 85.9053 83.6104 85.7379 83.4816 85.5722C83.8466 84.7934 84.5087 83.9492 84.7804 83.1636C85.297 81.7254 85.324 79.4152 85.8498 77.9116C85.9868 77.5351 86.4258 77.0775 86.4553 76.6776C86.4965 76.0951 85.8679 75.9154 85.8841 75.1832C85.9289 73.9418 86.5499 71.3992 86.2992 70.042C86.2314 69.6463 85.9671 69.4917 85.8999 69.2188C85.6119 68.0722 85.4351 67.0909 84.7934 66.0075C85.0761 64.5988 85.8518 64.4806 86.5094 63.8512C87.0064 63.3779 88.0398 61.9614 88.4929 61.6466C88.8143 61.4293 89.394 61.6762 89.7382 61.4064C90.5969 63.0733 90.4401 63.9219 90.1979 65.4217C90.792 67.9315 91.142 70.3531 91.2628 72.6885C91.0484 72.91 90.832 73.1269 90.6136 73.3391C90.6131 73.3392 90.6126 73.3392 90.6121 73.3392C90.3733 74.2131 90.9394 74.5731 91.0598 75.0476C92.4178 79.7104 88.9853 87.8003 86.1207 91.4892C85.5797 92.3403 83.7545 95.1952 82.9718 95.4863C82.7778 95.5639 82.4861 95.3735 82.3444 95.5092C81.3268 96.9497 80.1699 98.3636 78.8575 99.7542C75.5845 101.85 72.2768 104.581 68.2336 106.765C57.6001 112.668 40.7102 117.107 24.9039 118.212C21.8447 118.446 18.2776 118.883 15.5812 118.783C14.4373 118.742 14.014 118.198 12.6171 118.624C12.6022 118.475 12.5874 118.326 12.5727 118.177C11.364 118.367 10.5611 118.706 9.30464 118.729C8.76908 118.738 7.79562 118.737 6.84486 118.715C6.01211 119.099 2.54794 117.059 2.54539 115.884C2.21231 114.764 2.60252 114.657 2.58103 114.234C2.57382 113.492 2.18894 111.914 2.19476 110.9C2.19874 109.987 2.53517 108.418 2.49913 107.708C2.36903 105.155 1.9618 102.344 2.20021 99.5993C2.26644 98.841 2.67198 97.8885 2.67337 97.6533C2.67447 97.1928 2.33104 97.0388 2.30174 96.7282C2.15402 95.1206 2.72355 92.715 2.86214 91.148C3.29621 86.1382 3.75526 80.7315 4.69197 75.7563C5.26172 72.585 6.38487 67.3339 7.49591 64.5536C7.73273 63.9463 8.05249 64.2217 8.20822 63.7046C8.38181 63.1327 8.23182 62.7479 8.29638 62.4757C8.714 60.5923 10.0088 56.4213 11.03 54.8637C11.2223 54.5592 11.6034 54.4515 11.691 54.2596C11.736 54.1628 11.6514 53.8565 11.7771 53.5442C12.8863 50.8119 14.0785 48.9288 15.7535 46.5413C18.942 41.9546 23.3564 36.8664 28.5213 33.8382C29.6369 33.1738 30.7193 33.2503 30.8633 33.16C31.1964 32.9575 31.2166 32.4823 31.883 32.0166C34.1406 30.4372 37.5946 29.4996 39.988 28.5549C41.1187 28.0916 42.681 27.1396 43.8598 26.7524C44.7773 26.434 47.1411 26.1798 47.5273 25.8956C47.7612 25.7187 47.81 25.271 48.1146 25.1669ZM23.4234 45.1914C23.0018 44.6134 22.3681 46.2482 23.0526 46.0143C23.2041 45.9619 23.5305 45.3402 23.4234 45.1914ZM12.2348 114.452C12.2171 114.254 12.1995 114.056 12.1819 113.859C11.9261 113.943 11.67 114.026 11.4136 114.109C11.5567 114.228 11.7001 114.346 11.8439 114.464C11.9742 114.46 12.1045 114.456 12.2348 114.452ZM67.0382 26.9581C66.9939 27.091 66.6752 27.0753 66.568 27.1884C66.1167 27.6606 65.826 27.7377 65.3803 28.1353C65.0346 28.4474 64.5895 29.0895 63.9008 29.6894C62.0795 31.5311 60.0475 30.8508 60.203 29.9592C60.2339 29.621 60.5963 29.2138 60.5598 28.8197C60.525 28.4345 60.1374 25.9396 59.904 25.8652C59.3973 25.9811 60.283 25.9558 60.4843 25.6479C60.5717 25.5061 60.5197 25.2049 60.6195 25.0141C60.9412 24.3988 61.2936 24.2229 61.1904 23.3567C61.5988 23.3671 62.0072 23.3774 62.4156 23.3878C62.4963 23.0425 63.1355 22.9294 63.2381 22.7621C63.3221 22.6248 63.1782 22.391 63.2723 22.2531C63.3768 22.0975 63.7733 22.0459 63.9517 21.7536C64.2451 21.2753 63.7793 20.7792 63.9202 20.4642C64.0663 20.1377 64.688 19.9429 64.7773 19.4492C64.7538 19.3597 64.7303 19.2702 64.7067 19.1808C64.5508 19.1078 64.3949 19.0348 64.239 18.9618C64.3164 18.7389 64.6448 18.8772 64.7769 18.7207C64.9325 18.5367 64.754 18.2382 64.8559 18.1122C64.9396 18.0091 65.2559 18.0303 65.3501 17.8853C65.4885 17.6748 65.1592 17.4836 65.188 17.334C65.2 17.2747 65.6564 16.3651 65.689 16.3192C65.9431 15.9752 66.3701 16.2666 66.6173 16.0276C67.3013 15.3635 67.5781 14.3444 67.9983 13.5615C68.1858 13.2118 68.4625 12.9113 68.7691 12.6576C69.4217 13.9583 71.0699 13.5337 69.1367 12.6476C69.6361 12.4909 69.3903 11.9038 69.7194 11.6407C69.9327 11.4709 70.2713 11.5049 70.5011 11.2031C70.9076 10.6666 70.7275 9.58406 72.0003 10.3469C72.2882 9.5669 73.1315 9.36266 72.2911 8.33235C72.3556 8.12346 73.2861 8.19539 73.5104 8.08174C73.7222 7.97401 75.0264 6.89244 75.2103 6.6921C75.3941 6.49176 75.7059 6.13304 75.7586 5.88327C75.8266 5.57084 74.8962 4.57653 76.4473 5.15517C76.7654 4.56027 76.677 4.68677 77.5162 4.00272C77.7357 3.83193 77.8979 4.00933 77.997 3.92696C78.1942 3.76505 78.4896 3.35973 78.9572 3.17912C79.7451 2.88765 80.2031 3.45517 80.1129 2.69183C80.6869 2.56458 81.323 2.56756 81.9531 2.73012C82.0921 2.95747 82.2028 3.19113 82.2846 3.42403C82.6503 3.47893 83.047 3.65043 83.202 3.58249C82.3334 4.25278 83.4079 4.41293 83.6442 3.76916C83.8072 4.24665 83.9702 4.72413 84.1331 5.20162C83.2194 6.03602 84.738 6.00025 85.1473 5.46004C85.1833 5.49707 85.2194 5.5341 85.2554 5.57113C85.3462 6.12278 85.8305 6.22388 86.0676 6.76838C86.3047 7.31284 86.1833 7.36201 85.9029 7.88408C86.018 7.95216 86.1332 8.02025 86.2483 8.08834C87.8281 7.45904 85.8456 9.29283 87.5151 9.26265C87.0913 10.221 88.106 10.5008 88.7477 10.7177C88.8223 10.743 88.9569 10.6087 89.0652 10.6333C89.3283 10.6953 89.575 11.2829 89.9919 10.8328C90.012 11.1022 90.0322 11.3716 90.0523 11.641C90.2491 11.6789 90.446 11.7167 90.6428 11.7545C90.7768 11.6178 90.9107 11.4811 91.0447 11.3444C90.8245 12.0441 91.3755 12.2364 91.4507 12.5301C91.4652 12.5889 91.2875 12.7845 91.3512 12.9488C91.4248 13.1417 91.7287 13.3324 91.83 13.5485C92.0975 13.4018 92.3651 13.255 92.6327 13.1083C93.029 13.2771 92.5863 13.925 92.7113 14.133C92.7341 14.1702 93.3224 14.6739 93.3636 14.6914C93.6977 14.8381 94.0915 14.3026 94.6933 15.0957C94.8001 15.2372 94.7411 15.4988 94.8474 15.6169C95.0351 15.8256 95.9984 16.0523 96.3809 15.7599C96.2029 16.4233 97.021 16.8892 97.0902 17.2001C97.1104 17.2947 96.8561 17.5779 96.9759 17.8101C97.0727 17.9987 97.6556 18.147 97.8015 18.3628C97.9553 18.5929 97.7996 18.8881 97.8701 18.9896C97.937 19.0853 98.1935 18.9764 98.3037 19.0874C98.6446 19.4372 98.6673 20.0432 98.9364 20.32C99.3248 20.721 100.212 20.5249 100.783 20.6123C100.83 20.729 100.796 20.9256 100.881 21.0121C101.934 22.0863 103.041 23.3788 103.998 24.5553C104.443 25.1009 104.952 27.0618 105.838 25.5056C106.223 25.4614 106.991 27.2008 107.223 27.4449C107.455 27.6888 107.863 27.6558 108.054 27.8385C108.631 28.3899 108.873 28.9438 109.753 29.4347C109.981 29.5609 110.431 29.4887 110.533 29.5962C110.656 29.7263 110.544 30.1143 110.693 30.2933C111.05 30.718 111.864 31.359 112.198 31.7754C112.273 31.8674 112 32.0323 112.137 32.3105C112.95 33.6752 112.938 35.1108 113.928 34.7778C113.667 36.8665 112.315 38.7922 112.161 39.0102C111.277 40.0371 109.411 41.6668 108.903 42.8106C108.583 43.5319 108.92 43.8254 107.887 44.3547C107.658 44.4723 107.408 44.5686 107.131 44.7124C106.482 45.0487 105.447 44.941 105.806 46.0073C105.091 46.3868 104.803 46.9561 103.794 46.7843C103.896 46.9734 103.998 47.1624 104.1 47.3514C104.038 47.4232 103.977 47.4949 103.916 47.5667C103.755 47.4541 103.594 47.3416 103.432 47.2291C102.931 47.6822 102.922 48.8528 102.526 49.2628C101.861 49.9508 99.9403 51.525 99.1258 52.0027C98.6933 52.2563 98.9778 52.5617 98.1667 52.1726C98.1358 52.2918 98.1049 52.4109 98.074 52.5301C98.1637 52.708 98.2534 52.8859 98.3431 53.0638C97.9235 53.5173 97.2079 53.8487 96.8052 54.2779C96.0716 55.0603 95.338 56.5841 94.3511 57.1325C94.1032 57.2696 93.5904 57.2486 93.4116 57.4435C93.1512 57.7269 93.5524 58.2363 93.2251 58.599C92.6601 59.2233 91.0405 59.848 90.5344 60.4646C90.3838 60.6475 90.4812 60.8918 90.3875 61.0277C90.0399 61.5525 89.4095 62.1943 89.5431 62.5824C89.4851 61.5834 88.4614 61.5961 87.7031 61.5116C87.0738 61.4023 85.726 62.2367 85.3114 62.6203C84.9904 62.8483 84.4058 62.5406 84.0568 62.8159C83.1366 60.6826 84.7484 58.8291 85.7338 58.7619C86.588 57.8276 87.4422 56.8933 88.2963 55.959C88.5377 56.0292 88.7791 56.0994 89.0205 56.1696C89.0209 56.1699 89.0212 56.1703 89.0216 56.1706C89.5432 55.9953 89.2673 55.4499 89.3528 55.1697C90.1718 52.4879 94.2808 49.577 96.284 47.669C96.7154 47.2576 97.8293 45.6449 98.3738 45.5982C98.5151 45.5865 98.7854 45.8022 98.8737 45.7309C99.4167 44.8603 99.9597 43.9898 100.503 43.1192C102.314 41.9874 103.463 40.1322 104.837 38.5637C105.765 37.5028 106.69 36.4424 107.614 35.3865C108.158 34.8027 108.289 34.4501 108.067 35.069C107.877 35.4554 108.657 36.3343 107.865 35.5562C105.819 33.6536 103.808 31.732 101.866 29.7537C101.116 28.9887 99.9678 28.2163 99.339 27.3605C99.0763 27.0036 99.3356 26.4819 98.6368 26.3708C98.7373 26.2605 98.8378 26.1503 98.9384 26.04C98.455 25.8152 97.9884 25.8309 97.5641 25.4598C97.2071 25.1469 96.3002 24.2813 96.0425 23.9464C95.9082 23.7734 96.1616 23.6322 96.0166 23.4909C95.767 23.2503 94.9696 23.0035 94.6295 22.6672C94.3214 22.3625 94.0276 21.6208 93.7581 21.4196C92.789 20.6934 91.5254 20.1129 90.7059 19.1233C90.4802 18.8494 90.4112 18.2731 90.3254 18.2025C90.1571 18.0656 89.8646 18.2698 89.7297 18.1999C89.0453 17.8437 88.5214 16.7393 88.0193 16.2195C86.3832 14.5258 84.502 12.881 82.8805 11.1869C81.8813 10.1425 79.9543 8.32111 79.352 7.35816C79.6161 7.50545 79.7457 7.10997 79.8459 7.16494C79.9462 7.21025 79.9731 7.47458 80.0543 7.50258C80.1536 7.79811 81.4776 6.75534 80.8188 7.56064C80.4198 8.14517 79.9843 8.69278 79.6198 8.93864C79.4806 9.03206 79.1727 8.93557 79.1141 9.01115C79.084 9.04906 79.1771 9.26247 79.0991 9.39454C78.4109 10.561 77.709 11.2526 76.8367 12.2385C75.1673 14.1275 73.6537 16.6502 71.8477 18.5931C71.4543 19.0165 70.742 18.9557 70.6963 19.0229C70.5952 19.1697 70.8384 19.5079 70.6921 19.8515C70.2026 20.9917 68.8653 21.9891 68.3148 23.006C68.0426 23.5083 67.9605 24.4301 67.7045 24.9338C67.5001 25.3361 66.6946 26.0302 66.7477 26.3226C66.7792 26.4999 67.0844 26.8125 67.0382 26.9581ZM71.0143 11.0946C71.5081 11.587 71.5717 10.5805 71.0872 10.5926C70.9781 10.5953 70.886 10.9668 71.0143 11.0946ZM101.459 23.2896C101.593 23.1435 101.726 22.9975 101.86 22.8514C101.725 22.8335 101.59 22.8157 101.455 22.7978C101.414 22.9254 101.374 23.0529 101.334 23.1805C101.376 23.2169 101.417 23.2532 101.459 23.2896ZM84.366 68.374C84.2965 68.2608 84.5186 68.0393 84.5032 67.8901C84.4411 67.27 84.5608 66.9782 84.5348 66.4159C84.516 65.5815 83.4513 63.1989 85.2243 62.6673C85.5544 62.5719 85.9815 62.68 86.3625 62.598C86.7436 62.5158 89.1302 61.7422 89.3682 62.0387C89.6991 62.4764 89.4012 63.8045 89.4907 64.0457C89.5549 64.2136 89.8303 64.3703 89.9245 64.5824C90.2254 65.2612 90.1504 65.6864 90.898 66.2417C90.6343 66.5801 90.3666 66.9116 90.0949 67.2359C90.3089 67.5556 89.9724 68.1484 90.0278 68.3493C90.0738 68.5153 90.3442 68.5756 90.3823 68.7511C90.4263 68.9475 90.1939 69.2897 90.2828 69.6633C90.425 70.2693 91.1033 70.3074 91.2255 70.6741C91.3515 71.0555 91.0344 71.6794 91.2975 72.1502C91.3749 72.2071 91.4522 72.2643 91.5293 72.3218C91.6943 72.2692 91.8592 72.2161 92.024 72.1623C92.1154 72.4084 91.7774 72.5317 91.7804 72.7584C91.7837 73.0377 92.1127 73.1706 92.1156 73.3599C92.1177 73.5149 91.8603 73.7273 91.878 73.9247C91.9021 74.2128 92.2782 74.1493 92.3484 74.3064C92.3794 74.3689 92.5627 75.5269 92.5593 75.5919C92.5533 76.088 92.0355 76.0936 91.9655 76.4862C91.7706 77.5794 92.0533 78.7346 92.0428 79.7632C92.0383 80.2248 91.9184 80.7036 91.7437 81.1345C90.5956 80.1775 89.2708 81.47 91.4103 81.3467C91.0156 81.7741 91.4743 82.2485 91.2614 82.6903C91.1226 82.9743 90.7921 83.1005 90.6743 83.5279C90.4709 84.2777 90.9495 85.3715 89.4896 85.0793C89.427 86.0173 88.632 86.5211 89.6899 87.3435C89.6667 87.5982 88.7105 87.8305 88.5036 88.0166C88.3161 88.2072 87.1367 89.7041 86.9594 89.9483C86.7913 90.2032 86.4995 90.648 86.4599 90.9261C86.4127 91.2681 87.4102 92.2135 85.779 91.8217C85.515 92.4419 85.3382 92.6136 84.8276 93.0025C84.7348 93.0728 84.5394 92.9436 84.5007 92.9953C84.4215 93.102 84.423 93.3877 84.2932 93.5905C84.0791 93.9244 83.5531 93.7922 84.1683 94.2264C84.1026 94.511 84.0386 94.789 83.9677 95.0711C83.7976 95.0488 83.6278 95.0255 83.4585 95.0012C83.49 95.2088 83.5196 95.4174 83.5475 95.6268C82.8327 94.7937 82.674 95.9459 83.3499 96.123C82.8422 96.3561 82.3302 96.5787 81.8197 96.7858C80.9786 95.8818 80.9612 97.4573 81.4958 97.8696C81.4541 97.9095 81.4123 97.9494 81.3705 97.9892C80.7808 98.1079 80.6312 98.6222 80.0255 98.8771C79.4204 99.1287 79.3829 98.9968 78.8712 98.6912C78.7882 98.8078 78.7044 98.9243 78.6198 99.0405C79.067 100.708 77.4422 98.5618 77.212 100.281C76.2832 99.7705 75.8333 100.766 75.4755 101.392C75.4342 101.465 75.545 101.619 75.4966 101.727C75.3771 101.989 74.7126 102.158 75.081 102.648C74.7957 102.631 74.511 102.612 74.2269 102.59C74.1396 102.785 74.047 102.981 73.9597 103.173C74.0665 103.332 74.1734 103.491 74.2802 103.65C73.6168 103.308 73.2782 103.826 72.9551 103.846C72.8908 103.849 72.7392 103.633 72.5542 103.664C72.3374 103.7 72.057 103.966 71.8066 104.022C71.8783 104.321 71.9487 104.62 72.0176 104.92C71.7205 105.284 71.1926 104.698 70.9411 104.776C70.8966 104.791 70.2087 105.25 70.1767 105.286C69.9213 105.578 70.337 106.106 69.3226 106.496C69.1414 106.564 68.8976 106.436 68.7403 106.509C68.4631 106.638 67.8794 107.517 68.03 107.974C67.4331 107.609 66.6559 108.26 66.316 108.229C66.2136 108.219 66.0327 107.885 65.7547 107.926C65.5298 107.959 65.145 108.473 64.8686 108.541C64.5737 108.614 64.3542 108.362 64.2259 108.394C64.1058 108.425 64.1069 108.706 63.9528 108.772C63.4696 108.975 62.87 108.779 62.4856 108.932C61.9298 109.151 61.7213 110.059 61.3719 110.562C61.2381 110.562 61.0646 110.454 60.9428 110.5C59.4359 111.065 57.6436 111.557 56.0683 111.903C55.3319 112.072 53.2373 111.634 54.2231 113.139C54.0587 113.51 52.0452 113.378 51.6939 113.462C51.3436 113.55 51.1495 113.925 50.8748 114.005C50.0412 114.246 49.4163 114.18 48.4711 114.696C48.2274 114.83 48.0342 115.256 47.8772 115.29C47.6881 115.33 47.4027 115.033 47.1547 115.069C46.5612 115.159 45.5159 115.518 44.9481 115.579C44.8443 115.59 44.7421 115.293 44.577 115.229C43.9344 114.979 43.311 115.143 43.6257 116.094C42.7837 115.692 42.2133 116.332 41.5477 116.492C40.1384 116.834 37.4919 117.051 36.3095 117.651C35.5615 118.032 35.6445 118.473 34.4221 118.258C34.1502 118.21 33.8795 118.131 33.5532 118.072C32.7873 117.933 32.0169 117.199 31.5788 118.254C30.7329 118.098 30.0994 118.353 29.4061 117.574C29.3573 117.784 29.3082 117.995 29.2588 118.205C29.1596 118.221 29.0603 118.236 28.961 118.252C28.9094 118.062 28.858 117.872 28.8066 117.682C28.0899 117.705 27.2602 118.588 26.6509 118.638C25.6299 118.727 22.9848 118.618 22.0057 118.413C21.486 118.306 21.4825 118.723 21.1398 117.886C21.0292 117.952 20.9184 118.018 20.8076 118.084C20.7467 118.275 20.6856 118.466 20.6242 118.657C19.9669 118.701 19.1737 118.449 18.5495 118.478C17.4148 118.535 15.7102 119.105 14.5576 118.788C14.2686 118.708 13.904 118.328 13.6243 118.336C13.2174 118.348 13.1255 118.991 12.6036 119.008C11.7023 119.037 10.0374 118.289 9.19817 118.336C8.9489 118.349 8.82655 118.587 8.65231 118.61C7.92029 118.709 7.32331 118.677 6.61563 119.028C5.88227 118.394 5.97257 117.601 5.76774 116.794C5.6119 116.185 5.13259 114.767 5.07836 114.235C5.03972 113.861 5.25045 113.39 5.1922 112.978C6.06648 112.682 6.41617 113.051 7.10985 113.644C8.41835 113.652 9.7264 113.644 11.0311 113.622C11.1499 113.845 11.2692 114.068 11.3891 114.292C11.3891 114.292 11.3891 114.293 11.3891 114.293C11.8941 114.55 12.1057 113.973 12.3759 113.84C14.9525 112.584 20.0464 113.374 22.9116 113.297C23.5283 113.286 25.4925 112.824 25.9454 113.145C26.0627 113.229 26.1242 113.57 26.2417 113.574C27.2605 113.275 28.2733 112.966 29.2791 112.648C31.4646 112.943 33.5994 112.214 35.7056 111.802C41.4104 110.685 46.9374 109.198 52.3566 107.631C53.416 107.326 54.6509 106.653 55.7002 106.464C56.1366 106.386 56.5077 106.843 56.9203 106.256C56.9768 106.394 57.0333 106.532 57.0899 106.67C57.513 106.325 57.7009 105.894 58.2201 105.66C58.6571 105.466 59.8265 104.979 60.2436 104.867C60.4586 104.809 60.489 105.098 60.679 105.018C61.0047 104.878 61.5424 104.231 61.9788 104.038C62.3722 103.865 63.1826 103.849 63.4704 103.663C64.5109 102.997 65.4481 102 66.6406 101.503C66.9685 101.368 67.5393 101.465 67.631 101.402C67.8091 101.278 67.6923 100.941 67.7946 100.831C68.3069 100.281 69.5139 100.046 70.1266 99.6762C72.1137 98.4898 74.0428 96.8904 75.7864 95.4464C76.9159 94.5318 78.5436 92.8037 79.5893 91.9619C79.8167 91.7826 80.0619 92.0879 80.2164 91.9026C80.3873 91.6964 80.2754 91.4211 80.3364 91.3117C80.7806 90.5433 81.6355 88.8825 82.2737 88.3338C82.3975 88.2311 82.7127 88.2925 82.7597 88.2124C82.784 88.1722 82.6623 87.9761 82.7181 87.8401C83.2052 86.638 83.7266 85.8718 84.2891 84.7437C85.3669 82.583 85.7182 79.7595 86.1811 77.3068C86.2856 76.7652 86.9061 76.4225 86.9063 76.3403C86.9069 76.1627 86.5158 76.0213 86.4346 75.6771C86.1734 74.5416 86.5734 72.9391 86.2868 71.8696C86.1491 71.3339 85.5667 70.639 85.3846 70.1186C85.2427 69.697 85.2878 68.7124 85.0319 68.5602C84.8793 68.4713 84.4436 68.4965 84.366 68.374ZM90.2181 83.8789C89.5858 83.5867 89.8422 84.6597 90.3059 84.4394C90.4115 84.3886 90.3835 83.9544 90.2181 83.8789ZM58.5001 110.124C58.5754 110.307 58.6507 110.49 58.726 110.674C58.8077 110.556 58.8889 110.439 58.9697 110.321C58.8672 110.232 58.7649 110.143 58.6628 110.054C58.6086 110.077 58.5544 110.101 58.5001 110.124ZM54.0247 24.4659C54.1708 24.4062 54.4023 24.6487 54.5803 24.6496C55.3275 24.6567 55.6214 24.8197 56.2689 24.8873C57.2314 24.9776 60.2129 24.5672 60.1711 26.438C60.1634 26.7814 59.9207 27.1586 59.8893 27.5473C59.858 27.9363 59.912 30.443 59.5812 30.5889C59.1 30.7802 57.9375 30.1708 57.6851 30.2104C57.5126 30.2366 57.3099 30.473 57.0932 30.5234C56.3941 30.6864 56.0298 30.5403 55.4141 31.2017C55.1331 30.8935 54.8502 30.5869 54.5654 30.2817C54.239 30.4585 53.6939 30.074 53.4922 30.1167C53.3271 30.1516 53.2543 30.4178 53.0835 30.4466C52.8923 30.4804 52.5675 30.2334 52.2237 30.3136C51.6665 30.4439 51.6226 31.1285 51.2877 31.2564C50.9373 31.3895 50.3275 31.1026 49.9087 31.4045C49.8628 31.4861 49.8172 31.5678 49.7718 31.6496C49.8372 31.8091 49.9023 31.9687 49.9672 32.1284C49.7539 32.239 49.6057 31.9146 49.3984 31.9409C49.1546 31.9718 49.0845 32.3132 48.9237 32.3384C48.7919 32.3588 48.5696 32.1319 48.4022 32.1778C48.1584 32.2435 48.2729 32.606 48.1491 32.6999C48.0964 32.7354 47.1315 33.1315 47.0788 33.1472C46.6574 33.2479 46.5152 32.7514 46.1671 32.7802C45.2081 32.862 44.3436 33.5037 43.5342 33.8893C43.1734 34.0612 42.7756 34.1442 42.3821 34.1763C42.5967 32.734 40.9807 32.1494 42.0758 33.9747C41.5789 33.8197 41.4476 34.4468 41.024 34.4881C40.7497 34.5148 40.48 34.3035 40.1206 34.438C39.4787 34.6797 39.1029 35.6984 38.3844 34.4008C37.7331 34.9355 36.8693 34.7303 37.1363 36.0326C36.9849 36.1857 36.1922 35.6969 35.9387 35.7008C35.7066 35.6922 34.029 36.1432 33.7794 36.2644C33.5261 36.3778 33.0932 36.5939 32.9496 36.8076C32.7632 37.0768 33.2868 38.328 32.0291 37.2474C31.5747 37.6728 31.3724 37.7478 30.8002 37.902C30.6969 37.9301 30.5586 37.7414 30.5084 37.7742C30.4053 37.8424 30.3271 38.1021 30.1587 38.2425C29.8828 38.4724 29.4309 38.1903 29.8956 38.7819C29.7731 39.0217 29.6543 39.2617 29.539 39.5019C29.387 39.4333 29.2344 39.3655 29.0812 39.2985C29.0733 39.5009 29.0672 39.7029 29.0627 39.9044C28.5247 38.9464 28.2053 40.0005 28.8169 40.3169C28.3225 40.4154 27.831 40.5218 27.3321 40.6451C26.5877 39.6532 26.4634 41.1982 26.9819 41.6408C26.9423 41.6742 26.9027 41.7077 26.8632 41.7413C26.3042 41.7974 26.1752 42.2779 25.6215 42.5003C25.0663 42.7268 25.0209 42.607 24.4985 42.323C24.4257 42.4405 24.3536 42.5583 24.2823 42.6764C24.9084 44.2639 23.0411 42.2996 23.0949 44.008C22.108 43.6351 21.8511 44.7089 21.6826 45.3842C21.6625 45.463 21.8085 45.5846 21.7922 45.6971C21.7505 45.9691 21.181 46.2941 21.6769 46.6565C21.4085 46.7111 21.1405 46.7677 20.8724 46.8269C20.8573 47.0307 20.8438 47.2343 20.8316 47.4376C20.9858 47.551 21.14 47.6645 21.2941 47.7779C20.5673 47.6613 20.4524 48.2501 20.1725 48.3783C20.1161 48.4037 19.8932 48.2612 19.7387 48.3571C19.5569 48.4686 19.4156 48.8136 19.2173 48.9621C19.4105 49.1993 19.6047 49.4354 19.8001 49.6702C19.7101 50.0949 18.985 49.7965 18.8033 49.9697C18.77 50.0001 18.3941 50.7077 18.3868 50.754C18.3159 51.1245 18.9239 51.3751 18.2967 52.1754C18.186 52.3168 17.9167 52.3301 17.8291 52.4672C17.6719 52.7091 17.7125 53.7172 18.1043 53.9991C17.4143 54.0212 17.2016 54.9738 16.9307 55.1366C16.8469 55.1867 16.4974 55.0347 16.3127 55.2289C16.1621 55.3864 16.207 55.9996 16.0504 56.2172C15.8823 56.4476 15.5502 56.4069 15.4771 56.5131C15.4084 56.6137 15.598 56.8203 15.5302 56.9684C15.314 57.431 14.753 57.686 14.5906 58.0533C14.3547 58.585 14.8703 59.3492 15.0107 59.9211C14.921 60.0147 14.7255 60.0658 14.6787 60.1835C14.0979 61.6233 13.3883 63.2602 12.7757 64.6975C12.4871 65.3608 10.9872 66.8563 12.7858 66.8504C13.0026 67.1829 11.8612 68.7592 11.7671 69.1078C11.6711 69.4477 11.9055 69.7941 11.8448 70.0655C11.6605 70.8918 11.3147 71.3966 11.3632 72.4496C11.3768 72.7213 11.6783 73.0725 11.6424 73.2238C11.5984 73.406 11.2096 73.5327 11.1389 73.7686C10.9707 74.3386 10.8868 75.399 10.7273 75.9379C10.6973 76.0356 10.384 76.0151 10.2623 76.1415C9.78666 76.6337 9.71142 77.2765 10.7123 77.3307C10.0314 77.963 10.4357 78.6974 10.365 79.3652C10.2082 80.7789 9.63729 83.322 9.91277 84.6119C10.0852 85.4238 10.5288 85.4603 10.0255 86.5534C9.91412 86.7973 9.77353 87.038 9.64125 87.3367C9.33039 88.0355 8.44622 88.6349 9.38692 89.283C9.05741 90.0811 9.18902 90.7194 8.2941 91.2578C8.4919 91.3446 8.68975 91.4312 8.88764 91.5177C8.88505 91.6174 8.88252 91.7172 8.88005 91.817C8.68377 91.8335 8.48748 91.85 8.29119 91.8666C8.18523 92.5763 8.91931 93.5556 8.87561 94.1496C8.7993 95.1432 8.34734 97.7693 8.04596 98.7081C7.88417 99.2115 8.29949 99.2564 7.43169 99.5138C7.48647 99.6308 7.54133 99.7478 7.59625 99.8649C7.78073 99.9442 7.96523 100.023 8.14978 100.102C8.13137 100.759 7.81268 101.533 7.79567 102.167C7.76469 103.308 8.23817 105.027 7.87854 106.179C7.78767 106.467 7.39483 106.825 7.39482 107.105C7.39449 107.513 8.03454 107.622 8.03979 108.141C8.04708 109.033 7.28853 110.717 7.34332 111.567C7.35897 111.819 7.59744 111.937 7.62256 112.11C7.73056 112.839 7.71143 113.439 8.08226 114.141C7.46968 114.898 6.67619 114.837 5.87636 115.076C5.27269 115.257 3.87518 115.816 3.34639 115.899C2.97483 115.956 2.49505 115.753 2.08617 115.833C1.75348 114.914 2.1121 114.526 2.68638 113.782C2.66083 112.412 2.64173 111.051 2.6303 109.671C2.85481 109.547 3.07938 109.424 3.30401 109.302C3.3045 109.302 3.30499 109.302 3.30547 109.302C3.56837 108.778 2.99561 108.55 2.86839 108.265C1.64203 105.547 2.76813 100.164 3.06784 97.1928C3.128 96.5418 2.94727 94.4225 3.33927 94.0074C3.44081 93.8994 3.78671 93.8898 3.80945 93.77C3.67502 92.6689 3.54995 91.5501 3.43253 90.4488C4.14422 88.2651 3.92687 85.9168 4.11544 83.6233C4.61834 77.4905 5.40929 71.3691 7.14007 65.4549C7.47808 64.298 7.66314 62.7941 8.19104 61.7243C8.41121 61.2769 8.99883 61.2626 8.81831 60.5228C8.96136 60.5654 9.10439 60.6079 9.24742 60.6506C9.26024 60.0669 9.0607 59.6165 9.24447 59.0199C9.39691 58.5172 9.89367 57.1845 10.1259 56.7768C10.2445 56.5629 10.4676 56.7528 10.5526 56.5445C10.695 56.1883 10.6661 55.2782 10.8904 54.78C11.0907 54.3304 11.7288 53.7218 11.8487 53.3676C12.2742 52.0997 12.5542 50.5339 13.3864 49.3453C13.6169 49.0161 14.1956 48.7506 14.2512 48.6392C14.3599 48.4181 14.0986 48.1731 14.1471 48.0077C14.3942 47.1645 15.4607 46.2959 15.9507 45.6274C17.5287 43.4529 19.2478 41.1418 21.2144 39.2793C22.4375 38.0925 24.562 36.1866 25.9879 35.4719C26.2938 35.3151 26.4494 35.6783 26.6769 35.5119C26.9294 35.328 26.9176 35.0184 27.0261 34.9159C27.7539 34.2056 29.5409 32.7631 30.5045 32.5338C30.6875 32.4881 30.9494 32.6866 31.043 32.6331C31.0906 32.6065 31.0989 32.3666 31.2406 32.265C32.4975 31.3692 33.5635 30.9836 34.9554 30.4495C37.6529 29.4119 40.6163 28.0314 43.6162 27.5255C44.2464 27.4198 44.8056 27.9078 44.8907 27.8827C45.0798 27.8289 45.1174 27.4099 45.4929 27.2303C46.7595 26.631 48.5958 26.7533 49.83 26.3831C50.4366 26.1983 51.2723 25.5835 51.8568 25.4079C52.332 25.2637 53.5134 25.3548 53.7163 25.1155C53.8391 24.9699 53.8664 24.5328 54.0247 24.4659ZM39.6233 34.2608C39.4606 33.5815 38.8723 34.4143 39.2973 34.6527C39.3918 34.7064 39.6647 34.4369 39.6233 34.2608ZM12.818 61.7335C13.0074 61.7913 13.1969 61.8492 13.3863 61.9072C13.346 61.7729 13.3061 61.6384 13.2666 61.5038C13.1331 61.5241 12.9996 61.5448 12.866 61.5658C12.8499 61.6216 12.8339 61.6776 12.818 61.7335ZM40.0172 73.5736C40.03 73.4909 40.2844 73.6003 40.3503 73.5513C40.6283 73.3477 40.8451 73.3813 41.1311 73.2302C41.5595 73.0041 42.257 71.771 43.5836 73.0789C43.8282 73.3199 44.0195 73.6621 44.2881 73.943C44.5568 74.224 46.3767 75.9494 46.3656 76.1647C46.3361 76.4641 45.4791 76.4292 45.4124 76.5401C45.3669 76.616 45.4581 76.8504 45.411 76.958C45.2592 77.3051 45.0101 77.3242 45.2356 77.984C44.9113 77.8509 44.5869 77.7177 44.2626 77.5845C44.2562 77.81 43.77 77.6954 43.7169 77.7851C43.6733 77.8588 43.8259 78.0726 43.7744 78.1436C43.7178 78.2243 43.4131 78.1397 43.3208 78.2967C43.1686 78.5533 43.619 79.0562 43.5601 79.2413C43.499 79.433 43.0403 79.383 43.0518 79.7135C43.0852 79.7856 43.1187 79.8577 43.1522 79.9298C43.2875 80.0307 43.4228 80.1316 43.558 80.2324C43.534 80.3703 43.2515 80.1689 43.1732 80.2418C43.0809 80.3273 43.2716 80.5987 43.212 80.6587C43.163 80.7076 42.9096 80.5949 42.8593 80.6711C42.785 80.7812 43.0769 81.0211 43.0791 81.1207C43.0794 81.16 42.8701 81.6791 42.852 81.7023C42.7085 81.8736 42.3227 81.5309 42.1672 81.6281C41.7373 81.8991 41.6881 82.5529 41.4863 82.9912C41.3963 83.187 41.2277 83.3198 41.0276 83.4094C40.2958 82.2655 39.0644 82.0662 40.7389 83.3035C40.3705 83.2635 40.6622 83.7648 40.446 83.8543C40.3058 83.9118 40.0327 83.783 39.9012 83.931C39.6694 84.195 39.9916 85.0352 38.8593 84.0905C38.7616 84.5675 38.1294 84.4561 38.9646 85.4617C38.9484 85.5933 38.2013 85.2549 38.043 85.2682C37.8936 85.2812 37.0432 85.6641 36.9312 85.7527C36.8193 85.8414 36.6327 86.0056 36.6326 86.1705C36.6308 86.3761 37.5312 87.3832 36.2096 86.4864C36.0873 86.7984 35.9783 86.8469 35.6469 86.9285C35.5869 86.9433 35.414 86.7858 35.3927 86.8077C35.3493 86.853 35.4002 87.0497 35.3379 87.1452C35.2353 87.3022 34.8072 87.0379 35.3641 87.5428C35.371 87.7177 35.3779 87.8926 35.3849 88.0675C35.2506 87.998 35.1164 87.9284 34.9822 87.8589C35.0514 88.0151 35.1206 88.1714 35.1898 88.3276C34.4573 87.5204 34.6044 88.2945 35.1577 88.6188C34.8323 88.6333 34.5069 88.6479 34.1815 88.6624C33.3118 87.7839 33.7208 88.9373 34.238 89.3686C34.2187 89.3874 34.1993 89.4062 34.18 89.425C33.7796 89.3682 33.8237 89.7105 33.4655 89.7657C33.1073 89.8209 33.0391 89.7182 32.5681 89.3882C32.5448 89.4596 32.5215 89.531 32.4982 89.6024C33.3779 90.9367 31.4729 89.0252 31.9155 90.2912C31.0739 89.7541 31.1141 90.4558 31.1089 90.8906C31.1082 90.9411 31.2451 91.0731 31.2533 91.1492C31.2719 91.3336 30.8831 91.3863 31.3331 91.8028C31.1315 91.7569 30.9299 91.7109 30.7282 91.6649C30.7487 91.8048 30.7691 91.9447 30.7895 92.0845C30.928 92.2166 31.0666 92.3487 31.2051 92.4807C30.613 92.1558 30.6039 92.5278 30.3975 92.5178C30.356 92.5154 30.1613 92.337 30.0513 92.3477C29.9217 92.3594 29.8518 92.5454 29.7114 92.5727C29.8912 92.8078 30.071 93.0429 30.2508 93.278C30.2209 93.5386 29.6126 93.0576 29.4844 93.1047C29.4616 93.1134 29.223 93.4428 29.2198 93.4699C29.1913 93.6886 29.701 94.1072 29.2437 94.381C29.162 94.4295 28.9465 94.3255 28.8826 94.3789C28.7696 94.4731 28.8377 95.1482 29.1582 95.5031C28.6045 95.2182 28.4526 95.7295 28.2314 95.7111C28.1639 95.7049 27.8828 95.4487 27.7347 95.4864C27.6144 95.5166 27.647 95.9226 27.5181 95.9836C27.3802 96.0474 27.1146 95.8629 27.0544 95.8931C26.9978 95.9218 27.1459 96.14 27.0883 96.1979C26.9056 96.3756 26.4464 96.2551 26.3016 96.3952C26.0916 96.5972 26.465 97.311 26.5412 97.7214C26.4637 97.7308 26.3042 97.6604 26.2593 97.7051C25.6995 98.2548 24.986 98.7964 24.3239 99.2514C24.0171 99.4631 22.6407 99.4022 24.057 100.423C24.1879 100.724 23.0462 100.908 22.9172 101.028C22.7884 101.147 22.9161 101.462 22.824 101.565C22.5458 101.875 22.1818 101.932 22.0263 102.485C21.9868 102.628 22.1551 102.983 22.0984 103.036C22.0295 103.099 21.7035 102.926 21.6036 102.998C21.3674 103.171 21.0803 103.64 20.8446 103.797C20.801 103.825 20.5635 103.622 20.4432 103.607C19.9736 103.546 19.7795 103.797 20.5372 104.445C19.8796 104.314 20.0214 104.912 19.8132 105.175C19.3714 105.729 18.3137 106.498 18.1904 107.231C18.1127 107.694 18.4421 107.996 17.7687 108.142C17.6193 108.174 17.4488 108.186 17.2688 108.226C16.8462 108.32 16.0216 107.988 16.5496 108.875C16.0865 108.985 15.998 109.342 15.1785 108.968C15.3016 109.135 15.4247 109.301 15.5477 109.467C15.5174 109.506 15.4871 109.545 15.4568 109.584C15.3058 109.461 15.1547 109.337 15.0037 109.214C14.7226 109.431 14.9914 110.306 14.7814 110.517C14.4298 110.871 13.3165 111.585 12.7997 111.745C12.5253 111.83 12.8168 112.128 12.0989 111.639C12.1031 111.721 12.1073 111.803 12.1114 111.885C12.2225 112.04 12.3336 112.195 12.4447 112.35C12.2272 112.588 11.7525 112.662 11.5423 112.886C11.1597 113.294 10.9513 114.258 10.3179 114.429C10.1588 114.472 9.75773 114.331 9.66547 114.434C9.53094 114.583 9.96059 115.062 9.79303 115.255C9.5034 115.585 8.39944 115.66 8.15353 115.999C8.08019 116.1 8.21283 116.306 8.17237 116.385C8.00457 116.719 7.78784 116.917 7.81757 117.419C7.11932 117.259 6.56809 116.688 5.91095 116.216C5.41472 115.86 4.22003 115.082 3.81173 114.743C3.52488 114.505 3.24751 114.103 2.92627 113.846C2.99469 113.302 3.38255 113.418 4.04574 113.558C4.48582 113.065 4.9259 112.573 5.36598 112.08C5.56891 112.191 5.77184 112.302 5.97477 112.413C5.97513 112.414 5.97548 112.414 5.97583 112.414C6.33745 112.41 5.99616 111.934 5.9964 111.745C5.99856 109.934 8.4877 108.751 9.58634 107.808C9.8228 107.604 10.3041 106.666 10.7136 106.764C10.82 106.789 11.0795 107.016 11.1309 106.984C11.3456 106.464 11.5604 105.943 11.7751 105.423C12.9077 105.015 13.3594 103.904 14.0514 103.062C15.9235 100.784 17.7404 98.4947 19.8001 96.4636C20.1986 96.0714 20.5027 95.3807 21.0013 95.1008C21.2091 94.9836 21.6745 95.2977 21.5842 94.7958C21.694 94.8966 21.8039 94.9975 21.9137 95.0983C21.9648 94.7848 21.8355 94.4293 22.0136 94.1935C22.164 93.9954 22.6003 93.5078 22.7925 93.3895C22.8914 93.3274 23.0634 93.5506 23.1354 93.4734C23.2572 93.3397 23.2463 92.7943 23.4189 92.6142C23.5752 92.4509 24.0705 92.3978 24.1571 92.2401C24.4708 91.6741 24.5987 90.8528 25.152 90.4595C25.3055 90.3514 25.7302 90.4301 25.7629 90.3815C25.8256 90.2856 25.5955 90.0186 25.6152 89.9328C25.7166 89.4975 26.4323 89.3531 26.7049 89.0923C27.5933 88.2428 28.3826 87.1974 29.2749 86.359C29.8385 85.8291 30.6819 84.8593 31.3658 84.5268C31.5133 84.4552 31.7626 84.7507 31.8519 84.6574C31.9509 84.554 31.817 84.3183 31.8481 84.2555C32.0624 83.8193 32.5801 82.8993 33.0742 82.7671C33.1687 82.7422 33.428 82.9069 33.4617 82.8702C33.4792 82.8519 33.3702 82.6686 33.4098 82.5968C33.7595 81.9629 34.1989 81.6773 34.7241 81.231C35.7288 80.375 36.505 79.0117 37.6087 78.1586C37.849 77.9727 38.4219 78.236 38.4468 78.2013C38.5022 78.126 38.2539 77.806 38.3124 77.6018C38.5094 76.9258 39.4 76.6141 39.6658 76.0462C39.7973 75.7658 39.7089 75.1227 39.8274 74.8363C39.922 74.6074 40.4429 74.3521 40.3523 74.1237C40.2979 73.9855 40.0048 73.6649 40.0172 73.5736ZM39.5139 83.8518C39.042 83.3429 39.1591 84.0531 39.5398 84.1933C39.6255 84.2249 39.6365 83.9839 39.5139 83.8518ZM24.6571 97.6237C24.8028 97.7578 24.9484 97.8918 25.0941 98.0259C25.0738 97.9279 25.0536 97.83 25.0333 97.7321C24.9253 97.6728 24.8174 97.6136 24.7094 97.5543C24.692 97.5774 24.6745 97.6006 24.6571 97.6237ZM46.9451 57.818C47.0122 57.7435 47.2111 57.9503 47.3101 57.9332C47.7312 57.8648 47.928 58.0002 48.3112 58.0183C48.865 58.0161 50.5264 57.5679 50.4662 59.4519C50.46 59.795 50.3538 60.1706 50.3468 60.5593C50.3398 60.948 50.3835 63.4547 50.3105 63.5982C50.2075 63.7851 49.852 63.1755 49.7767 63.2173C49.7313 63.2439 49.7111 63.4782 49.6624 63.5284C49.5096 63.6901 49.3602 63.5563 49.3879 64.193C49.2394 63.8965 49.0772 63.6055 48.901 63.3212C48.8632 63.4938 48.5733 63.145 48.5224 63.1922C48.4828 63.2299 48.5587 63.4782 48.5187 63.5092C48.4752 63.5449 48.2762 63.3299 48.1987 63.4163C48.0716 63.5577 48.3758 64.161 48.3438 64.2781C48.3129 64.3982 47.9893 64.1699 48.0233 64.4353C48.0533 64.5046 48.0841 64.5735 48.1154 64.6421C48.2209 64.7726 48.3254 64.9039 48.4289 65.0358C48.4333 65.1281 48.2145 64.8628 48.1699 64.8883C48.1175 64.9183 48.2944 65.1932 48.2653 65.2144C48.2414 65.2314 48.0433 65.0563 48.0213 65.0963C47.9892 65.1531 48.2458 65.4295 48.2702 65.5018C48.277 65.5306 48.2666 65.8251 48.2629 65.8347C48.2129 65.9061 47.8345 65.5559 47.7456 65.5857C47.4983 65.6733 47.6789 66.1223 47.7092 66.3625C47.7209 66.4722 47.651 66.5281 47.5363 66.562C46.4761 65.7583 45.3912 65.5884 47.2645 66.4702C46.9557 66.4212 47.4151 66.7467 47.2915 66.7863C47.2102 66.814 46.9305 66.7359 46.8999 66.8265C46.8432 66.9984 47.5632 67.4091 46.1493 67C46.3288 67.2823 45.7638 67.3525 47.0144 67.71C47.082 67.7685 46.2983 67.7398 46.1834 67.7886C46.0713 67.833 45.6714 68.2166 45.6491 68.3107C45.6237 68.3897 45.5959 68.5456 45.709 68.6267C45.8487 68.7326 47.1948 68.781 45.6267 68.9719C45.7631 69.1599 45.7229 69.2088 45.5568 69.3792C45.5269 69.4098 45.2949 69.4379 45.2967 69.4551C45.3009 69.4909 45.4796 69.528 45.5096 69.5877C45.5589 69.6872 45.0859 69.8347 45.8241 69.6946C45.9599 69.7405 46.0961 69.7816 46.2324 69.8181C46.0951 69.8697 45.9583 69.9232 45.8221 69.9784C45.9843 69.9798 46.1462 69.9778 46.3077 69.9732C45.2405 70.1896 45.9292 70.2885 46.5098 70.0436C46.3231 70.2154 46.1448 70.4021 45.9762 70.6018C44.8015 70.9913 45.9514 70.9438 46.5606 70.6532C46.5649 70.6664 46.5692 70.6795 46.5735 70.6926C46.3178 70.9332 46.6098 70.9288 46.4803 71.1617C46.355 71.4008 46.2441 71.4453 45.7713 71.7659C45.8204 71.7875 45.8695 71.8082 45.9188 71.8283C47.3608 71.2042 45.0511 72.6097 46.2656 72.2644C45.5379 72.9337 46.1665 72.9057 46.5161 72.8487C46.5573 72.8432 46.6994 72.717 46.7626 72.6995C46.9132 72.6572 46.8639 72.9578 47.2954 72.5215C47.2094 72.6869 47.1283 72.8558 47.0526 73.0283C47.1667 72.9827 47.279 72.9344 47.3893 72.8833C47.5164 72.7403 47.6436 72.5972 47.7708 72.4542C47.4035 73.0013 47.6883 72.912 47.6484 73.078C47.6407 73.1121 47.4807 73.3224 47.4768 73.41C47.4716 73.5137 47.6055 73.5147 47.6158 73.6219C47.8047 73.3969 47.9899 73.1691 48.1715 72.9387C48.3429 72.8622 47.9619 73.5339 47.9935 73.6234C47.9988 73.6401 48.2265 73.706 48.245 73.6959C48.3965 73.6273 48.6679 73.0332 48.8318 73.2627C48.8615 73.3037 48.8068 73.5277 48.8434 73.5526C48.9119 73.5999 49.2922 73.1867 49.4448 72.7337C49.3294 73.3253 49.6111 73.1492 49.6313 73.3288C49.6386 73.3846 49.5608 73.7572 49.6111 73.85C49.6541 73.9264 49.8405 73.6493 49.8827 73.7062C49.9325 73.7693 49.9228 74.0896 49.9519 74.1157C49.9795 74.1399 50.0264 73.8857 50.0652 73.8908C50.1856 73.9112 50.3203 74.333 50.4602 74.3408C50.6641 74.3529 50.7988 73.5775 50.8589 73.2299C50.8851 73.2768 50.922 73.4375 50.9464 73.4359C51.2311 73.4284 51.7179 73.4555 52.1399 73.4468C52.3214 73.459 53.2844 74.1038 52.2972 72.6761C52.1846 72.3971 52.9135 72.7461 53.0002 72.6857C53.0766 72.6386 52.9296 72.357 52.9741 72.3122C53.1075 72.1769 53.3758 72.2283 53.335 71.8677C53.3237 71.7737 53.0815 71.4906 53.1048 71.4686C53.1338 71.4425 53.4404 71.6277 53.4933 71.5955C53.6179 71.5182 53.6618 71.2431 53.7791 71.1626C53.8015 71.1483 54.075 71.2986 54.1784 71.3143C54.583 71.3753 54.6372 71.1922 53.7312 70.7774C54.3139 70.876 53.9141 70.5014 53.9345 70.3554C53.9915 70.056 54.3562 69.4301 53.9508 69.1966C53.7008 69.0236 53.2591 69.0589 53.6502 68.7352C53.7359 68.6577 53.8495 68.5832 53.9478 68.5009C54.1797 68.3205 54.9839 68.0917 53.9828 68.1055C54.2155 67.9035 54.0091 67.796 54.8015 67.4537C54.5988 67.4829 54.3965 67.5139 54.1946 67.5472C54.184 67.5258 54.1733 67.5045 54.1625 67.4834C54.3486 67.4265 54.5345 67.3687 54.7201 67.3101C54.7196 67.106 53.8894 67.1492 53.8486 67.0325C53.7847 66.822 53.7842 66.1611 53.8501 65.8118C53.8887 65.625 53.5546 65.8752 54.1888 65.2942C54.1223 65.3054 54.0562 65.3175 53.9905 65.3307C53.8319 65.4324 53.6744 65.5358 53.5182 65.6409C53.4172 65.5278 53.5055 65.1919 53.3902 65.0826C53.1732 64.8745 52.5599 65.0465 52.5275 64.63C52.5186 64.5234 52.6381 64.1447 52.5713 64.1126C52.4745 64.0662 52.1555 64.6232 52.0519 64.586C51.8878 64.5231 51.7737 63.687 51.5343 63.6876C51.4684 63.6878 51.3855 63.9138 51.3407 63.9299C51.1538 64.0005 51.0114 63.9592 50.8261 64.3111C50.7268 63.6843 50.7714 62.8939 50.738 62.09C50.7177 61.483 50.518 60.0777 50.4711 59.549C50.443 59.177 50.5502 58.6989 50.512 58.2894C51.0204 57.9678 51.2469 58.3488 51.557 58.9644C52.261 59.0273 52.962 59.1754 53.6351 59.4034C53.6171 59.6354 53.5943 59.8662 53.567 60.0959C53.5668 60.0964 53.5666 60.0969 53.5665 60.0973C53.7002 60.4292 54.0227 59.9452 54.211 59.8886C56.1053 59.3014 57.8251 62.1332 58.3338 63.4585C58.4825 63.735 59.221 64.5573 58.9575 64.9038C58.8911 64.9918 58.5767 65.1336 58.5834 65.1917C58.9599 65.5912 59.3102 66.0369 59.6248 66.5211C59.3321 67.7178 59.8264 68.6571 59.7874 69.8489C59.7005 72.9 58.1449 76.0566 55.3083 77.6488C54.7764 77.9524 54.1437 78.5284 53.4951 78.5674C53.2236 78.5845 52.9779 78.0829 52.7665 78.5645C52.7261 78.421 52.6859 78.2774 52.6458 78.1337C52.4232 78.3751 52.313 78.7469 51.9883 78.8365C51.7107 78.9192 50.9137 79.0106 50.7106 78.9511C50.5958 78.9251 50.6349 78.6458 50.5336 78.6482C50.3688 78.6549 49.9765 79.0321 49.6741 79.0052C49.4059 78.985 48.9857 78.6009 48.8023 78.6119C48.1082 78.6543 47.1939 78.8769 46.533 78.443C46.3507 78.3235 46.2719 77.8807 46.2128 77.8612C46.0933 77.8233 45.8954 78.115 45.7968 78.1129C45.2898 78.1006 44.9317 77.3681 44.6188 77.1015C43.5685 76.2341 42.5051 75.2202 41.9015 74.0117C41.5066 73.2669 40.9459 71.9548 41.0465 71.1497C41.0655 70.9778 41.4505 70.9375 41.4233 70.8091C41.3938 70.6671 41.1246 70.6368 41.0915 70.5713C40.85 70.1463 40.5011 68.9588 40.7851 68.5938C40.8369 68.5147 41.1395 68.4613 41.1398 68.4139C41.1405 68.3898 40.9366 68.3303 40.9191 68.2496C40.7681 67.5123 40.9734 66.9223 41.2045 66.255C41.639 64.9693 41.9992 63.3062 43.0997 62.2664C43.3378 62.0399 43.9286 62.2765 43.9505 62.2426C44.0034 62.1661 43.747 61.8509 43.8143 61.6379C44.0463 60.9215 45.0271 60.6672 45.4487 60.164C45.6559 59.9101 45.7988 59.2425 46.0582 58.9897C46.2617 58.7828 46.9298 58.72 46.9655 58.4727C46.9876 58.3205 46.8734 57.9008 46.9451 57.818ZM46.551 66.7951C45.9147 66.5181 46.3686 66.9443 46.7476 66.9933C46.832 67.0063 46.7154 66.8681 46.551 66.7951ZM51.6809 74.5322C51.6314 74.3406 51.5821 74.1489 51.5331 73.9571C51.5231 74.0444 51.5113 74.1317 51.4979 74.2191C51.5413 74.3313 51.5861 74.4431 51.6322 74.5545C51.6485 74.5471 51.6648 74.5397 51.6809 74.5322Z" fill="#1B1B1B"/>
</svg>
