<svg width="105" height="110" viewBox="0 0 105 110" fill="none" xmlns="http://www.w3.org/2000/svg">
<g clip-path="url(#clip0_1653_2163)">
<path d="M85.8013 106.138L92.4694 99.4695L99.1375 92.8014L71.1315 64.7954L97.8039 49.6811L3.56147 10.5616L42.681 104.804L57.7953 78.1316L85.8013 106.138Z" fill="white"/>
<path d="M19.4941 41.246C25.0238 54.5273 31.1476 69.0388 36.5739 82.4253C37.2401 84.0686 37.0076 84.034 37.1737 84.5036C37.6274 85.7879 38.1608 86.453 38.5247 87.3753C40.2947 91.8582 41.9913 96.0348 43.7333 100.43C43.9576 100.996 44.1311 101.462 44.2639 101.847C44.2982 101.834 43.5375 101.047 43.2318 101.085C42.5097 100.985 42.2531 101.327 42.167 101.47C42.1353 101.617 41.756 102.633 42.3455 101.762C44.2355 99.0333 42.1385 101.077 42.6196 99.8563C44.5308 96.5829 46.493 93.2998 48.4429 90.0405C48.0522 90.8846 47.6601 91.728 47.2596 92.5781C48.09 91.1466 49.3675 89.1481 48.1869 91.6644C48.54 91.1605 48.8817 90.6969 49.242 90.1775C49.0683 89.8808 50.492 87.3198 50.4707 86.9998C50.449 86.6802 49.6721 88.1335 49.6637 88.117C49.5265 87.9137 53.1193 82.1825 53.3809 81.7706C54.0727 80.6819 53.8366 81.8464 54.3563 80.8811C55.3992 79.0925 53.3459 80.4903 56.5508 77.8297C58.5532 76.1769 59.9367 78.0268 60.5056 78.6312C60.6233 78.7528 60.6631 78.5273 60.7192 78.5765C62.1934 79.8538 60.8892 79.043 60.883 79.0635C60.781 79.4154 62.3583 80.7909 62.6475 81.1237C66.2792 85.2978 68.9553 88.341 73.0107 92.5222C73.8876 93.4258 76.6911 96.0451 77.514 96.9452C78.3255 97.8329 77.7061 97.5406 78.0722 98.0638C79.1785 98.3831 79.9018 99.0197 81.2429 100.879C82.1257 101.188 81.8175 101.343 83.0164 102.427C84.014 103.241 86.0825 105.088 85.9471 104.869C85.6766 105.032 85.5737 104.973 84.1425 103.755C83.665 103.334 78.9739 98.6548 79.0292 99.2968C79.0581 99.6316 80.7513 101.044 80.7832 101.132C80.9682 101.646 79.8997 100.981 79.2023 100.142C79.4269 100.3 79.6911 100.497 79.9301 100.67C78.4101 98.7393 78.8078 100.715 78.1859 98.714C78.1083 98.4673 78.2593 98.442 78.0819 98.0848C77.9898 98.0671 78.2246 98.4862 77.9265 98.221C77.6226 97.9504 77.252 97.23 77.0233 97.2961C76.6874 97.3889 77.962 98.4946 78.039 98.5967C78.0413 98.5963 78.0435 98.596 78.0458 98.5957C78.7238 99.5013 77.0571 97.8605 76.9578 97.8019C76.3127 97.4239 76.5587 97.8756 75.6807 97.2183C75.18 96.8432 74.1015 95.6907 73.6696 95.2993C73.2399 94.9112 73.7748 95.6489 73.4778 95.3955C73.1808 95.142 72.9153 94.7224 72.567 94.4246C72.4176 94.2974 72.3115 94.4176 72.2407 94.3546C71.4794 93.6804 72.1855 93.9159 71.5202 93.2794C71.089 92.8673 69.4545 91.6714 70.3647 92.7122C69.873 92.266 69.3991 91.8254 68.9148 91.3768C69.1754 91.7046 69.4566 92.0315 69.7041 92.3582C68.88 91.4264 68.2893 91.2228 67.7247 90.687C67.16 90.151 66.8989 89.4253 66.1802 88.9332C64.6469 87.882 67.9581 90.9704 68.3123 91.4107C68.4502 91.5825 67.6738 91.17 67.577 91.0836C67.1476 90.6997 66.7966 90.0885 66.4773 89.7809C65.3332 88.6804 64.4743 88.1648 63.3701 87.1299C61.4901 85.3677 59.3967 83.381 57.3372 81.4081C56.3053 80.4902 58.1069 82.0246 59.0526 81.0952C60.2248 79.686 58.8012 81.7658 58.6824 82.0858C58.0288 83.2853 57.3968 84.4379 56.8069 85.5059C55.928 87.0967 55.1513 87.9135 54.7559 88.6269C53.831 90.296 53.9228 90.6167 53.1132 92.071C51.9089 94.2359 50.0077 97.1698 48.9492 98.9468C48.2167 100.177 47.7781 101.418 47.5994 101.745C47.2895 102.313 46.9698 102.895 46.6434 103.487C46.4802 103.783 46.3154 104.081 46.1493 104.381C45.7563 105.238 44.283 106.344 43.0184 106.343C41.7304 106.42 40.3646 105.793 39.6053 104.606C38.8765 103.24 39.1705 103.676 38.9533 103.21C38.6827 102.568 38.4131 101.926 38.1467 101.291C37.0813 98.7486 36.0675 96.3048 35.2443 94.3252C34.4699 92.4632 34.3417 91.4794 34.175 91.0978C33.459 89.4568 33.4387 89.9849 32.903 88.636C32.6134 87.9074 32.7533 87.6905 32.7208 87.5905C32.4312 86.7103 32.1045 86.6468 31.8198 85.9845C30.1821 82.1759 28.8188 78.4183 27.2697 74.617C27.1575 74.3411 27.2811 74.3184 27.2013 74.1427C26.8559 73.3892 26.8248 73.819 26.48 73.0249C25.7619 71.3735 25.0827 69.6538 24.3735 67.8815C24.3033 67.706 24.4166 67.5669 24.2508 67.1674C24.0848 66.7674 23.8206 66.5215 23.5676 65.8902C22.9065 64.2409 22.3997 62.5529 21.6873 60.8113C21.5693 60.5232 21.2457 60.2398 21.0685 59.8077C20.5126 58.4519 19.8403 56.3819 19.3648 55.2198C17.7948 51.3865 16.2298 47.8986 14.7325 44.2953C14.3811 43.4485 14.2324 42.6305 14.0534 42.1883C13.6494 41.1915 13.8067 42.0048 13.3883 40.9988C9.97221 32.78 6.61679 24.4989 3.15204 16.1867C2.78113 15.2711 2.57483 14.937 1.97056 13.3405C1.47018 11.5287 2.47725 9.71398 4.09712 9.06965C4.89338 8.7326 5.95687 8.74503 6.71556 9.05115C7.05319 9.18449 7.19939 9.2411 7.44113 9.33612C9.25246 10.0471 11.0476 10.7585 12.6169 11.4357C13.9217 11.9993 14.0716 12.3108 14.9991 12.6981C16.654 13.388 17.0675 13.24 18.8255 13.9379C20.2284 14.4952 21.713 15.4306 23.1702 16.0158C24.6275 16.601 25.4065 16.6144 27.0856 17.2743C28.4685 17.818 30.3345 18.7332 31.8365 19.3339C45.6008 24.8383 59.1268 30.3255 72.8156 36.2501C77.6457 38.3407 83.0539 40.5411 87.969 42.886C88.4306 43.1064 87.6029 43.0622 89.1378 43.6364C89.9625 43.9446 91.1884 44.1956 93.0713 44.9643C94.7543 45.7718 94.6726 45.1166 98.1432 47.4233C99.0943 48.4642 99.3262 49.9549 98.7797 51.2219C98.1856 52.6011 96.9722 53.0233 96.826 53.141C96.1515 53.5156 95.4745 53.8901 94.7954 54.2645C92.0789 55.7621 89.329 57.2583 86.5741 58.7585C83.8192 60.2586 81.0593 61.7628 78.3226 63.2762C76.9542 64.0329 75.5917 64.792 74.2385 65.554C73.9861 65.692 73.1977 66.1582 73.483 65.9686C73.8915 65.6521 74.0341 65.1749 73.9213 64.7224C73.0107 63.237 74.508 65.1441 74.8774 65.4254C81.4424 71.8831 88.4468 78.1383 94.9701 84.448C96.6009 86.0255 98.2017 87.6064 99.758 89.1946C100.099 89.7287 100.668 89.3165 101.581 91.883C102.196 94.1547 100.108 95.9883 100.052 96.0247C99.254 96.7788 98.4533 97.52 97.6497 98.2465C94.4354 101.153 91.1753 103.823 87.8373 106.143C87.1822 106.599 86.9934 105.808 87.1868 105.336C87.5949 105.127 87.9984 104.96 88.4337 104.749C88.2283 103.73 88.316 103.961 89.8784 102.509C90.8406 101.615 89.8375 102.094 90.258 101.525C90.8033 100.788 93.5121 97.4745 93.3383 98.4589C93.4547 98.202 93.5597 97.9624 93.6727 97.7118C94.732 96.5911 95.7658 95.4759 96.7867 94.3598C97.9267 92.9993 98.5719 93.0371 97.0352 91.8119C96.6465 91.4639 96.5024 91.5741 96.1017 91.2139C95.0245 90.2476 94.2969 89.3529 93.2312 88.3129C92.6523 87.7479 92.426 87.8155 91.6864 87.0571C90.9473 86.2991 91.1621 86.1171 89.9251 85.3114C90.3414 86.2256 87.5545 83.0774 86.4838 82.0374C86.3287 81.8862 84.8489 80.8537 84.2069 80.1603C83.5622 79.4651 82.688 78.3052 81.5709 77.3502C81.047 76.9025 80.578 76.7819 80.0441 76.2678C79.6687 75.9062 79.3808 75.3087 78.9206 74.8357C78.4606 74.3628 77.3243 73.4806 77.1373 73.2978C76.4613 72.6387 77.3066 73.2662 76.8555 72.8042C75.7659 71.6899 74.5956 70.478 73.4169 69.2822C72.8275 68.6844 72.236 68.0905 71.6515 67.5149C71.3479 67.2467 69.3047 65.3498 70.6628 63.4875C71.2919 62.7079 70.2644 63.679 70.3545 63.5935C73.8743 60.3076 71.7873 62.5117 72.6627 62.0594C73.3238 61.8653 77.5526 59.3705 77.4286 59.0784C77.7545 59.3475 78.5552 58.5472 78.7961 58.3974C79.7337 57.8146 79.7139 58.2184 80.5921 57.5994C80.9145 57.3725 80.136 57.5483 80.5062 57.3462C81.4213 56.847 82.4203 56.7072 83.6457 56.0555C83.9416 55.8982 83.9549 55.7008 84.4759 55.412C84.9975 55.123 87.2719 54.0665 86.0965 54.332C87.5531 53.8276 87.7431 53.5438 89.2809 52.6812C89.6706 52.463 90.3022 52.4112 91.0885 51.8707C91.3543 51.6879 91.2196 51.4693 91.6396 51.2289C92.5995 50.6785 93.6374 50.3957 94.8643 49.7125C96.0965 50.1174 92.7623 49.4072 90.3444 48.2324C89.6641 47.9303 89.9346 47.7632 88.937 47.3437C88.7901 47.2827 87.5007 46.9891 86.8179 46.683C86.4071 46.4988 84.3132 45.4598 83.8836 45.2679C83.1729 44.951 82.949 45.1282 82.5742 44.9198C81.4904 44.3176 82.5439 44.3572 80.9823 44.2531C80.639 43.809 79.8283 43.5026 79.7034 43.0795C79.0937 43.2333 78.6282 42.6491 77.6767 42.3905C76.7251 42.1319 75.7054 42.4967 75.7869 41.6825C75.3284 41.5953 73.4684 40.9991 73.1607 40.8843C72.2543 40.5443 72.8151 40.5426 72.1295 40.2897C72.0089 40.2449 72.0765 40.4334 71.3201 40.1036C70.8237 39.8869 67.163 38.3575 66.952 38.248C64.5445 36.9975 68.3687 38.677 68.97 38.753C69.0492 38.8314 69.1273 38.9096 69.213 38.9903C70.2894 39.5128 69.7896 38.943 69.3193 38.6636C68.8489 38.3843 67.8574 38.1341 67.4838 37.8601C67.2978 37.7232 67.58 37.4058 68.1878 37.7106C67.5649 37.3182 68.5302 37.5776 68.3097 37.3603C68.0671 37.1218 65.0703 35.8354 64.9696 36.0329C65.5292 36.2736 66.2322 36.5571 66.7976 36.8017C67.3942 37.4653 64.6315 37.7394 62.7602 36.395C61.4024 35.4207 63.9961 36.1707 60.3175 34.9885C60.8585 35.2297 61.3074 35.4549 61.7982 35.6761C61.7406 35.9642 61.0559 35.3369 60.6051 35.249C60.3883 35.2076 61.5406 35.9068 60.4461 35.526C59.6853 34.764 58.8194 34.8534 57.2766 34.2183C57.733 34.3282 58.1898 34.4386 58.6462 34.5485C56.1572 33.1918 62.2424 35.611 57.2437 33.3549C57.858 33.5956 58.4629 33.8504 59.083 34.0859C58.8441 33.823 59.4893 33.6102 59.2596 33.4134C58.6571 32.8967 57.5691 32.6058 56.7275 32.233C56.359 32.0702 56.6356 32.0553 56.6046 32.0417C56.1003 31.818 56.1455 32.0269 55.6942 31.8517C55.1264 31.6312 53.5674 30.7991 53.2965 30.7078C52.5961 30.4708 53.5978 31.2619 53.5222 31.2586C53.0234 31.2334 52.1894 30.7364 52.1518 30.9586C54.3449 31.7053 60.4236 34.4386 54.7178 32.4634C56.1164 33.4282 55.4857 33.6961 53.2643 32.8157C51.4265 32.0877 52.6795 32.3956 51.812 31.8021C51.6995 31.7262 49.2942 30.6161 49.1105 30.7049C49.3431 30.4214 48.6666 29.8041 49.3393 29.6912C49.4379 29.6745 50.4331 30.1104 50.1946 29.6962C50.0757 29.4884 49.6955 28.9859 49.8478 28.8476C49.5919 28.8815 49.3204 28.9265 49.0592 28.9643C47.5413 28.3752 47.3811 28.1577 46.6517 27.5934C46.6505 27.7021 47.2477 28.4085 46.1437 27.8108C46.0875 27.7792 46.0946 27.6175 45.5375 27.3046C44.411 26.6734 44.1818 26.5273 45.262 26.4924C42.7114 25.7094 42.3737 25.0305 39.8024 24.1207C40.0825 24.8583 41.0214 25.0942 43.3673 25.9482C43.415 26.1158 43.4101 26.26 43.4603 26.4301C40.5129 24.8718 42.0159 25.5297 40.1727 25.0646C39.7215 24.9509 37.4828 23.9429 38.0911 24.6138C38.2348 24.7718 39.6469 25.3467 39.4305 25.412C39.3888 25.4242 37.6503 24.7778 37.5136 24.6809C35.7947 23.4726 39.3016 24.5834 34.0216 22.572C33.876 22.5169 33.7615 22.6502 33.4717 22.5551C32.9269 22.3759 32.9945 22.1945 32.5057 22.0399C32.0166 21.8854 31.2629 21.8544 30.6457 21.3377C29.5166 20.3946 32.6729 21.4319 33.9467 22.2122C34.7194 21.9131 24.9879 17.86 24.3658 17.6548C21.6497 16.7584 26.0807 18.4643 26.2456 18.7047C26.3137 18.8057 25.9405 19.5729 27.2617 19.523C27.6526 19.5079 26.3636 18.7392 27.2168 18.9956C28.0703 19.2521 27.6497 19.3491 27.7024 19.3899C27.8831 19.5298 28.7897 19.8055 28.889 19.8852C30.42 21.105 29.9481 21.792 28.1062 19.7233C26.9985 19.5582 29.1351 20.915 27.8172 20.568C26.2152 20.1462 25.2577 19.3282 25.0738 19.2329C22.869 18.0935 25.2855 19.7104 22.5649 18.385C21.0501 17.6471 25.0344 19.0016 21.4727 17.5633C18.4912 16.3598 20.0191 17.2077 19.6314 17.5325C19.5403 17.6083 17.864 17.0519 20.0971 17.9289C20.2044 17.8469 20.3817 17.7537 20.5636 17.7125C21.0743 18.0169 21.7561 18.9332 22.0366 19.0717C23.4089 19.7467 23.4572 19.4381 24.1514 20.1133C23.7077 19.5056 24.5835 20.1244 24.9777 20.1986C26.4407 20.4763 24.7188 19.6391 27.5907 21.2547C27.2672 20.9219 26.9799 20.6078 26.6686 20.2808C27.0335 20.4254 27.3987 20.57 27.7636 20.7147C28.1495 21.3121 30.095 22.0637 28.1953 21.7154C30.2481 22.6925 31.1295 22.9631 31.7095 22.8637C31.8197 22.8445 32.144 22.9532 32.5165 23.1015C32.4803 22.9908 32.4954 22.7016 32.5665 22.6948C33.2013 22.6396 33.8154 23.4452 33.4651 23.51C33.7205 23.626 33.9214 23.7212 33.9919 23.7556C34.4392 23.9739 33.4724 23.7627 33.8212 23.9726C33.9363 24.0415 35.2436 24.5428 35.2412 24.6191C35.2216 25.1064 33.221 23.9185 37.3908 25.9372C37.6536 25.5954 35.6344 24.8564 36.3135 24.6594C37.0426 24.4475 37.914 25.4994 38.3813 25.0621C38.4351 25.1883 38.4446 25.2787 38.4808 25.4119C40.3064 25.8947 40.1431 26.3527 40.63 26.6708C41.575 27.2897 46.3005 29.2172 42.2296 27.0719C42.8646 27.29 43.5039 27.5344 44.1339 27.7557C43.9407 28.618 43.6986 28.1424 46.6136 29.4964C47.2556 29.7947 47.3214 30.2365 48.1364 30.0825C47.8783 30.4583 49.9137 31.0114 50.0732 31.1362C51.0947 31.9414 46.6129 30.6116 46.3647 29.6547C45.5222 29.6374 45.6803 29.2636 44.8505 28.9774C43.6517 28.5639 43.4591 28.5696 42.1861 27.7168C40.6584 27.5396 47.4622 30.108 43.1779 28.9358C38.8925 27.7631 15.0697 18.2126 9.50794 15.9949C8.24844 15.4926 7.06351 15.0204 5.93658 14.5713C5.6389 14.3897 3.65744 13.93 5.53143 14.2235C6.66808 14.1417 7.42686 13.1522 7.20947 12.0149C7.66496 12.8491 8.77324 15.5849 9.50064 17.2589C11.0715 20.9371 12.569 24.4964 14.425 29.0006C14.7915 29.889 17.6104 36.5744 16.5818 35.3687C16.4342 35.1955 15.0665 32.3844 15.7391 35.0034C15.7391 34.4138 16.4781 35.8112 16.5506 35.924C18.2108 38.5142 17.6608 36.8441 19.4941 41.246ZM20.8959 55.9692C18.6128 50.1787 20.0645 54.5264 18.8888 53.6147C19.1931 54.3532 19.4963 55.0889 19.8006 55.8274C19.7628 55.6159 19.7259 55.407 19.6881 55.1955C19.6878 55.1947 19.6874 55.1938 19.6871 55.193C20.0896 55.4509 20.4933 55.7113 20.8959 55.9692ZM70.79 93.801C70.5498 93.6979 70.3114 93.5969 70.0583 93.4779C69.4982 92.8752 68.9399 92.2752 68.3798 91.6725C68.4957 91.6953 68.6098 91.7153 68.7257 91.7382C69.4115 92.4279 70.095 93.1157 70.79 93.801ZM34.7914 22.4475C35.7633 23.1426 35.8506 22.6583 37.195 23.4535C37.156 23.0532 37.0947 22.6519 37.045 22.2509C35.9376 21.8481 35.6388 21.8701 34.491 21.2998C34.5848 21.4622 34.6815 21.6266 34.7719 21.7883C34.9779 21.8474 35.1978 21.9085 35.3966 21.9675C35.5773 22.388 33.6718 21.6487 34.7874 22.4466C34.7887 22.4469 34.79 22.4472 34.7914 22.4475ZM45.8639 26.889C46.4245 27.1717 48.6488 28.283 49.0177 28.277C50.2683 28.2566 43.6839 25.8658 48.6173 27.434C48.6223 27.3603 48.6703 27.3061 48.6969 27.2422C47.8374 26.8589 46.9791 26.4798 46.1115 26.0984C46.0527 26.3725 45.9171 26.611 45.8639 26.889ZM12.238 35.1918C11.9046 34.2884 9.92948 30.1416 10.2113 31.6437C10.2946 32.0854 11.4967 33.8038 11.777 34.5302C11.9586 35.0006 11.5134 34.5737 11.9788 35.4577C12.0628 35.3753 12.1641 35.3038 12.2363 35.1896C12.2369 35.1903 12.2374 35.1911 12.238 35.1918ZM14.26 36.3061C13.8379 35.4042 13.3997 34.4942 12.9723 33.587C12.9922 34.3703 13.7108 35.6291 13.3767 35.8594C13.2439 35.6178 13.1124 35.3791 12.9796 35.1376C12.9793 34.9106 12.9803 34.6865 12.9813 34.4627C12.4527 33.7514 12.5534 34.2733 11.9972 32.771C11.8143 33.8949 11.5859 34.1843 13.1972 36.4835C12.6982 36.1301 11.9056 36.9867 13.188 38.0995C13.4269 38.3081 13.0586 37.1756 13.0741 37.1545C13.2613 36.8791 13.678 37.4194 13.8458 37.1376C13.922 37.0107 13.6427 36.3426 13.7537 36.1792C13.809 36.1021 14.2854 36.6501 14.26 36.3061ZM13.7161 38.679C13.4422 38.4593 13.476 39.5847 13.9012 40.3975C14.5638 41.6651 14.054 39.4438 13.7161 38.679ZM70.7941 93.8046C70.7928 93.8034 70.7914 93.8022 70.79 93.801C70.7909 93.8014 70.7918 93.8017 70.7927 93.8021C70.7932 93.8029 70.7937 93.8037 70.7941 93.8046ZM42.9571 25.471C43.6933 25.6214 44.6938 26.0593 44.7067 25.8178C45.0208 25.9967 45.3389 26.1765 45.6531 26.3554C45.6763 26.2908 45.6963 26.2248 45.7192 26.1608C44.7386 25.7075 43.7611 25.2554 42.7807 24.8015C42.8354 25.0227 42.8805 25.2407 42.9571 25.471ZM53.7574 30.1271C55.0017 30.6686 54.07 29.946 54.4025 29.9218C54.735 29.8976 55.8046 30.4736 55.7557 30.2206C55.0213 29.9067 54.2552 29.5795 53.5111 29.2623C53.6184 29.56 53.6646 29.8369 53.7599 30.1281C53.7591 30.1278 53.7582 30.1274 53.7574 30.1271ZM30.4077 79.5211C30.1169 78.6454 30.4795 78.9015 29.5268 77.3293C29.5274 77.3306 29.5279 77.3318 29.5284 77.3331C30.0123 79.0045 30.7062 81.1267 31.6111 82.8175C31.3941 81.6437 30.866 80.899 30.4077 79.5211ZM32.0862 20.5684C31.6554 20.5927 33.267 21.4312 33.7026 21.4233C34.4075 21.4106 32.7424 20.5324 32.0862 20.5684ZM48.0775 95.2431C48.2655 93.7403 46.3937 95.729 45.2675 98.284C45.1704 98.5051 46.2144 97.0352 46.0505 97.553C46.0336 97.6052 45.5362 98.4551 45.486 98.7066C45.4359 98.9582 45.7246 98.8277 45.5959 99.2138C45.3697 99.891 44.3681 101.144 44.266 101.689C44.2529 101.76 44.9545 101.029 44.9931 100.98C45.6218 100.178 45.8167 99.1711 45.8916 99.0344C46.2773 98.3311 46.4403 98.5628 46.5928 98.4158C46.8799 98.1389 47.1134 97.4972 47.144 97.4602C47.9395 96.5119 46.5124 98.9 46.4076 99.2723C46.1255 100.275 46.7889 99.5746 45.715 101.755C45.613 101.962 44.2401 104.354 46.2031 101.472C43.3583 107.704 48.1896 98.6556 48.624 97.622C48.824 97.1454 48.2285 97.7012 48.2864 97.3763C48.4182 96.6341 48.9769 95.5583 48.6154 95.4779C47.8525 95.3141 47.4925 96.9388 46.843 97.831C46.759 97.6512 46.6435 97.5352 46.611 97.2717C46.6343 97.6622 48.0653 95.3529 48.0788 95.2438C48.0784 95.2436 48.0779 95.2433 48.0775 95.2431ZM38.7852 97.5893C38.4049 96.0872 38.0124 96.3676 37.7222 94.9674C36.8576 93.9853 37.8204 96.2308 37.9075 96.5027C38.3074 97.7435 37.8721 97.8919 38.5122 99.0656C38.5878 98.5396 38.6985 98.0905 38.7852 97.5893ZM47.0422 99.1886C46.7438 100.198 47.6448 98.5996 47.7211 98.5573C48.5405 98.0904 45.7503 102.824 47.0422 99.1886ZM10.8218 29.3136C10.6369 28.8262 10.5532 29.2189 10.3149 28.8205C10.0759 28.4216 9.65286 26.8938 9.53701 26.9846C9.42135 27.0765 10.1862 29.8803 9.0032 27.2384C8.96713 27.3595 8.89952 27.3518 8.85111 27.4232C9.15408 28.1585 9.45853 28.9011 9.7615 29.6364C9.80615 29.1452 9.85767 28.6395 9.90169 28.1669C10.2417 28.5094 10.1215 28.8311 10.1306 28.853C10.1308 28.8529 10.131 28.8528 10.1313 28.8527C10.4673 29.6144 11.2372 30.4077 10.8218 29.3136ZM25.8846 67.4668C26.4711 67.3919 25.4118 66.5016 25.1532 66.063C24.8948 65.6244 24.8243 64.9035 24.6973 65.238C24.8536 66.0563 25.8193 67.4756 25.8853 67.4665C25.885 67.4666 25.8848 67.4667 25.8846 67.4668ZM35.5911 89.8974C34.9706 88.7636 34.9118 89.0089 34.4654 87.4921C34.3614 87.6012 34.2546 87.7115 34.1526 87.8198C34.6287 88.9742 34.9647 88.7396 35.37 90.1357C35.4363 90.3646 34.9466 90.0188 35.4513 90.9667C35.4896 90.6139 35.5437 90.2502 35.5911 89.8974ZM32.6773 84.2113C33.2624 85.566 34.7415 86.2191 33.2349 83.9021C33.0111 83.559 32.237 83.1926 32.6773 84.2113ZM16.0658 41.8733C15.1332 39.5427 16.0601 42.2453 16.1522 42.9146C13.7854 37.5705 16.4485 43.5058 16.1453 44.2628C16.569 44.8601 17.4243 45.9518 16.947 44.5427C16.7477 43.9548 16.6776 44.2288 16.6639 44.1941C16.2655 43.1247 16.575 43.1458 16.0658 41.8733ZM39.8318 100.039C39.7877 99.9548 39.6667 100.166 39.5156 99.9021C39.3647 99.6383 39.2276 98.9562 39.0925 98.939C38.9568 98.9224 39.3965 100.222 39.6375 100.577C39.8792 100.931 40.2285 100.801 39.8318 100.039ZM36.5774 90.9609C35.9686 89.8559 36.0994 92.0218 36.207 92.2724C37.1599 94.4712 36.3426 90.9814 36.5774 90.9609ZM19.4134 46.7945C17.9206 44.1383 18.1906 46.4226 18.5707 48.3167C18.7371 48.5187 18.906 48.7265 19.0705 48.9256C18.2066 48.053 17.0196 46.3881 19.0923 50.3279C18.2627 48.0449 19.1567 49.8739 19.1868 49.8783C20.0753 49.799 18.3322 46.6306 19.4145 46.797C19.4141 46.7961 19.4138 46.7953 19.4134 46.7945ZM41.7794 104.25C43.1393 105.295 44.9331 103.067 44.9834 102.536C45.3155 101.781 45.4279 101.32 44.8728 101.923C44.6875 102.426 44.5166 102.905 44.3179 103.43C43.9295 104.295 42.7375 104.738 41.7794 104.25ZM14.8088 15.9882C15.7215 16.5967 16.639 16.9737 17.8697 17.4694C16.8848 16.7264 17.6234 16.9946 18.0243 17.0791C18.6321 17.2083 17.2619 16.6496 17.266 16.6288C17.4034 16.3683 18.2924 16.688 16.3055 15.8708C16.8352 15.9801 17.3588 16.086 17.8882 16.1959C16.3809 15.5558 16.0981 15.2313 15.2284 14.6172C15.9409 15.5313 14.8516 14.692 13.6299 14.4926C13.02 14.3934 14.3447 15.6782 14.8125 15.9898C14.8113 15.9893 14.81 15.9888 14.8088 15.9882ZM18.3205 43.8626C18.1062 43.6145 17.8684 43.4047 17.6443 43.1716C17.5081 42.8727 17.373 42.5727 17.2368 42.2738C17.3052 42.2015 17.3801 42.1337 17.4427 42.0564C17.3014 41.6468 17.249 41.851 17.1888 41.7369C17.1892 41.7367 17.1897 41.7365 17.1901 41.7363C16.3282 40.0978 16.0562 39.3933 15.7621 37.9513C15.5047 38.0582 15.2473 38.165 14.99 38.2719C15.1389 38.5615 15.2887 38.8545 15.437 39.1445C15.6415 39.2464 15.8463 39.349 16.0508 39.451C16.1185 39.8296 16.1854 40.2048 16.2532 40.5834C16.4183 40.8407 16.6093 41.1531 16.7576 41.3736C16.6129 43.0567 15.7955 39.7072 15.4852 39.803C15.2854 39.864 16.6093 43.0296 16.9312 43.431C16.9779 43.4886 17.2293 42.5814 17.4314 43.8565C17.4627 44.056 16.3302 44.6009 17.7876 45.4615C17.9946 45.5844 18.4564 44.6634 18.3205 43.8626ZM13.918 32.2009C13.9161 34.2902 11.9706 27.3892 12.5383 30.4799C11.8617 29.8119 11.9284 29.9602 11.9646 30.9013C11.9672 30.9843 11.6398 30.4597 11.6477 30.5125C11.7975 31.3444 12.2674 32.2265 11.9668 32.3586C12.0685 32.5581 12.1634 32.7461 12.2652 32.9456C12.1943 31.968 12.9532 33.2542 13.4136 33.6824C13.6226 33.8776 13.4268 33.3106 13.6064 33.4734C13.6724 33.5338 13.9232 34.3349 14.0365 34.3251C14.2899 34.2968 14.3944 33.6849 14.2199 32.7937C14.2202 32.7936 14.2204 32.7935 14.2206 32.7934C14.1202 32.5934 14.019 32.4006 13.918 32.2009ZM29.1079 70.5344C28.824 71.0077 29.2111 72.2717 28.0415 70.02C28.0088 70.169 27.9781 70.3212 27.9453 70.4703C28.1159 70.8611 28.2813 71.2396 28.4538 71.6369C30.1594 72.3359 29.7062 75.0922 29.98 73.3336C30.0096 73.1418 29.5179 72.251 30.1534 73.0682C30.1531 73.0669 30.1528 73.0655 30.1525 73.0642C29.5405 71.809 29.328 71.7071 29.1079 70.5344ZM25.2451 62.0355C23.1502 59.4241 26.4671 66.3384 26.2055 65.0619C26.1821 64.9471 24.7321 61.9773 25.2451 62.0355ZM35.8861 85.5511C35.3484 84.2138 34.8465 84.3186 34.7347 84.5224C34.6224 84.7266 35.1749 85.5779 35.1978 85.7078C35.2714 86.1317 34.8725 85.3335 34.9618 85.8864C34.9922 86.0692 35.7888 88.4567 35.8529 88.5547C36.2091 89.0984 36.235 88.0766 36.349 88.2271C36.7214 88.7173 36.8317 89.5471 37.102 89.6219C37.6803 89.7848 36.645 88.5821 36.54 88.3501C36.2248 87.6491 36.4957 87.6093 36.3243 87.0576C36.1529 86.5063 35.9249 86.1941 35.7478 85.7184C35.6889 85.5602 35.9126 85.6193 35.8861 85.5511ZM33.0764 81.5571C34.0057 82.8013 32.9835 79.2569 32.7343 78.8895C31.9989 77.8097 32.6319 80.9611 33.0764 81.5571ZM14.6507 37.1259C15.4339 38.2916 14.4108 35.2433 13.9564 34.439C13.9155 34.6401 14.3812 36.7249 14.6507 37.1259ZM19.7338 47.5701C19.1691 46.4341 19.2373 48.2231 19.6512 49.1946C20.2665 49.6094 19.9683 49.1025 19.7192 48.4585C19.4705 47.8152 20.1743 48.4564 19.7338 47.5701ZM41.4594 100.165C41.3608 99.9104 39.361 95.9753 40.2006 98.3647C40.2649 98.5469 41.501 101.369 41.6487 101.561C41.9465 101.946 41.7125 100.822 41.4594 100.165ZM22.6197 52.9454C22.0358 52.4623 21.7875 51.8516 21.6396 52.5798C21.64 52.5807 21.6403 52.5815 21.6407 52.5823C20.8731 51.0653 21.6298 50.6699 21.4729 50.3393C20.9238 49.1831 20.8291 50.5338 20.3381 49.8694C21.2255 51.5199 20.6436 51.1825 21.1633 52.502C21.2801 52.798 21.9932 53.8803 22.2049 53.994C22.4164 54.1073 22.5878 53.3323 22.6197 52.9454ZM43.6766 101.549C42.8123 102.86 42.7104 103.901 43.75 102.493C44.2845 101.641 44.1956 100.801 43.6766 101.549ZM47.0685 29.5762C46.9168 29.3503 46.7586 29.1224 46.5907 28.8913C47.1108 29.0678 47.6317 29.2438 48.1521 29.4197C47.7337 29.2975 47.3152 29.1745 46.894 29.0505C47.824 29.4934 48.1536 29.9265 47.071 29.5772C47.0702 29.5769 47.0694 29.5765 47.0685 29.5762ZM80.8531 43.724C81.2226 44.0343 82.2322 43.9676 82.1394 43.8912C81.4394 43.3183 80.3401 43.2936 80.8531 43.724ZM15.1293 34.7245C14.5312 33.1201 14.3086 34.4865 14.6645 35.4743C14.5474 34.8282 15.4685 35.6349 15.1293 34.7245ZM68.97 38.753C68.8522 38.6362 68.7333 38.5189 68.5984 38.3949C69.0648 38.683 69.129 38.7731 68.97 38.753ZM41.7861 99.2718C41.7376 99.0091 41.0397 97.2071 40.8757 96.9926C40.5337 96.5483 40.7393 98.0942 41.1936 98.8656C41.2435 98.9511 41.834 99.5334 41.7845 99.2681C41.7851 99.2693 41.7856 99.2706 41.7861 99.2718ZM49.0992 30.7216C49.0991 30.714 49.1032 30.7085 49.1105 30.7049C49.1062 30.7102 49.1042 30.7166 49.0992 30.7216ZM77.3992 59.0568C77.414 59.0614 77.4244 59.0684 77.4286 59.0784C77.4199 59.0712 77.4073 59.0656 77.3992 59.0568ZM37.1344 86.4502C37.5298 85.5898 36.6201 84.3626 36.7516 85.5758C36.7601 85.6433 37.0759 86.3056 37.1344 86.4502Z" fill="white"/>
</g>
<defs>
<clipPath id="clip0_1653_2163">
<rect width="105" height="110" fill="white"/>
</clipPath>
</defs>
</svg>
